<mxfile host="app.diagrams.net" modified="2024-04-18T23:18:16.022Z" agent="Mozilla/5.0 (X11; Linux x86_64; rv:125.0) Gecko/20100101 Firefox/125.0" etag="zb31tHF0I_iGcccHo8Gv" version="24.2.5" type="github" pages="19">
  <diagram name="E-1" id="augnzKRWy87w3Yb1pewA">
    <mxGraphModel dx="1434" dy="750" grid="1" gridSize="10" guides="1" tooltips="1" connect="1" arrows="1" fold="1" page="1" pageScale="1" pageWidth="850" pageHeight="1100" math="0" shadow="0">
      <root>
        <mxCell id="0" />
        <mxCell id="1" parent="0" />
        <mxCell id="XwPazrWxvCxKzYbQHGOO-1" value="" style="rounded=0;whiteSpace=wrap;html=1;" vertex="1" parent="1">
          <mxGeometry x="180" y="120" width="120" height="40" as="geometry" />
        </mxCell>
        <mxCell id="XwPazrWxvCxKzYbQHGOO-2" value="" style="rounded=0;whiteSpace=wrap;html=1;" vertex="1" parent="1">
          <mxGeometry x="180" y="160" width="120" height="40" as="geometry" />
        </mxCell>
        <mxCell id="XwPazrWxvCxKzYbQHGOO-3" value="" style="rounded=0;whiteSpace=wrap;html=1;" vertex="1" parent="1">
          <mxGeometry x="180" y="200" width="120" height="40" as="geometry" />
        </mxCell>
        <mxCell id="XwPazrWxvCxKzYbQHGOO-4" value="" style="rounded=0;whiteSpace=wrap;html=1;" vertex="1" parent="1">
          <mxGeometry x="180" y="240" width="120" height="40" as="geometry" />
        </mxCell>
        <mxCell id="XwPazrWxvCxKzYbQHGOO-5" value="" style="rounded=0;whiteSpace=wrap;html=1;" vertex="1" parent="1">
          <mxGeometry x="180" y="280" width="120" height="40" as="geometry" />
        </mxCell>
        <mxCell id="XwPazrWxvCxKzYbQHGOO-6" value="" style="rounded=0;whiteSpace=wrap;html=1;" vertex="1" parent="1">
          <mxGeometry x="180" y="320" width="120" height="40" as="geometry" />
        </mxCell>
        <mxCell id="XwPazrWxvCxKzYbQHGOO-7" value="" style="rounded=0;whiteSpace=wrap;html=1;" vertex="1" parent="1">
          <mxGeometry x="180" y="360" width="120" height="40" as="geometry" />
        </mxCell>
        <mxCell id="XwPazrWxvCxKzYbQHGOO-11" value="&lt;font style=&quot;font-size: 15px;&quot;&gt;Tamanho = 7&lt;/font&gt;" style="rounded=0;whiteSpace=wrap;html=1;" vertex="1" parent="1">
          <mxGeometry x="420" y="80" width="120" height="60" as="geometry" />
        </mxCell>
        <mxCell id="XwPazrWxvCxKzYbQHGOO-12" value="&lt;font style=&quot;font-size: 15px;&quot;&gt;H(k) = k % tamanho&lt;/font&gt;" style="rounded=0;whiteSpace=wrap;html=1;" vertex="1" parent="1">
          <mxGeometry x="570" y="80" width="150" height="60" as="geometry" />
        </mxCell>
        <mxCell id="I3DL76dL9MsT9b5OhzAN-1" value="&lt;font style=&quot;font-size: 16px;&quot;&gt;Inserir 12&lt;/font&gt;" style="rounded=0;whiteSpace=wrap;html=1;" vertex="1" parent="1">
          <mxGeometry x="500" y="170" width="120" height="60" as="geometry" />
        </mxCell>
        <mxCell id="oV-SeqQBjbVwqz7DBcU7-1" value="&lt;font style=&quot;font-size: 19px;&quot;&gt;0&lt;/font&gt;" style="text;html=1;align=center;verticalAlign=middle;whiteSpace=wrap;rounded=0;" vertex="1" parent="1">
          <mxGeometry x="110" y="130" width="60" height="30" as="geometry" />
        </mxCell>
        <mxCell id="oV-SeqQBjbVwqz7DBcU7-2" value="&lt;font style=&quot;font-size: 19px;&quot;&gt;1&lt;/font&gt;" style="text;html=1;align=center;verticalAlign=middle;whiteSpace=wrap;rounded=0;" vertex="1" parent="1">
          <mxGeometry x="110" y="170" width="60" height="30" as="geometry" />
        </mxCell>
        <mxCell id="oV-SeqQBjbVwqz7DBcU7-3" value="&lt;font style=&quot;font-size: 19px;&quot;&gt;2&lt;/font&gt;" style="text;html=1;align=center;verticalAlign=middle;whiteSpace=wrap;rounded=0;" vertex="1" parent="1">
          <mxGeometry x="110" y="210" width="60" height="30" as="geometry" />
        </mxCell>
        <mxCell id="oV-SeqQBjbVwqz7DBcU7-4" value="&lt;font style=&quot;font-size: 19px;&quot;&gt;3&lt;/font&gt;" style="text;html=1;align=center;verticalAlign=middle;whiteSpace=wrap;rounded=0;" vertex="1" parent="1">
          <mxGeometry x="110" y="250" width="60" height="30" as="geometry" />
        </mxCell>
        <mxCell id="oV-SeqQBjbVwqz7DBcU7-5" value="&lt;font style=&quot;font-size: 19px;&quot;&gt;4&lt;/font&gt;" style="text;html=1;align=center;verticalAlign=middle;whiteSpace=wrap;rounded=0;" vertex="1" parent="1">
          <mxGeometry x="110" y="290" width="60" height="30" as="geometry" />
        </mxCell>
        <mxCell id="oV-SeqQBjbVwqz7DBcU7-6" value="&lt;font style=&quot;font-size: 19px;&quot;&gt;5&lt;/font&gt;" style="text;html=1;align=center;verticalAlign=middle;whiteSpace=wrap;rounded=0;" vertex="1" parent="1">
          <mxGeometry x="110" y="330" width="60" height="30" as="geometry" />
        </mxCell>
        <mxCell id="oV-SeqQBjbVwqz7DBcU7-7" value="&lt;font style=&quot;font-size: 19px;&quot;&gt;6&lt;/font&gt;" style="text;html=1;align=center;verticalAlign=middle;whiteSpace=wrap;rounded=0;" vertex="1" parent="1">
          <mxGeometry x="110" y="370" width="60" height="30" as="geometry" />
        </mxCell>
      </root>
    </mxGraphModel>
  </diagram>
  <diagram name="E-2" id="Eve7TSu6Cgmrn5NvszJb">
    <mxGraphModel dx="1434" dy="750" grid="1" gridSize="10" guides="1" tooltips="1" connect="1" arrows="1" fold="1" page="1" pageScale="1" pageWidth="850" pageHeight="1100" math="0" shadow="0">
      <root>
        <mxCell id="k9LsBbKBzc1jvdpLVdJB-0" />
        <mxCell id="k9LsBbKBzc1jvdpLVdJB-1" parent="k9LsBbKBzc1jvdpLVdJB-0" />
        <mxCell id="k9LsBbKBzc1jvdpLVdJB-2" value="" style="rounded=0;whiteSpace=wrap;html=1;" vertex="1" parent="k9LsBbKBzc1jvdpLVdJB-1">
          <mxGeometry x="180" y="120" width="120" height="40" as="geometry" />
        </mxCell>
        <mxCell id="k9LsBbKBzc1jvdpLVdJB-3" value="" style="rounded=0;whiteSpace=wrap;html=1;" vertex="1" parent="k9LsBbKBzc1jvdpLVdJB-1">
          <mxGeometry x="180" y="160" width="120" height="40" as="geometry" />
        </mxCell>
        <mxCell id="k9LsBbKBzc1jvdpLVdJB-4" value="" style="rounded=0;whiteSpace=wrap;html=1;" vertex="1" parent="k9LsBbKBzc1jvdpLVdJB-1">
          <mxGeometry x="180" y="200" width="120" height="40" as="geometry" />
        </mxCell>
        <mxCell id="k9LsBbKBzc1jvdpLVdJB-5" value="" style="rounded=0;whiteSpace=wrap;html=1;" vertex="1" parent="k9LsBbKBzc1jvdpLVdJB-1">
          <mxGeometry x="180" y="240" width="120" height="40" as="geometry" />
        </mxCell>
        <mxCell id="k9LsBbKBzc1jvdpLVdJB-6" value="" style="rounded=0;whiteSpace=wrap;html=1;" vertex="1" parent="k9LsBbKBzc1jvdpLVdJB-1">
          <mxGeometry x="180" y="280" width="120" height="40" as="geometry" />
        </mxCell>
        <mxCell id="k9LsBbKBzc1jvdpLVdJB-7" value="" style="rounded=0;whiteSpace=wrap;html=1;" vertex="1" parent="k9LsBbKBzc1jvdpLVdJB-1">
          <mxGeometry x="180" y="320" width="120" height="40" as="geometry" />
        </mxCell>
        <mxCell id="k9LsBbKBzc1jvdpLVdJB-8" value="" style="rounded=0;whiteSpace=wrap;html=1;" vertex="1" parent="k9LsBbKBzc1jvdpLVdJB-1">
          <mxGeometry x="180" y="360" width="120" height="40" as="geometry" />
        </mxCell>
        <mxCell id="k9LsBbKBzc1jvdpLVdJB-9" value="&lt;font style=&quot;font-size: 15px;&quot;&gt;Tamanho = 7&lt;/font&gt;" style="rounded=0;whiteSpace=wrap;html=1;" vertex="1" parent="k9LsBbKBzc1jvdpLVdJB-1">
          <mxGeometry x="420" y="80" width="120" height="60" as="geometry" />
        </mxCell>
        <mxCell id="k9LsBbKBzc1jvdpLVdJB-10" value="&lt;font style=&quot;font-size: 15px;&quot;&gt;H(k) = k % tamanho&lt;/font&gt;" style="rounded=0;whiteSpace=wrap;html=1;" vertex="1" parent="k9LsBbKBzc1jvdpLVdJB-1">
          <mxGeometry x="570" y="80" width="150" height="60" as="geometry" />
        </mxCell>
        <mxCell id="k9LsBbKBzc1jvdpLVdJB-18" value="&lt;font style=&quot;font-size: 16px;&quot;&gt;Inserir 12&lt;/font&gt;" style="rounded=0;whiteSpace=wrap;html=1;" vertex="1" parent="k9LsBbKBzc1jvdpLVdJB-1">
          <mxGeometry x="490" y="160" width="120" height="60" as="geometry" />
        </mxCell>
        <mxCell id="d2flOp0FeqdRZtsb8cM_-0" value="&lt;font style=&quot;font-size: 16px;&quot;&gt;12&lt;/font&gt;" style="text;html=1;align=center;verticalAlign=middle;whiteSpace=wrap;rounded=0;" vertex="1" parent="k9LsBbKBzc1jvdpLVdJB-1">
          <mxGeometry x="210" y="320" width="60" height="40" as="geometry" />
        </mxCell>
        <mxCell id="e-xmMrp0vG1wPNzVTCzG-0" value="&lt;font style=&quot;font-size: 19px;&quot;&gt;0&lt;/font&gt;" style="text;html=1;align=center;verticalAlign=middle;whiteSpace=wrap;rounded=0;" vertex="1" parent="k9LsBbKBzc1jvdpLVdJB-1">
          <mxGeometry x="110" y="125" width="60" height="30" as="geometry" />
        </mxCell>
        <mxCell id="e-xmMrp0vG1wPNzVTCzG-1" value="&lt;font style=&quot;font-size: 19px;&quot;&gt;1&lt;/font&gt;" style="text;html=1;align=center;verticalAlign=middle;whiteSpace=wrap;rounded=0;" vertex="1" parent="k9LsBbKBzc1jvdpLVdJB-1">
          <mxGeometry x="110" y="165" width="60" height="30" as="geometry" />
        </mxCell>
        <mxCell id="e-xmMrp0vG1wPNzVTCzG-2" value="&lt;font style=&quot;font-size: 19px;&quot;&gt;2&lt;/font&gt;" style="text;html=1;align=center;verticalAlign=middle;whiteSpace=wrap;rounded=0;" vertex="1" parent="k9LsBbKBzc1jvdpLVdJB-1">
          <mxGeometry x="110" y="205" width="60" height="30" as="geometry" />
        </mxCell>
        <mxCell id="e-xmMrp0vG1wPNzVTCzG-3" value="&lt;font style=&quot;font-size: 19px;&quot;&gt;3&lt;/font&gt;" style="text;html=1;align=center;verticalAlign=middle;whiteSpace=wrap;rounded=0;" vertex="1" parent="k9LsBbKBzc1jvdpLVdJB-1">
          <mxGeometry x="110" y="245" width="60" height="30" as="geometry" />
        </mxCell>
        <mxCell id="e-xmMrp0vG1wPNzVTCzG-4" value="&lt;font style=&quot;font-size: 19px;&quot;&gt;4&lt;/font&gt;" style="text;html=1;align=center;verticalAlign=middle;whiteSpace=wrap;rounded=0;" vertex="1" parent="k9LsBbKBzc1jvdpLVdJB-1">
          <mxGeometry x="110" y="285" width="60" height="30" as="geometry" />
        </mxCell>
        <mxCell id="e-xmMrp0vG1wPNzVTCzG-5" value="&lt;font style=&quot;font-size: 19px;&quot;&gt;5&lt;/font&gt;" style="text;html=1;align=center;verticalAlign=middle;whiteSpace=wrap;rounded=0;" vertex="1" parent="k9LsBbKBzc1jvdpLVdJB-1">
          <mxGeometry x="110" y="325" width="60" height="30" as="geometry" />
        </mxCell>
        <mxCell id="e-xmMrp0vG1wPNzVTCzG-6" value="&lt;font style=&quot;font-size: 19px;&quot;&gt;6&lt;/font&gt;" style="text;html=1;align=center;verticalAlign=middle;whiteSpace=wrap;rounded=0;" vertex="1" parent="k9LsBbKBzc1jvdpLVdJB-1">
          <mxGeometry x="110" y="365" width="60" height="30" as="geometry" />
        </mxCell>
      </root>
    </mxGraphModel>
  </diagram>
  <diagram name="E-3" id="W7tHaF6QhpOBnv08gYKe">
    <mxGraphModel dx="1434" dy="750" grid="1" gridSize="10" guides="1" tooltips="1" connect="1" arrows="1" fold="1" page="1" pageScale="1" pageWidth="850" pageHeight="1100" math="0" shadow="0">
      <root>
        <mxCell id="5k3JR_EgkZlYfD3Bz0ph-0" />
        <mxCell id="5k3JR_EgkZlYfD3Bz0ph-1" parent="5k3JR_EgkZlYfD3Bz0ph-0" />
        <mxCell id="5k3JR_EgkZlYfD3Bz0ph-2" value="" style="rounded=0;whiteSpace=wrap;html=1;" vertex="1" parent="5k3JR_EgkZlYfD3Bz0ph-1">
          <mxGeometry x="180" y="120" width="120" height="40" as="geometry" />
        </mxCell>
        <mxCell id="5k3JR_EgkZlYfD3Bz0ph-3" value="" style="rounded=0;whiteSpace=wrap;html=1;" vertex="1" parent="5k3JR_EgkZlYfD3Bz0ph-1">
          <mxGeometry x="180" y="160" width="120" height="40" as="geometry" />
        </mxCell>
        <mxCell id="5k3JR_EgkZlYfD3Bz0ph-4" value="" style="rounded=0;whiteSpace=wrap;html=1;" vertex="1" parent="5k3JR_EgkZlYfD3Bz0ph-1">
          <mxGeometry x="180" y="200" width="120" height="40" as="geometry" />
        </mxCell>
        <mxCell id="5k3JR_EgkZlYfD3Bz0ph-5" value="" style="rounded=0;whiteSpace=wrap;html=1;" vertex="1" parent="5k3JR_EgkZlYfD3Bz0ph-1">
          <mxGeometry x="180" y="240" width="120" height="40" as="geometry" />
        </mxCell>
        <mxCell id="5k3JR_EgkZlYfD3Bz0ph-6" value="" style="rounded=0;whiteSpace=wrap;html=1;" vertex="1" parent="5k3JR_EgkZlYfD3Bz0ph-1">
          <mxGeometry x="180" y="280" width="120" height="40" as="geometry" />
        </mxCell>
        <mxCell id="5k3JR_EgkZlYfD3Bz0ph-7" value="" style="rounded=0;whiteSpace=wrap;html=1;" vertex="1" parent="5k3JR_EgkZlYfD3Bz0ph-1">
          <mxGeometry x="180" y="320" width="120" height="40" as="geometry" />
        </mxCell>
        <mxCell id="5k3JR_EgkZlYfD3Bz0ph-8" value="" style="rounded=0;whiteSpace=wrap;html=1;" vertex="1" parent="5k3JR_EgkZlYfD3Bz0ph-1">
          <mxGeometry x="180" y="360" width="120" height="40" as="geometry" />
        </mxCell>
        <mxCell id="5k3JR_EgkZlYfD3Bz0ph-9" value="&lt;font style=&quot;font-size: 15px;&quot;&gt;Tamanho = 7&lt;/font&gt;" style="rounded=0;whiteSpace=wrap;html=1;" vertex="1" parent="5k3JR_EgkZlYfD3Bz0ph-1">
          <mxGeometry x="420" y="80" width="120" height="60" as="geometry" />
        </mxCell>
        <mxCell id="5k3JR_EgkZlYfD3Bz0ph-10" value="&lt;font style=&quot;font-size: 15px;&quot;&gt;H(k) = k % tamanho&lt;/font&gt;" style="rounded=0;whiteSpace=wrap;html=1;" vertex="1" parent="5k3JR_EgkZlYfD3Bz0ph-1">
          <mxGeometry x="570" y="80" width="150" height="60" as="geometry" />
        </mxCell>
        <mxCell id="5k3JR_EgkZlYfD3Bz0ph-18" value="&lt;font style=&quot;font-size: 16px;&quot;&gt;Inserir 10&lt;/font&gt;" style="rounded=0;whiteSpace=wrap;html=1;" vertex="1" parent="5k3JR_EgkZlYfD3Bz0ph-1">
          <mxGeometry x="490" y="160" width="120" height="60" as="geometry" />
        </mxCell>
        <mxCell id="5k3JR_EgkZlYfD3Bz0ph-19" value="&lt;font style=&quot;font-size: 16px;&quot;&gt;12&lt;/font&gt;" style="text;html=1;align=center;verticalAlign=middle;whiteSpace=wrap;rounded=0;" vertex="1" parent="5k3JR_EgkZlYfD3Bz0ph-1">
          <mxGeometry x="210" y="320" width="60" height="40" as="geometry" />
        </mxCell>
        <mxCell id="X7aJi7_K9eTIHXgfBEZM-0" value="&lt;font style=&quot;font-size: 16px;&quot;&gt;10&lt;/font&gt;" style="text;html=1;align=center;verticalAlign=middle;whiteSpace=wrap;rounded=0;" vertex="1" parent="5k3JR_EgkZlYfD3Bz0ph-1">
          <mxGeometry x="210" y="240" width="60" height="40" as="geometry" />
        </mxCell>
        <mxCell id="tTQWtJ2l5TGnZTPMulk5-0" value="&lt;font style=&quot;font-size: 19px;&quot;&gt;0&lt;/font&gt;" style="text;html=1;align=center;verticalAlign=middle;whiteSpace=wrap;rounded=0;" vertex="1" parent="5k3JR_EgkZlYfD3Bz0ph-1">
          <mxGeometry x="110" y="125" width="60" height="30" as="geometry" />
        </mxCell>
        <mxCell id="tTQWtJ2l5TGnZTPMulk5-1" value="&lt;font style=&quot;font-size: 19px;&quot;&gt;1&lt;/font&gt;" style="text;html=1;align=center;verticalAlign=middle;whiteSpace=wrap;rounded=0;" vertex="1" parent="5k3JR_EgkZlYfD3Bz0ph-1">
          <mxGeometry x="110" y="165" width="60" height="30" as="geometry" />
        </mxCell>
        <mxCell id="tTQWtJ2l5TGnZTPMulk5-2" value="&lt;font style=&quot;font-size: 19px;&quot;&gt;2&lt;/font&gt;" style="text;html=1;align=center;verticalAlign=middle;whiteSpace=wrap;rounded=0;" vertex="1" parent="5k3JR_EgkZlYfD3Bz0ph-1">
          <mxGeometry x="110" y="205" width="60" height="30" as="geometry" />
        </mxCell>
        <mxCell id="tTQWtJ2l5TGnZTPMulk5-3" value="&lt;font style=&quot;font-size: 19px;&quot;&gt;3&lt;/font&gt;" style="text;html=1;align=center;verticalAlign=middle;whiteSpace=wrap;rounded=0;" vertex="1" parent="5k3JR_EgkZlYfD3Bz0ph-1">
          <mxGeometry x="110" y="245" width="60" height="30" as="geometry" />
        </mxCell>
        <mxCell id="tTQWtJ2l5TGnZTPMulk5-4" value="&lt;font style=&quot;font-size: 19px;&quot;&gt;4&lt;/font&gt;" style="text;html=1;align=center;verticalAlign=middle;whiteSpace=wrap;rounded=0;" vertex="1" parent="5k3JR_EgkZlYfD3Bz0ph-1">
          <mxGeometry x="110" y="285" width="60" height="30" as="geometry" />
        </mxCell>
        <mxCell id="tTQWtJ2l5TGnZTPMulk5-5" value="&lt;font style=&quot;font-size: 19px;&quot;&gt;5&lt;/font&gt;" style="text;html=1;align=center;verticalAlign=middle;whiteSpace=wrap;rounded=0;" vertex="1" parent="5k3JR_EgkZlYfD3Bz0ph-1">
          <mxGeometry x="110" y="325" width="60" height="30" as="geometry" />
        </mxCell>
        <mxCell id="tTQWtJ2l5TGnZTPMulk5-6" value="&lt;font style=&quot;font-size: 19px;&quot;&gt;6&lt;/font&gt;" style="text;html=1;align=center;verticalAlign=middle;whiteSpace=wrap;rounded=0;" vertex="1" parent="5k3JR_EgkZlYfD3Bz0ph-1">
          <mxGeometry x="110" y="365" width="60" height="30" as="geometry" />
        </mxCell>
      </root>
    </mxGraphModel>
  </diagram>
  <diagram name="E-4" id="V3flYjAUJdP9xnPc3KWA">
    <mxGraphModel dx="1434" dy="750" grid="1" gridSize="10" guides="1" tooltips="1" connect="1" arrows="1" fold="1" page="1" pageScale="1" pageWidth="850" pageHeight="1100" math="0" shadow="0">
      <root>
        <mxCell id="VyoqbiwQ9FFWVhk6RAVO-0" />
        <mxCell id="VyoqbiwQ9FFWVhk6RAVO-1" parent="VyoqbiwQ9FFWVhk6RAVO-0" />
        <mxCell id="VyoqbiwQ9FFWVhk6RAVO-2" value="" style="rounded=0;whiteSpace=wrap;html=1;" vertex="1" parent="VyoqbiwQ9FFWVhk6RAVO-1">
          <mxGeometry x="180" y="120" width="120" height="40" as="geometry" />
        </mxCell>
        <mxCell id="VyoqbiwQ9FFWVhk6RAVO-3" value="" style="rounded=0;whiteSpace=wrap;html=1;" vertex="1" parent="VyoqbiwQ9FFWVhk6RAVO-1">
          <mxGeometry x="180" y="160" width="120" height="40" as="geometry" />
        </mxCell>
        <mxCell id="VyoqbiwQ9FFWVhk6RAVO-4" value="" style="rounded=0;whiteSpace=wrap;html=1;" vertex="1" parent="VyoqbiwQ9FFWVhk6RAVO-1">
          <mxGeometry x="180" y="200" width="120" height="40" as="geometry" />
        </mxCell>
        <mxCell id="VyoqbiwQ9FFWVhk6RAVO-5" value="" style="rounded=0;whiteSpace=wrap;html=1;" vertex="1" parent="VyoqbiwQ9FFWVhk6RAVO-1">
          <mxGeometry x="180" y="240" width="120" height="40" as="geometry" />
        </mxCell>
        <mxCell id="VyoqbiwQ9FFWVhk6RAVO-6" value="" style="rounded=0;whiteSpace=wrap;html=1;" vertex="1" parent="VyoqbiwQ9FFWVhk6RAVO-1">
          <mxGeometry x="180" y="280" width="120" height="40" as="geometry" />
        </mxCell>
        <mxCell id="VyoqbiwQ9FFWVhk6RAVO-7" value="" style="rounded=0;whiteSpace=wrap;html=1;" vertex="1" parent="VyoqbiwQ9FFWVhk6RAVO-1">
          <mxGeometry x="180" y="320" width="120" height="40" as="geometry" />
        </mxCell>
        <mxCell id="VyoqbiwQ9FFWVhk6RAVO-8" value="" style="rounded=0;whiteSpace=wrap;html=1;" vertex="1" parent="VyoqbiwQ9FFWVhk6RAVO-1">
          <mxGeometry x="180" y="360" width="120" height="40" as="geometry" />
        </mxCell>
        <mxCell id="VyoqbiwQ9FFWVhk6RAVO-9" value="&lt;font style=&quot;font-size: 15px;&quot;&gt;Tamanho = 7&lt;/font&gt;" style="rounded=0;whiteSpace=wrap;html=1;" vertex="1" parent="VyoqbiwQ9FFWVhk6RAVO-1">
          <mxGeometry x="420" y="80" width="120" height="60" as="geometry" />
        </mxCell>
        <mxCell id="VyoqbiwQ9FFWVhk6RAVO-10" value="&lt;font style=&quot;font-size: 15px;&quot;&gt;H(k) = k % tamanho&lt;/font&gt;" style="rounded=0;whiteSpace=wrap;html=1;" vertex="1" parent="VyoqbiwQ9FFWVhk6RAVO-1">
          <mxGeometry x="570" y="80" width="150" height="60" as="geometry" />
        </mxCell>
        <mxCell id="VyoqbiwQ9FFWVhk6RAVO-18" value="&lt;div&gt;&lt;font style=&quot;font-size: 16px;&quot;&gt;Inserir 19&lt;/font&gt;&lt;/div&gt;" style="rounded=0;whiteSpace=wrap;html=1;" vertex="1" parent="VyoqbiwQ9FFWVhk6RAVO-1">
          <mxGeometry x="490" y="160" width="120" height="60" as="geometry" />
        </mxCell>
        <mxCell id="VyoqbiwQ9FFWVhk6RAVO-19" value="&lt;font style=&quot;font-size: 16px;&quot;&gt;12&lt;/font&gt;" style="text;html=1;align=center;verticalAlign=middle;whiteSpace=wrap;rounded=0;" vertex="1" parent="VyoqbiwQ9FFWVhk6RAVO-1">
          <mxGeometry x="210" y="320" width="60" height="40" as="geometry" />
        </mxCell>
        <mxCell id="VyoqbiwQ9FFWVhk6RAVO-20" value="&lt;font style=&quot;font-size: 16px;&quot;&gt;10&lt;/font&gt;" style="text;html=1;align=center;verticalAlign=middle;whiteSpace=wrap;rounded=0;" vertex="1" parent="VyoqbiwQ9FFWVhk6RAVO-1">
          <mxGeometry x="210" y="240" width="60" height="40" as="geometry" />
        </mxCell>
        <mxCell id="J6zCbbgISe0AUY9pea4j-0" value="" style="endArrow=classic;html=1;rounded=0;exitX=1;exitY=0.5;exitDx=0;exitDy=0;" edge="1" parent="VyoqbiwQ9FFWVhk6RAVO-1" target="J6zCbbgISe0AUY9pea4j-1">
          <mxGeometry width="50" height="50" relative="1" as="geometry">
            <mxPoint x="300" y="340" as="sourcePoint" />
            <mxPoint x="350" y="340" as="targetPoint" />
          </mxGeometry>
        </mxCell>
        <mxCell id="J6zCbbgISe0AUY9pea4j-1" value="&lt;font style=&quot;font-size: 16px;&quot;&gt;19&lt;/font&gt;" style="rounded=0;whiteSpace=wrap;html=1;" vertex="1" parent="VyoqbiwQ9FFWVhk6RAVO-1">
          <mxGeometry x="350" y="320" width="60" height="40" as="geometry" />
        </mxCell>
        <mxCell id="blvXPyJy6nzAfFVWw_qc-0" value="&lt;font style=&quot;font-size: 19px;&quot;&gt;0&lt;/font&gt;" style="text;html=1;align=center;verticalAlign=middle;whiteSpace=wrap;rounded=0;" vertex="1" parent="VyoqbiwQ9FFWVhk6RAVO-1">
          <mxGeometry x="110" y="125" width="60" height="30" as="geometry" />
        </mxCell>
        <mxCell id="blvXPyJy6nzAfFVWw_qc-1" value="&lt;font style=&quot;font-size: 19px;&quot;&gt;1&lt;/font&gt;" style="text;html=1;align=center;verticalAlign=middle;whiteSpace=wrap;rounded=0;" vertex="1" parent="VyoqbiwQ9FFWVhk6RAVO-1">
          <mxGeometry x="110" y="165" width="60" height="30" as="geometry" />
        </mxCell>
        <mxCell id="blvXPyJy6nzAfFVWw_qc-2" value="&lt;font style=&quot;font-size: 19px;&quot;&gt;2&lt;/font&gt;" style="text;html=1;align=center;verticalAlign=middle;whiteSpace=wrap;rounded=0;" vertex="1" parent="VyoqbiwQ9FFWVhk6RAVO-1">
          <mxGeometry x="110" y="205" width="60" height="30" as="geometry" />
        </mxCell>
        <mxCell id="blvXPyJy6nzAfFVWw_qc-3" value="&lt;font style=&quot;font-size: 19px;&quot;&gt;3&lt;/font&gt;" style="text;html=1;align=center;verticalAlign=middle;whiteSpace=wrap;rounded=0;" vertex="1" parent="VyoqbiwQ9FFWVhk6RAVO-1">
          <mxGeometry x="110" y="245" width="60" height="30" as="geometry" />
        </mxCell>
        <mxCell id="blvXPyJy6nzAfFVWw_qc-4" value="&lt;font style=&quot;font-size: 19px;&quot;&gt;4&lt;/font&gt;" style="text;html=1;align=center;verticalAlign=middle;whiteSpace=wrap;rounded=0;" vertex="1" parent="VyoqbiwQ9FFWVhk6RAVO-1">
          <mxGeometry x="110" y="285" width="60" height="30" as="geometry" />
        </mxCell>
        <mxCell id="blvXPyJy6nzAfFVWw_qc-5" value="&lt;font style=&quot;font-size: 19px;&quot;&gt;5&lt;/font&gt;" style="text;html=1;align=center;verticalAlign=middle;whiteSpace=wrap;rounded=0;" vertex="1" parent="VyoqbiwQ9FFWVhk6RAVO-1">
          <mxGeometry x="110" y="325" width="60" height="30" as="geometry" />
        </mxCell>
        <mxCell id="blvXPyJy6nzAfFVWw_qc-6" value="&lt;font style=&quot;font-size: 19px;&quot;&gt;6&lt;/font&gt;" style="text;html=1;align=center;verticalAlign=middle;whiteSpace=wrap;rounded=0;" vertex="1" parent="VyoqbiwQ9FFWVhk6RAVO-1">
          <mxGeometry x="110" y="365" width="60" height="30" as="geometry" />
        </mxCell>
      </root>
    </mxGraphModel>
  </diagram>
  <diagram name="E-5" id="t-DywS9SuLPeE_LZnMaw">
    <mxGraphModel dx="1434" dy="750" grid="1" gridSize="10" guides="1" tooltips="1" connect="1" arrows="1" fold="1" page="1" pageScale="1" pageWidth="850" pageHeight="1100" math="0" shadow="0">
      <root>
        <mxCell id="v8vtcJ13B2LO_-Rt-Ntp-0" />
        <mxCell id="v8vtcJ13B2LO_-Rt-Ntp-1" parent="v8vtcJ13B2LO_-Rt-Ntp-0" />
        <mxCell id="v8vtcJ13B2LO_-Rt-Ntp-2" value="" style="rounded=0;whiteSpace=wrap;html=1;" vertex="1" parent="v8vtcJ13B2LO_-Rt-Ntp-1">
          <mxGeometry x="180" y="240" width="120" height="40" as="geometry" />
        </mxCell>
        <mxCell id="v8vtcJ13B2LO_-Rt-Ntp-3" value="" style="rounded=0;whiteSpace=wrap;html=1;" vertex="1" parent="v8vtcJ13B2LO_-Rt-Ntp-1">
          <mxGeometry x="180" y="280" width="120" height="40" as="geometry" />
        </mxCell>
        <mxCell id="v8vtcJ13B2LO_-Rt-Ntp-4" value="" style="rounded=0;whiteSpace=wrap;html=1;" vertex="1" parent="v8vtcJ13B2LO_-Rt-Ntp-1">
          <mxGeometry x="180" y="320" width="120" height="40" as="geometry" />
        </mxCell>
        <mxCell id="v8vtcJ13B2LO_-Rt-Ntp-5" value="" style="rounded=0;whiteSpace=wrap;html=1;" vertex="1" parent="v8vtcJ13B2LO_-Rt-Ntp-1">
          <mxGeometry x="180" y="360" width="120" height="40" as="geometry" />
        </mxCell>
        <mxCell id="v8vtcJ13B2LO_-Rt-Ntp-6" value="" style="rounded=0;whiteSpace=wrap;html=1;" vertex="1" parent="v8vtcJ13B2LO_-Rt-Ntp-1">
          <mxGeometry x="180" y="400" width="120" height="40" as="geometry" />
        </mxCell>
        <mxCell id="v8vtcJ13B2LO_-Rt-Ntp-7" value="" style="rounded=0;whiteSpace=wrap;html=1;" vertex="1" parent="v8vtcJ13B2LO_-Rt-Ntp-1">
          <mxGeometry x="180" y="440" width="120" height="40" as="geometry" />
        </mxCell>
        <mxCell id="v8vtcJ13B2LO_-Rt-Ntp-8" value="" style="rounded=0;whiteSpace=wrap;html=1;" vertex="1" parent="v8vtcJ13B2LO_-Rt-Ntp-1">
          <mxGeometry x="180" y="480" width="120" height="40" as="geometry" />
        </mxCell>
        <mxCell id="v8vtcJ13B2LO_-Rt-Ntp-9" value="&lt;font style=&quot;font-size: 15px;&quot;&gt;Tamanho = 7&lt;/font&gt;" style="rounded=0;whiteSpace=wrap;html=1;" vertex="1" parent="v8vtcJ13B2LO_-Rt-Ntp-1">
          <mxGeometry x="420" y="80" width="120" height="60" as="geometry" />
        </mxCell>
        <mxCell id="v8vtcJ13B2LO_-Rt-Ntp-10" value="&lt;font style=&quot;font-size: 15px;&quot;&gt;H(k) = k % tamanho&lt;/font&gt;" style="rounded=0;whiteSpace=wrap;html=1;" vertex="1" parent="v8vtcJ13B2LO_-Rt-Ntp-1">
          <mxGeometry x="570" y="80" width="150" height="60" as="geometry" />
        </mxCell>
        <mxCell id="v8vtcJ13B2LO_-Rt-Ntp-18" value="&lt;div&gt;&lt;font style=&quot;font-size: 16px;&quot;&gt;Inserir 17&lt;/font&gt;&lt;/div&gt;" style="rounded=0;whiteSpace=wrap;html=1;" vertex="1" parent="v8vtcJ13B2LO_-Rt-Ntp-1">
          <mxGeometry x="490" y="160" width="120" height="60" as="geometry" />
        </mxCell>
        <mxCell id="v8vtcJ13B2LO_-Rt-Ntp-19" value="&lt;font style=&quot;font-size: 16px;&quot;&gt;12&lt;/font&gt;" style="text;html=1;align=center;verticalAlign=middle;whiteSpace=wrap;rounded=0;" vertex="1" parent="v8vtcJ13B2LO_-Rt-Ntp-1">
          <mxGeometry x="210" y="440" width="60" height="40" as="geometry" />
        </mxCell>
        <mxCell id="v8vtcJ13B2LO_-Rt-Ntp-20" value="&lt;font style=&quot;font-size: 16px;&quot;&gt;10&lt;/font&gt;" style="text;html=1;align=center;verticalAlign=middle;whiteSpace=wrap;rounded=0;" vertex="1" parent="v8vtcJ13B2LO_-Rt-Ntp-1">
          <mxGeometry x="210" y="360" width="60" height="40" as="geometry" />
        </mxCell>
        <mxCell id="v8vtcJ13B2LO_-Rt-Ntp-21" value="" style="endArrow=classic;html=1;rounded=0;exitX=1;exitY=0.5;exitDx=0;exitDy=0;" edge="1" parent="v8vtcJ13B2LO_-Rt-Ntp-1" target="v8vtcJ13B2LO_-Rt-Ntp-22">
          <mxGeometry width="50" height="50" relative="1" as="geometry">
            <mxPoint x="300" y="460" as="sourcePoint" />
            <mxPoint x="350" y="460" as="targetPoint" />
          </mxGeometry>
        </mxCell>
        <mxCell id="v8vtcJ13B2LO_-Rt-Ntp-22" value="&lt;font style=&quot;font-size: 16px;&quot;&gt;19&lt;/font&gt;" style="rounded=0;whiteSpace=wrap;html=1;" vertex="1" parent="v8vtcJ13B2LO_-Rt-Ntp-1">
          <mxGeometry x="350" y="440" width="60" height="40" as="geometry" />
        </mxCell>
        <mxCell id="9J__ruA2qM54NPBoSy1W-0" value="" style="endArrow=classic;html=1;rounded=0;" edge="1" parent="v8vtcJ13B2LO_-Rt-Ntp-1" target="9J__ruA2qM54NPBoSy1W-1">
          <mxGeometry width="50" height="50" relative="1" as="geometry">
            <mxPoint x="300" y="380" as="sourcePoint" />
            <mxPoint x="350" y="380" as="targetPoint" />
          </mxGeometry>
        </mxCell>
        <mxCell id="9J__ruA2qM54NPBoSy1W-1" value="&lt;font style=&quot;font-size: 16px;&quot;&gt;17&lt;/font&gt;" style="rounded=0;whiteSpace=wrap;html=1;" vertex="1" parent="v8vtcJ13B2LO_-Rt-Ntp-1">
          <mxGeometry x="350" y="360" width="60" height="40" as="geometry" />
        </mxCell>
        <mxCell id="zg5H1kbhOvJCgRL5Kocu-0" value="&lt;font style=&quot;font-size: 19px;&quot;&gt;0&lt;/font&gt;" style="text;html=1;align=center;verticalAlign=middle;whiteSpace=wrap;rounded=0;" vertex="1" parent="v8vtcJ13B2LO_-Rt-Ntp-1">
          <mxGeometry x="110" y="245" width="60" height="30" as="geometry" />
        </mxCell>
        <mxCell id="zg5H1kbhOvJCgRL5Kocu-1" value="&lt;font style=&quot;font-size: 19px;&quot;&gt;1&lt;/font&gt;" style="text;html=1;align=center;verticalAlign=middle;whiteSpace=wrap;rounded=0;" vertex="1" parent="v8vtcJ13B2LO_-Rt-Ntp-1">
          <mxGeometry x="110" y="285" width="60" height="30" as="geometry" />
        </mxCell>
        <mxCell id="zg5H1kbhOvJCgRL5Kocu-2" value="&lt;font style=&quot;font-size: 19px;&quot;&gt;2&lt;/font&gt;" style="text;html=1;align=center;verticalAlign=middle;whiteSpace=wrap;rounded=0;" vertex="1" parent="v8vtcJ13B2LO_-Rt-Ntp-1">
          <mxGeometry x="110" y="325" width="60" height="30" as="geometry" />
        </mxCell>
        <mxCell id="zg5H1kbhOvJCgRL5Kocu-3" value="&lt;font style=&quot;font-size: 19px;&quot;&gt;3&lt;/font&gt;" style="text;html=1;align=center;verticalAlign=middle;whiteSpace=wrap;rounded=0;" vertex="1" parent="v8vtcJ13B2LO_-Rt-Ntp-1">
          <mxGeometry x="110" y="365" width="60" height="30" as="geometry" />
        </mxCell>
        <mxCell id="zg5H1kbhOvJCgRL5Kocu-4" value="&lt;font style=&quot;font-size: 19px;&quot;&gt;4&lt;/font&gt;" style="text;html=1;align=center;verticalAlign=middle;whiteSpace=wrap;rounded=0;" vertex="1" parent="v8vtcJ13B2LO_-Rt-Ntp-1">
          <mxGeometry x="110" y="405" width="60" height="30" as="geometry" />
        </mxCell>
        <mxCell id="zg5H1kbhOvJCgRL5Kocu-5" value="&lt;font style=&quot;font-size: 19px;&quot;&gt;5&lt;/font&gt;" style="text;html=1;align=center;verticalAlign=middle;whiteSpace=wrap;rounded=0;" vertex="1" parent="v8vtcJ13B2LO_-Rt-Ntp-1">
          <mxGeometry x="110" y="445" width="60" height="30" as="geometry" />
        </mxCell>
        <mxCell id="zg5H1kbhOvJCgRL5Kocu-6" value="&lt;font style=&quot;font-size: 19px;&quot;&gt;6&lt;/font&gt;" style="text;html=1;align=center;verticalAlign=middle;whiteSpace=wrap;rounded=0;" vertex="1" parent="v8vtcJ13B2LO_-Rt-Ntp-1">
          <mxGeometry x="110" y="485" width="60" height="30" as="geometry" />
        </mxCell>
      </root>
    </mxGraphModel>
  </diagram>
  <diagram name="E-6" id="1HXbBfCwfbbbI4O4aMHJ">
    <mxGraphModel dx="1434" dy="750" grid="1" gridSize="10" guides="1" tooltips="1" connect="1" arrows="1" fold="1" page="1" pageScale="1" pageWidth="850" pageHeight="1100" math="0" shadow="0">
      <root>
        <mxCell id="N8Gks7aB8SjwaK66xnNE-0" />
        <mxCell id="N8Gks7aB8SjwaK66xnNE-1" parent="N8Gks7aB8SjwaK66xnNE-0" />
        <mxCell id="N8Gks7aB8SjwaK66xnNE-2" value="" style="rounded=0;whiteSpace=wrap;html=1;" vertex="1" parent="N8Gks7aB8SjwaK66xnNE-1">
          <mxGeometry x="180" y="240" width="120" height="40" as="geometry" />
        </mxCell>
        <mxCell id="N8Gks7aB8SjwaK66xnNE-3" value="" style="rounded=0;whiteSpace=wrap;html=1;" vertex="1" parent="N8Gks7aB8SjwaK66xnNE-1">
          <mxGeometry x="180" y="280" width="120" height="40" as="geometry" />
        </mxCell>
        <mxCell id="N8Gks7aB8SjwaK66xnNE-4" value="" style="rounded=0;whiteSpace=wrap;html=1;" vertex="1" parent="N8Gks7aB8SjwaK66xnNE-1">
          <mxGeometry x="180" y="320" width="120" height="40" as="geometry" />
        </mxCell>
        <mxCell id="N8Gks7aB8SjwaK66xnNE-5" value="" style="rounded=0;whiteSpace=wrap;html=1;" vertex="1" parent="N8Gks7aB8SjwaK66xnNE-1">
          <mxGeometry x="180" y="360" width="120" height="40" as="geometry" />
        </mxCell>
        <mxCell id="N8Gks7aB8SjwaK66xnNE-6" value="" style="rounded=0;whiteSpace=wrap;html=1;" vertex="1" parent="N8Gks7aB8SjwaK66xnNE-1">
          <mxGeometry x="180" y="400" width="120" height="40" as="geometry" />
        </mxCell>
        <mxCell id="N8Gks7aB8SjwaK66xnNE-7" value="" style="rounded=0;whiteSpace=wrap;html=1;" vertex="1" parent="N8Gks7aB8SjwaK66xnNE-1">
          <mxGeometry x="180" y="440" width="120" height="40" as="geometry" />
        </mxCell>
        <mxCell id="N8Gks7aB8SjwaK66xnNE-8" value="" style="rounded=0;whiteSpace=wrap;html=1;" vertex="1" parent="N8Gks7aB8SjwaK66xnNE-1">
          <mxGeometry x="180" y="480" width="120" height="40" as="geometry" />
        </mxCell>
        <mxCell id="N8Gks7aB8SjwaK66xnNE-9" value="&lt;font style=&quot;font-size: 15px;&quot;&gt;Tamanho = 7&lt;/font&gt;" style="rounded=0;whiteSpace=wrap;html=1;" vertex="1" parent="N8Gks7aB8SjwaK66xnNE-1">
          <mxGeometry x="420" y="80" width="120" height="60" as="geometry" />
        </mxCell>
        <mxCell id="N8Gks7aB8SjwaK66xnNE-10" value="&lt;font style=&quot;font-size: 15px;&quot;&gt;H(k) = k % tamanho&lt;/font&gt;" style="rounded=0;whiteSpace=wrap;html=1;" vertex="1" parent="N8Gks7aB8SjwaK66xnNE-1">
          <mxGeometry x="570" y="80" width="150" height="60" as="geometry" />
        </mxCell>
        <mxCell id="N8Gks7aB8SjwaK66xnNE-18" value="&lt;div&gt;&lt;font style=&quot;font-size: 16px;&quot;&gt;Inserir 56&lt;/font&gt;&lt;/div&gt;" style="rounded=0;whiteSpace=wrap;html=1;" vertex="1" parent="N8Gks7aB8SjwaK66xnNE-1">
          <mxGeometry x="490" y="160" width="120" height="60" as="geometry" />
        </mxCell>
        <mxCell id="N8Gks7aB8SjwaK66xnNE-19" value="&lt;font style=&quot;font-size: 16px;&quot;&gt;12&lt;/font&gt;" style="text;html=1;align=center;verticalAlign=middle;whiteSpace=wrap;rounded=0;" vertex="1" parent="N8Gks7aB8SjwaK66xnNE-1">
          <mxGeometry x="210" y="440" width="60" height="40" as="geometry" />
        </mxCell>
        <mxCell id="N8Gks7aB8SjwaK66xnNE-20" value="&lt;font style=&quot;font-size: 16px;&quot;&gt;10&lt;/font&gt;" style="text;html=1;align=center;verticalAlign=middle;whiteSpace=wrap;rounded=0;" vertex="1" parent="N8Gks7aB8SjwaK66xnNE-1">
          <mxGeometry x="210" y="360" width="60" height="40" as="geometry" />
        </mxCell>
        <mxCell id="N8Gks7aB8SjwaK66xnNE-21" value="" style="endArrow=classic;html=1;rounded=0;exitX=1;exitY=0.5;exitDx=0;exitDy=0;" edge="1" parent="N8Gks7aB8SjwaK66xnNE-1" target="N8Gks7aB8SjwaK66xnNE-22">
          <mxGeometry width="50" height="50" relative="1" as="geometry">
            <mxPoint x="300" y="460" as="sourcePoint" />
            <mxPoint x="350" y="460" as="targetPoint" />
          </mxGeometry>
        </mxCell>
        <mxCell id="N8Gks7aB8SjwaK66xnNE-22" value="&lt;font style=&quot;font-size: 16px;&quot;&gt;19&lt;/font&gt;" style="rounded=0;whiteSpace=wrap;html=1;" vertex="1" parent="N8Gks7aB8SjwaK66xnNE-1">
          <mxGeometry x="350" y="440" width="60" height="40" as="geometry" />
        </mxCell>
        <mxCell id="N8Gks7aB8SjwaK66xnNE-23" value="" style="endArrow=classic;html=1;rounded=0;" edge="1" parent="N8Gks7aB8SjwaK66xnNE-1" target="N8Gks7aB8SjwaK66xnNE-24">
          <mxGeometry width="50" height="50" relative="1" as="geometry">
            <mxPoint x="300" y="380" as="sourcePoint" />
            <mxPoint x="350" y="380" as="targetPoint" />
          </mxGeometry>
        </mxCell>
        <mxCell id="N8Gks7aB8SjwaK66xnNE-24" value="&lt;font style=&quot;font-size: 16px;&quot;&gt;17&lt;/font&gt;" style="rounded=0;whiteSpace=wrap;html=1;" vertex="1" parent="N8Gks7aB8SjwaK66xnNE-1">
          <mxGeometry x="350" y="360" width="60" height="40" as="geometry" />
        </mxCell>
        <mxCell id="yBu3eaj8eTxgijN-o9Rs-0" value="&lt;font style=&quot;font-size: 17px;&quot;&gt;56&lt;/font&gt;" style="text;html=1;align=center;verticalAlign=middle;whiteSpace=wrap;rounded=0;" vertex="1" parent="N8Gks7aB8SjwaK66xnNE-1">
          <mxGeometry x="210" y="240" width="60" height="40" as="geometry" />
        </mxCell>
        <mxCell id="neycd9Liy_-fvpSrbN-5-0" value="&lt;font style=&quot;font-size: 19px;&quot;&gt;0&lt;/font&gt;" style="text;html=1;align=center;verticalAlign=middle;whiteSpace=wrap;rounded=0;" vertex="1" parent="N8Gks7aB8SjwaK66xnNE-1">
          <mxGeometry x="110" y="245" width="60" height="30" as="geometry" />
        </mxCell>
        <mxCell id="neycd9Liy_-fvpSrbN-5-1" value="&lt;font style=&quot;font-size: 19px;&quot;&gt;1&lt;/font&gt;" style="text;html=1;align=center;verticalAlign=middle;whiteSpace=wrap;rounded=0;" vertex="1" parent="N8Gks7aB8SjwaK66xnNE-1">
          <mxGeometry x="110" y="285" width="60" height="30" as="geometry" />
        </mxCell>
        <mxCell id="neycd9Liy_-fvpSrbN-5-2" value="&lt;font style=&quot;font-size: 19px;&quot;&gt;2&lt;/font&gt;" style="text;html=1;align=center;verticalAlign=middle;whiteSpace=wrap;rounded=0;" vertex="1" parent="N8Gks7aB8SjwaK66xnNE-1">
          <mxGeometry x="110" y="325" width="60" height="30" as="geometry" />
        </mxCell>
        <mxCell id="neycd9Liy_-fvpSrbN-5-3" value="&lt;font style=&quot;font-size: 19px;&quot;&gt;3&lt;/font&gt;" style="text;html=1;align=center;verticalAlign=middle;whiteSpace=wrap;rounded=0;" vertex="1" parent="N8Gks7aB8SjwaK66xnNE-1">
          <mxGeometry x="110" y="365" width="60" height="30" as="geometry" />
        </mxCell>
        <mxCell id="neycd9Liy_-fvpSrbN-5-4" value="&lt;font style=&quot;font-size: 19px;&quot;&gt;4&lt;/font&gt;" style="text;html=1;align=center;verticalAlign=middle;whiteSpace=wrap;rounded=0;" vertex="1" parent="N8Gks7aB8SjwaK66xnNE-1">
          <mxGeometry x="110" y="405" width="60" height="30" as="geometry" />
        </mxCell>
        <mxCell id="neycd9Liy_-fvpSrbN-5-5" value="&lt;font style=&quot;font-size: 19px;&quot;&gt;5&lt;/font&gt;" style="text;html=1;align=center;verticalAlign=middle;whiteSpace=wrap;rounded=0;" vertex="1" parent="N8Gks7aB8SjwaK66xnNE-1">
          <mxGeometry x="110" y="445" width="60" height="30" as="geometry" />
        </mxCell>
        <mxCell id="neycd9Liy_-fvpSrbN-5-6" value="&lt;font style=&quot;font-size: 19px;&quot;&gt;6&lt;/font&gt;" style="text;html=1;align=center;verticalAlign=middle;whiteSpace=wrap;rounded=0;" vertex="1" parent="N8Gks7aB8SjwaK66xnNE-1">
          <mxGeometry x="110" y="485" width="60" height="30" as="geometry" />
        </mxCell>
      </root>
    </mxGraphModel>
  </diagram>
  <diagram name="E-7" id="LdfWHIQlUgi9vVPUlcQo">
    <mxGraphModel dx="1434" dy="750" grid="1" gridSize="10" guides="1" tooltips="1" connect="1" arrows="1" fold="1" page="1" pageScale="1" pageWidth="850" pageHeight="1100" math="0" shadow="0">
      <root>
        <mxCell id="-CFltOOJKCpFc5r1c-ad-0" />
        <mxCell id="-CFltOOJKCpFc5r1c-ad-1" parent="-CFltOOJKCpFc5r1c-ad-0" />
        <mxCell id="-CFltOOJKCpFc5r1c-ad-2" value="" style="rounded=0;whiteSpace=wrap;html=1;" vertex="1" parent="-CFltOOJKCpFc5r1c-ad-1">
          <mxGeometry x="180" y="240" width="120" height="40" as="geometry" />
        </mxCell>
        <mxCell id="-CFltOOJKCpFc5r1c-ad-3" value="" style="rounded=0;whiteSpace=wrap;html=1;" vertex="1" parent="-CFltOOJKCpFc5r1c-ad-1">
          <mxGeometry x="180" y="280" width="120" height="40" as="geometry" />
        </mxCell>
        <mxCell id="-CFltOOJKCpFc5r1c-ad-4" value="" style="rounded=0;whiteSpace=wrap;html=1;" vertex="1" parent="-CFltOOJKCpFc5r1c-ad-1">
          <mxGeometry x="180" y="320" width="120" height="40" as="geometry" />
        </mxCell>
        <mxCell id="-CFltOOJKCpFc5r1c-ad-5" value="" style="rounded=0;whiteSpace=wrap;html=1;" vertex="1" parent="-CFltOOJKCpFc5r1c-ad-1">
          <mxGeometry x="180" y="360" width="120" height="40" as="geometry" />
        </mxCell>
        <mxCell id="-CFltOOJKCpFc5r1c-ad-6" value="" style="rounded=0;whiteSpace=wrap;html=1;" vertex="1" parent="-CFltOOJKCpFc5r1c-ad-1">
          <mxGeometry x="180" y="400" width="120" height="40" as="geometry" />
        </mxCell>
        <mxCell id="-CFltOOJKCpFc5r1c-ad-7" value="" style="rounded=0;whiteSpace=wrap;html=1;" vertex="1" parent="-CFltOOJKCpFc5r1c-ad-1">
          <mxGeometry x="180" y="440" width="120" height="40" as="geometry" />
        </mxCell>
        <mxCell id="-CFltOOJKCpFc5r1c-ad-8" value="" style="rounded=0;whiteSpace=wrap;html=1;" vertex="1" parent="-CFltOOJKCpFc5r1c-ad-1">
          <mxGeometry x="180" y="480" width="120" height="40" as="geometry" />
        </mxCell>
        <mxCell id="-CFltOOJKCpFc5r1c-ad-9" value="&lt;font style=&quot;font-size: 15px;&quot;&gt;Tamanho = 7&lt;/font&gt;" style="rounded=0;whiteSpace=wrap;html=1;" vertex="1" parent="-CFltOOJKCpFc5r1c-ad-1">
          <mxGeometry x="420" y="80" width="120" height="60" as="geometry" />
        </mxCell>
        <mxCell id="-CFltOOJKCpFc5r1c-ad-10" value="&lt;font style=&quot;font-size: 15px;&quot;&gt;H(k) = k % tamanho&lt;/font&gt;" style="rounded=0;whiteSpace=wrap;html=1;" vertex="1" parent="-CFltOOJKCpFc5r1c-ad-1">
          <mxGeometry x="570" y="80" width="150" height="60" as="geometry" />
        </mxCell>
        <mxCell id="-CFltOOJKCpFc5r1c-ad-18" value="&lt;div&gt;&lt;font style=&quot;font-size: 16px;&quot;&gt;Inserir 14&lt;/font&gt;&lt;/div&gt;" style="rounded=0;whiteSpace=wrap;html=1;" vertex="1" parent="-CFltOOJKCpFc5r1c-ad-1">
          <mxGeometry x="490" y="160" width="120" height="60" as="geometry" />
        </mxCell>
        <mxCell id="-CFltOOJKCpFc5r1c-ad-19" value="&lt;font style=&quot;font-size: 16px;&quot;&gt;12&lt;/font&gt;" style="text;html=1;align=center;verticalAlign=middle;whiteSpace=wrap;rounded=0;" vertex="1" parent="-CFltOOJKCpFc5r1c-ad-1">
          <mxGeometry x="210" y="440" width="60" height="40" as="geometry" />
        </mxCell>
        <mxCell id="-CFltOOJKCpFc5r1c-ad-20" value="&lt;font style=&quot;font-size: 16px;&quot;&gt;10&lt;/font&gt;" style="text;html=1;align=center;verticalAlign=middle;whiteSpace=wrap;rounded=0;" vertex="1" parent="-CFltOOJKCpFc5r1c-ad-1">
          <mxGeometry x="210" y="360" width="60" height="40" as="geometry" />
        </mxCell>
        <mxCell id="-CFltOOJKCpFc5r1c-ad-21" value="" style="endArrow=classic;html=1;rounded=0;exitX=1;exitY=0.5;exitDx=0;exitDy=0;" edge="1" parent="-CFltOOJKCpFc5r1c-ad-1" target="-CFltOOJKCpFc5r1c-ad-22">
          <mxGeometry width="50" height="50" relative="1" as="geometry">
            <mxPoint x="300" y="460" as="sourcePoint" />
            <mxPoint x="350" y="460" as="targetPoint" />
          </mxGeometry>
        </mxCell>
        <mxCell id="-CFltOOJKCpFc5r1c-ad-22" value="&lt;font style=&quot;font-size: 16px;&quot;&gt;19&lt;/font&gt;" style="rounded=0;whiteSpace=wrap;html=1;" vertex="1" parent="-CFltOOJKCpFc5r1c-ad-1">
          <mxGeometry x="350" y="440" width="60" height="40" as="geometry" />
        </mxCell>
        <mxCell id="-CFltOOJKCpFc5r1c-ad-23" value="" style="endArrow=classic;html=1;rounded=0;" edge="1" parent="-CFltOOJKCpFc5r1c-ad-1" target="-CFltOOJKCpFc5r1c-ad-24">
          <mxGeometry width="50" height="50" relative="1" as="geometry">
            <mxPoint x="300" y="380" as="sourcePoint" />
            <mxPoint x="350" y="380" as="targetPoint" />
          </mxGeometry>
        </mxCell>
        <mxCell id="-CFltOOJKCpFc5r1c-ad-24" value="&lt;font style=&quot;font-size: 16px;&quot;&gt;17&lt;/font&gt;" style="rounded=0;whiteSpace=wrap;html=1;" vertex="1" parent="-CFltOOJKCpFc5r1c-ad-1">
          <mxGeometry x="350" y="360" width="60" height="40" as="geometry" />
        </mxCell>
        <mxCell id="-CFltOOJKCpFc5r1c-ad-25" value="&lt;font style=&quot;font-size: 17px;&quot;&gt;56&lt;/font&gt;" style="text;html=1;align=center;verticalAlign=middle;whiteSpace=wrap;rounded=0;" vertex="1" parent="-CFltOOJKCpFc5r1c-ad-1">
          <mxGeometry x="210" y="240" width="60" height="40" as="geometry" />
        </mxCell>
        <mxCell id="YIjFj-dlVVE8-LeyXyKz-0" value="" style="endArrow=classic;html=1;rounded=0;" edge="1" parent="-CFltOOJKCpFc5r1c-ad-1" target="YIjFj-dlVVE8-LeyXyKz-1">
          <mxGeometry width="50" height="50" relative="1" as="geometry">
            <mxPoint x="300" y="260" as="sourcePoint" />
            <mxPoint x="350" y="260" as="targetPoint" />
          </mxGeometry>
        </mxCell>
        <mxCell id="YIjFj-dlVVE8-LeyXyKz-1" value="&lt;font style=&quot;font-size: 16px;&quot;&gt;14&lt;/font&gt;" style="rounded=0;whiteSpace=wrap;html=1;" vertex="1" parent="-CFltOOJKCpFc5r1c-ad-1">
          <mxGeometry x="350" y="240" width="60" height="40" as="geometry" />
        </mxCell>
        <mxCell id="GTs8gb90CcUod9IJflID-0" value="&lt;font style=&quot;font-size: 19px;&quot;&gt;0&lt;/font&gt;" style="text;html=1;align=center;verticalAlign=middle;whiteSpace=wrap;rounded=0;" vertex="1" parent="-CFltOOJKCpFc5r1c-ad-1">
          <mxGeometry x="110" y="245" width="60" height="30" as="geometry" />
        </mxCell>
        <mxCell id="GTs8gb90CcUod9IJflID-1" value="&lt;font style=&quot;font-size: 19px;&quot;&gt;1&lt;/font&gt;" style="text;html=1;align=center;verticalAlign=middle;whiteSpace=wrap;rounded=0;" vertex="1" parent="-CFltOOJKCpFc5r1c-ad-1">
          <mxGeometry x="110" y="285" width="60" height="30" as="geometry" />
        </mxCell>
        <mxCell id="GTs8gb90CcUod9IJflID-2" value="&lt;font style=&quot;font-size: 19px;&quot;&gt;2&lt;/font&gt;" style="text;html=1;align=center;verticalAlign=middle;whiteSpace=wrap;rounded=0;" vertex="1" parent="-CFltOOJKCpFc5r1c-ad-1">
          <mxGeometry x="110" y="325" width="60" height="30" as="geometry" />
        </mxCell>
        <mxCell id="GTs8gb90CcUod9IJflID-3" value="&lt;font style=&quot;font-size: 19px;&quot;&gt;3&lt;/font&gt;" style="text;html=1;align=center;verticalAlign=middle;whiteSpace=wrap;rounded=0;" vertex="1" parent="-CFltOOJKCpFc5r1c-ad-1">
          <mxGeometry x="110" y="365" width="60" height="30" as="geometry" />
        </mxCell>
        <mxCell id="GTs8gb90CcUod9IJflID-4" value="&lt;font style=&quot;font-size: 19px;&quot;&gt;4&lt;/font&gt;" style="text;html=1;align=center;verticalAlign=middle;whiteSpace=wrap;rounded=0;" vertex="1" parent="-CFltOOJKCpFc5r1c-ad-1">
          <mxGeometry x="110" y="405" width="60" height="30" as="geometry" />
        </mxCell>
        <mxCell id="GTs8gb90CcUod9IJflID-5" value="&lt;font style=&quot;font-size: 19px;&quot;&gt;5&lt;/font&gt;" style="text;html=1;align=center;verticalAlign=middle;whiteSpace=wrap;rounded=0;" vertex="1" parent="-CFltOOJKCpFc5r1c-ad-1">
          <mxGeometry x="110" y="445" width="60" height="30" as="geometry" />
        </mxCell>
        <mxCell id="GTs8gb90CcUod9IJflID-6" value="&lt;font style=&quot;font-size: 19px;&quot;&gt;6&lt;/font&gt;" style="text;html=1;align=center;verticalAlign=middle;whiteSpace=wrap;rounded=0;" vertex="1" parent="-CFltOOJKCpFc5r1c-ad-1">
          <mxGeometry x="110" y="485" width="60" height="30" as="geometry" />
        </mxCell>
      </root>
    </mxGraphModel>
  </diagram>
  <diagram name="E-8" id="y99Kab72x2dpKZ6-s8pG">
    <mxGraphModel dx="1434" dy="750" grid="1" gridSize="10" guides="1" tooltips="1" connect="1" arrows="1" fold="1" page="1" pageScale="1" pageWidth="850" pageHeight="1100" math="0" shadow="0">
      <root>
        <mxCell id="6fcX57McS-tcB2E47MxA-0" />
        <mxCell id="6fcX57McS-tcB2E47MxA-1" parent="6fcX57McS-tcB2E47MxA-0" />
        <mxCell id="6fcX57McS-tcB2E47MxA-2" value="" style="rounded=0;whiteSpace=wrap;html=1;" vertex="1" parent="6fcX57McS-tcB2E47MxA-1">
          <mxGeometry x="180" y="240" width="120" height="40" as="geometry" />
        </mxCell>
        <mxCell id="6fcX57McS-tcB2E47MxA-3" value="" style="rounded=0;whiteSpace=wrap;html=1;" vertex="1" parent="6fcX57McS-tcB2E47MxA-1">
          <mxGeometry x="180" y="280" width="120" height="40" as="geometry" />
        </mxCell>
        <mxCell id="6fcX57McS-tcB2E47MxA-4" value="" style="rounded=0;whiteSpace=wrap;html=1;" vertex="1" parent="6fcX57McS-tcB2E47MxA-1">
          <mxGeometry x="180" y="320" width="120" height="40" as="geometry" />
        </mxCell>
        <mxCell id="6fcX57McS-tcB2E47MxA-5" value="" style="rounded=0;whiteSpace=wrap;html=1;" vertex="1" parent="6fcX57McS-tcB2E47MxA-1">
          <mxGeometry x="180" y="360" width="120" height="40" as="geometry" />
        </mxCell>
        <mxCell id="6fcX57McS-tcB2E47MxA-6" value="" style="rounded=0;whiteSpace=wrap;html=1;" vertex="1" parent="6fcX57McS-tcB2E47MxA-1">
          <mxGeometry x="180" y="400" width="120" height="40" as="geometry" />
        </mxCell>
        <mxCell id="6fcX57McS-tcB2E47MxA-7" value="" style="rounded=0;whiteSpace=wrap;html=1;" vertex="1" parent="6fcX57McS-tcB2E47MxA-1">
          <mxGeometry x="180" y="440" width="120" height="40" as="geometry" />
        </mxCell>
        <mxCell id="6fcX57McS-tcB2E47MxA-8" value="" style="rounded=0;whiteSpace=wrap;html=1;" vertex="1" parent="6fcX57McS-tcB2E47MxA-1">
          <mxGeometry x="180" y="480" width="120" height="40" as="geometry" />
        </mxCell>
        <mxCell id="6fcX57McS-tcB2E47MxA-9" value="&lt;font style=&quot;font-size: 15px;&quot;&gt;Tamanho = 7&lt;/font&gt;" style="rounded=0;whiteSpace=wrap;html=1;" vertex="1" parent="6fcX57McS-tcB2E47MxA-1">
          <mxGeometry x="420" y="80" width="120" height="60" as="geometry" />
        </mxCell>
        <mxCell id="6fcX57McS-tcB2E47MxA-10" value="&lt;font style=&quot;font-size: 15px;&quot;&gt;H(k) = k % tamanho&lt;/font&gt;" style="rounded=0;whiteSpace=wrap;html=1;" vertex="1" parent="6fcX57McS-tcB2E47MxA-1">
          <mxGeometry x="570" y="80" width="150" height="60" as="geometry" />
        </mxCell>
        <mxCell id="6fcX57McS-tcB2E47MxA-18" value="&lt;div&gt;&lt;font style=&quot;font-size: 16px;&quot;&gt;Inserir 49&lt;/font&gt;&lt;/div&gt;" style="rounded=0;whiteSpace=wrap;html=1;" vertex="1" parent="6fcX57McS-tcB2E47MxA-1">
          <mxGeometry x="490" y="160" width="120" height="60" as="geometry" />
        </mxCell>
        <mxCell id="6fcX57McS-tcB2E47MxA-19" value="&lt;font style=&quot;font-size: 16px;&quot;&gt;12&lt;/font&gt;" style="text;html=1;align=center;verticalAlign=middle;whiteSpace=wrap;rounded=0;" vertex="1" parent="6fcX57McS-tcB2E47MxA-1">
          <mxGeometry x="210" y="440" width="60" height="40" as="geometry" />
        </mxCell>
        <mxCell id="6fcX57McS-tcB2E47MxA-20" value="&lt;font style=&quot;font-size: 16px;&quot;&gt;10&lt;/font&gt;" style="text;html=1;align=center;verticalAlign=middle;whiteSpace=wrap;rounded=0;" vertex="1" parent="6fcX57McS-tcB2E47MxA-1">
          <mxGeometry x="210" y="360" width="60" height="40" as="geometry" />
        </mxCell>
        <mxCell id="6fcX57McS-tcB2E47MxA-21" value="" style="endArrow=classic;html=1;rounded=0;exitX=1;exitY=0.5;exitDx=0;exitDy=0;" edge="1" parent="6fcX57McS-tcB2E47MxA-1" target="6fcX57McS-tcB2E47MxA-22">
          <mxGeometry width="50" height="50" relative="1" as="geometry">
            <mxPoint x="300" y="460" as="sourcePoint" />
            <mxPoint x="350" y="460" as="targetPoint" />
          </mxGeometry>
        </mxCell>
        <mxCell id="6fcX57McS-tcB2E47MxA-22" value="&lt;font style=&quot;font-size: 16px;&quot;&gt;19&lt;/font&gt;" style="rounded=0;whiteSpace=wrap;html=1;" vertex="1" parent="6fcX57McS-tcB2E47MxA-1">
          <mxGeometry x="350" y="440" width="60" height="40" as="geometry" />
        </mxCell>
        <mxCell id="6fcX57McS-tcB2E47MxA-23" value="" style="endArrow=classic;html=1;rounded=0;" edge="1" parent="6fcX57McS-tcB2E47MxA-1" target="6fcX57McS-tcB2E47MxA-24">
          <mxGeometry width="50" height="50" relative="1" as="geometry">
            <mxPoint x="300" y="380" as="sourcePoint" />
            <mxPoint x="350" y="380" as="targetPoint" />
          </mxGeometry>
        </mxCell>
        <mxCell id="6fcX57McS-tcB2E47MxA-24" value="&lt;font style=&quot;font-size: 16px;&quot;&gt;17&lt;/font&gt;" style="rounded=0;whiteSpace=wrap;html=1;" vertex="1" parent="6fcX57McS-tcB2E47MxA-1">
          <mxGeometry x="350" y="360" width="60" height="40" as="geometry" />
        </mxCell>
        <mxCell id="6fcX57McS-tcB2E47MxA-25" value="&lt;font style=&quot;font-size: 17px;&quot;&gt;56&lt;/font&gt;" style="text;html=1;align=center;verticalAlign=middle;whiteSpace=wrap;rounded=0;" vertex="1" parent="6fcX57McS-tcB2E47MxA-1">
          <mxGeometry x="210" y="240" width="60" height="40" as="geometry" />
        </mxCell>
        <mxCell id="6fcX57McS-tcB2E47MxA-26" value="" style="endArrow=classic;html=1;rounded=0;" edge="1" parent="6fcX57McS-tcB2E47MxA-1" target="6fcX57McS-tcB2E47MxA-27">
          <mxGeometry width="50" height="50" relative="1" as="geometry">
            <mxPoint x="300" y="260" as="sourcePoint" />
            <mxPoint x="350" y="260" as="targetPoint" />
          </mxGeometry>
        </mxCell>
        <mxCell id="6fcX57McS-tcB2E47MxA-27" value="&lt;font style=&quot;font-size: 16px;&quot;&gt;14&lt;/font&gt;" style="rounded=0;whiteSpace=wrap;html=1;" vertex="1" parent="6fcX57McS-tcB2E47MxA-1">
          <mxGeometry x="350" y="240" width="60" height="40" as="geometry" />
        </mxCell>
        <mxCell id="YA_2qqu41bsA_kWodD_z-0" value="" style="endArrow=classic;html=1;rounded=0;" edge="1" parent="6fcX57McS-tcB2E47MxA-1" target="YA_2qqu41bsA_kWodD_z-1">
          <mxGeometry width="50" height="50" relative="1" as="geometry">
            <mxPoint x="410" y="260" as="sourcePoint" />
            <mxPoint x="460" y="260" as="targetPoint" />
          </mxGeometry>
        </mxCell>
        <mxCell id="YA_2qqu41bsA_kWodD_z-1" value="&lt;font style=&quot;font-size: 16px;&quot;&gt;49&lt;/font&gt;" style="rounded=0;whiteSpace=wrap;html=1;" vertex="1" parent="6fcX57McS-tcB2E47MxA-1">
          <mxGeometry x="460" y="240" width="60" height="40" as="geometry" />
        </mxCell>
        <mxCell id="PY8_MKuq1rspVzmHaTe4-0" value="&lt;font style=&quot;font-size: 19px;&quot;&gt;0&lt;/font&gt;" style="text;html=1;align=center;verticalAlign=middle;whiteSpace=wrap;rounded=0;" vertex="1" parent="6fcX57McS-tcB2E47MxA-1">
          <mxGeometry x="110" y="245" width="60" height="30" as="geometry" />
        </mxCell>
        <mxCell id="PY8_MKuq1rspVzmHaTe4-1" value="&lt;font style=&quot;font-size: 19px;&quot;&gt;1&lt;/font&gt;" style="text;html=1;align=center;verticalAlign=middle;whiteSpace=wrap;rounded=0;" vertex="1" parent="6fcX57McS-tcB2E47MxA-1">
          <mxGeometry x="110" y="285" width="60" height="30" as="geometry" />
        </mxCell>
        <mxCell id="PY8_MKuq1rspVzmHaTe4-2" value="&lt;font style=&quot;font-size: 19px;&quot;&gt;2&lt;/font&gt;" style="text;html=1;align=center;verticalAlign=middle;whiteSpace=wrap;rounded=0;" vertex="1" parent="6fcX57McS-tcB2E47MxA-1">
          <mxGeometry x="110" y="325" width="60" height="30" as="geometry" />
        </mxCell>
        <mxCell id="PY8_MKuq1rspVzmHaTe4-3" value="&lt;font style=&quot;font-size: 19px;&quot;&gt;3&lt;/font&gt;" style="text;html=1;align=center;verticalAlign=middle;whiteSpace=wrap;rounded=0;" vertex="1" parent="6fcX57McS-tcB2E47MxA-1">
          <mxGeometry x="110" y="365" width="60" height="30" as="geometry" />
        </mxCell>
        <mxCell id="PY8_MKuq1rspVzmHaTe4-4" value="&lt;font style=&quot;font-size: 19px;&quot;&gt;4&lt;/font&gt;" style="text;html=1;align=center;verticalAlign=middle;whiteSpace=wrap;rounded=0;" vertex="1" parent="6fcX57McS-tcB2E47MxA-1">
          <mxGeometry x="110" y="405" width="60" height="30" as="geometry" />
        </mxCell>
        <mxCell id="PY8_MKuq1rspVzmHaTe4-5" value="&lt;font style=&quot;font-size: 19px;&quot;&gt;5&lt;/font&gt;" style="text;html=1;align=center;verticalAlign=middle;whiteSpace=wrap;rounded=0;" vertex="1" parent="6fcX57McS-tcB2E47MxA-1">
          <mxGeometry x="110" y="445" width="60" height="30" as="geometry" />
        </mxCell>
        <mxCell id="PY8_MKuq1rspVzmHaTe4-6" value="&lt;font style=&quot;font-size: 19px;&quot;&gt;6&lt;/font&gt;" style="text;html=1;align=center;verticalAlign=middle;whiteSpace=wrap;rounded=0;" vertex="1" parent="6fcX57McS-tcB2E47MxA-1">
          <mxGeometry x="110" y="485" width="60" height="30" as="geometry" />
        </mxCell>
      </root>
    </mxGraphModel>
  </diagram>
  <diagram name="E-9" id="CcsKUlisnz9gReN3yrCe">
    <mxGraphModel dx="1434" dy="750" grid="1" gridSize="10" guides="1" tooltips="1" connect="1" arrows="1" fold="1" page="1" pageScale="1" pageWidth="850" pageHeight="1100" math="0" shadow="0">
      <root>
        <mxCell id="PA0IUWp0rwF0E8EEycFF-0" />
        <mxCell id="PA0IUWp0rwF0E8EEycFF-1" parent="PA0IUWp0rwF0E8EEycFF-0" />
        <mxCell id="PA0IUWp0rwF0E8EEycFF-2" value="" style="rounded=0;whiteSpace=wrap;html=1;" vertex="1" parent="PA0IUWp0rwF0E8EEycFF-1">
          <mxGeometry x="180" y="240" width="120" height="40" as="geometry" />
        </mxCell>
        <mxCell id="PA0IUWp0rwF0E8EEycFF-3" value="" style="rounded=0;whiteSpace=wrap;html=1;" vertex="1" parent="PA0IUWp0rwF0E8EEycFF-1">
          <mxGeometry x="180" y="280" width="120" height="40" as="geometry" />
        </mxCell>
        <mxCell id="PA0IUWp0rwF0E8EEycFF-4" value="" style="rounded=0;whiteSpace=wrap;html=1;" vertex="1" parent="PA0IUWp0rwF0E8EEycFF-1">
          <mxGeometry x="180" y="320" width="120" height="40" as="geometry" />
        </mxCell>
        <mxCell id="PA0IUWp0rwF0E8EEycFF-5" value="" style="rounded=0;whiteSpace=wrap;html=1;" vertex="1" parent="PA0IUWp0rwF0E8EEycFF-1">
          <mxGeometry x="180" y="360" width="120" height="40" as="geometry" />
        </mxCell>
        <mxCell id="PA0IUWp0rwF0E8EEycFF-6" value="" style="rounded=0;whiteSpace=wrap;html=1;" vertex="1" parent="PA0IUWp0rwF0E8EEycFF-1">
          <mxGeometry x="180" y="400" width="120" height="40" as="geometry" />
        </mxCell>
        <mxCell id="PA0IUWp0rwF0E8EEycFF-7" value="" style="rounded=0;whiteSpace=wrap;html=1;" vertex="1" parent="PA0IUWp0rwF0E8EEycFF-1">
          <mxGeometry x="180" y="440" width="120" height="40" as="geometry" />
        </mxCell>
        <mxCell id="PA0IUWp0rwF0E8EEycFF-8" value="" style="rounded=0;whiteSpace=wrap;html=1;" vertex="1" parent="PA0IUWp0rwF0E8EEycFF-1">
          <mxGeometry x="180" y="480" width="120" height="40" as="geometry" />
        </mxCell>
        <mxCell id="PA0IUWp0rwF0E8EEycFF-9" value="&lt;font style=&quot;font-size: 15px;&quot;&gt;Tamanho = 7&lt;/font&gt;" style="rounded=0;whiteSpace=wrap;html=1;" vertex="1" parent="PA0IUWp0rwF0E8EEycFF-1">
          <mxGeometry x="420" y="80" width="120" height="60" as="geometry" />
        </mxCell>
        <mxCell id="PA0IUWp0rwF0E8EEycFF-10" value="&lt;font style=&quot;font-size: 15px;&quot;&gt;H(k) = k % tamanho&lt;/font&gt;" style="rounded=0;whiteSpace=wrap;html=1;" vertex="1" parent="PA0IUWp0rwF0E8EEycFF-1">
          <mxGeometry x="570" y="80" width="150" height="60" as="geometry" />
        </mxCell>
        <mxCell id="PA0IUWp0rwF0E8EEycFF-18" value="&lt;div&gt;&lt;font style=&quot;font-size: 16px;&quot;&gt;Inserir 40&lt;/font&gt;&lt;/div&gt;" style="rounded=0;whiteSpace=wrap;html=1;" vertex="1" parent="PA0IUWp0rwF0E8EEycFF-1">
          <mxGeometry x="490" y="160" width="120" height="60" as="geometry" />
        </mxCell>
        <mxCell id="PA0IUWp0rwF0E8EEycFF-19" value="&lt;font style=&quot;font-size: 16px;&quot;&gt;12&lt;/font&gt;" style="text;html=1;align=center;verticalAlign=middle;whiteSpace=wrap;rounded=0;" vertex="1" parent="PA0IUWp0rwF0E8EEycFF-1">
          <mxGeometry x="210" y="440" width="60" height="40" as="geometry" />
        </mxCell>
        <mxCell id="PA0IUWp0rwF0E8EEycFF-20" value="&lt;font style=&quot;font-size: 16px;&quot;&gt;10&lt;/font&gt;" style="text;html=1;align=center;verticalAlign=middle;whiteSpace=wrap;rounded=0;" vertex="1" parent="PA0IUWp0rwF0E8EEycFF-1">
          <mxGeometry x="210" y="360" width="60" height="40" as="geometry" />
        </mxCell>
        <mxCell id="PA0IUWp0rwF0E8EEycFF-21" value="" style="endArrow=classic;html=1;rounded=0;exitX=1;exitY=0.5;exitDx=0;exitDy=0;" edge="1" parent="PA0IUWp0rwF0E8EEycFF-1" target="PA0IUWp0rwF0E8EEycFF-22">
          <mxGeometry width="50" height="50" relative="1" as="geometry">
            <mxPoint x="300" y="460" as="sourcePoint" />
            <mxPoint x="350" y="460" as="targetPoint" />
          </mxGeometry>
        </mxCell>
        <mxCell id="PA0IUWp0rwF0E8EEycFF-22" value="&lt;font style=&quot;font-size: 16px;&quot;&gt;19&lt;/font&gt;" style="rounded=0;whiteSpace=wrap;html=1;" vertex="1" parent="PA0IUWp0rwF0E8EEycFF-1">
          <mxGeometry x="350" y="440" width="60" height="40" as="geometry" />
        </mxCell>
        <mxCell id="PA0IUWp0rwF0E8EEycFF-23" value="" style="endArrow=classic;html=1;rounded=0;" edge="1" parent="PA0IUWp0rwF0E8EEycFF-1" target="PA0IUWp0rwF0E8EEycFF-24">
          <mxGeometry width="50" height="50" relative="1" as="geometry">
            <mxPoint x="300" y="380" as="sourcePoint" />
            <mxPoint x="350" y="380" as="targetPoint" />
          </mxGeometry>
        </mxCell>
        <mxCell id="PA0IUWp0rwF0E8EEycFF-24" value="&lt;font style=&quot;font-size: 16px;&quot;&gt;17&lt;/font&gt;" style="rounded=0;whiteSpace=wrap;html=1;" vertex="1" parent="PA0IUWp0rwF0E8EEycFF-1">
          <mxGeometry x="350" y="360" width="60" height="40" as="geometry" />
        </mxCell>
        <mxCell id="PA0IUWp0rwF0E8EEycFF-25" value="&lt;font style=&quot;font-size: 17px;&quot;&gt;56&lt;/font&gt;" style="text;html=1;align=center;verticalAlign=middle;whiteSpace=wrap;rounded=0;" vertex="1" parent="PA0IUWp0rwF0E8EEycFF-1">
          <mxGeometry x="210" y="240" width="60" height="40" as="geometry" />
        </mxCell>
        <mxCell id="PA0IUWp0rwF0E8EEycFF-26" value="" style="endArrow=classic;html=1;rounded=0;" edge="1" parent="PA0IUWp0rwF0E8EEycFF-1" target="PA0IUWp0rwF0E8EEycFF-27">
          <mxGeometry width="50" height="50" relative="1" as="geometry">
            <mxPoint x="300" y="260" as="sourcePoint" />
            <mxPoint x="350" y="260" as="targetPoint" />
          </mxGeometry>
        </mxCell>
        <mxCell id="PA0IUWp0rwF0E8EEycFF-27" value="&lt;font style=&quot;font-size: 16px;&quot;&gt;14&lt;/font&gt;" style="rounded=0;whiteSpace=wrap;html=1;" vertex="1" parent="PA0IUWp0rwF0E8EEycFF-1">
          <mxGeometry x="350" y="240" width="60" height="40" as="geometry" />
        </mxCell>
        <mxCell id="PA0IUWp0rwF0E8EEycFF-28" value="" style="endArrow=classic;html=1;rounded=0;" edge="1" parent="PA0IUWp0rwF0E8EEycFF-1" target="PA0IUWp0rwF0E8EEycFF-29">
          <mxGeometry width="50" height="50" relative="1" as="geometry">
            <mxPoint x="410" y="260" as="sourcePoint" />
            <mxPoint x="460" y="260" as="targetPoint" />
          </mxGeometry>
        </mxCell>
        <mxCell id="PA0IUWp0rwF0E8EEycFF-29" value="&lt;font style=&quot;font-size: 16px;&quot;&gt;49&lt;/font&gt;" style="rounded=0;whiteSpace=wrap;html=1;" vertex="1" parent="PA0IUWp0rwF0E8EEycFF-1">
          <mxGeometry x="460" y="240" width="60" height="40" as="geometry" />
        </mxCell>
        <mxCell id="Xa2yVDmugYH-fn30gl3u-0" value="&lt;font style=&quot;font-size: 16px;&quot;&gt;23&lt;/font&gt;" style="text;html=1;align=center;verticalAlign=middle;whiteSpace=wrap;rounded=0;" vertex="1" parent="PA0IUWp0rwF0E8EEycFF-1">
          <mxGeometry x="210" y="320" width="60" height="40" as="geometry" />
        </mxCell>
        <mxCell id="Xa2yVDmugYH-fn30gl3u-1" value="" style="endArrow=classic;html=1;rounded=0;exitX=1;exitY=0.5;exitDx=0;exitDy=0;" edge="1" parent="PA0IUWp0rwF0E8EEycFF-1" target="Xa2yVDmugYH-fn30gl3u-2">
          <mxGeometry width="50" height="50" relative="1" as="geometry">
            <mxPoint x="410" y="460" as="sourcePoint" />
            <mxPoint x="460" y="460" as="targetPoint" />
          </mxGeometry>
        </mxCell>
        <mxCell id="Xa2yVDmugYH-fn30gl3u-2" value="&lt;font style=&quot;font-size: 16px;&quot;&gt;40&lt;/font&gt;" style="rounded=0;whiteSpace=wrap;html=1;" vertex="1" parent="PA0IUWp0rwF0E8EEycFF-1">
          <mxGeometry x="460" y="440" width="60" height="40" as="geometry" />
        </mxCell>
        <mxCell id="vl-dHaLKL6u2B_c-F6-F-0" value="&lt;font style=&quot;font-size: 19px;&quot;&gt;0&lt;/font&gt;" style="text;html=1;align=center;verticalAlign=middle;whiteSpace=wrap;rounded=0;" vertex="1" parent="PA0IUWp0rwF0E8EEycFF-1">
          <mxGeometry x="110" y="245" width="60" height="30" as="geometry" />
        </mxCell>
        <mxCell id="vl-dHaLKL6u2B_c-F6-F-1" value="&lt;font style=&quot;font-size: 19px;&quot;&gt;1&lt;/font&gt;" style="text;html=1;align=center;verticalAlign=middle;whiteSpace=wrap;rounded=0;" vertex="1" parent="PA0IUWp0rwF0E8EEycFF-1">
          <mxGeometry x="110" y="285" width="60" height="30" as="geometry" />
        </mxCell>
        <mxCell id="vl-dHaLKL6u2B_c-F6-F-2" value="&lt;font style=&quot;font-size: 19px;&quot;&gt;2&lt;/font&gt;" style="text;html=1;align=center;verticalAlign=middle;whiteSpace=wrap;rounded=0;" vertex="1" parent="PA0IUWp0rwF0E8EEycFF-1">
          <mxGeometry x="110" y="325" width="60" height="30" as="geometry" />
        </mxCell>
        <mxCell id="vl-dHaLKL6u2B_c-F6-F-3" value="&lt;font style=&quot;font-size: 19px;&quot;&gt;3&lt;/font&gt;" style="text;html=1;align=center;verticalAlign=middle;whiteSpace=wrap;rounded=0;" vertex="1" parent="PA0IUWp0rwF0E8EEycFF-1">
          <mxGeometry x="110" y="365" width="60" height="30" as="geometry" />
        </mxCell>
        <mxCell id="vl-dHaLKL6u2B_c-F6-F-4" value="&lt;font style=&quot;font-size: 19px;&quot;&gt;4&lt;/font&gt;" style="text;html=1;align=center;verticalAlign=middle;whiteSpace=wrap;rounded=0;" vertex="1" parent="PA0IUWp0rwF0E8EEycFF-1">
          <mxGeometry x="110" y="405" width="60" height="30" as="geometry" />
        </mxCell>
        <mxCell id="vl-dHaLKL6u2B_c-F6-F-5" value="&lt;font style=&quot;font-size: 19px;&quot;&gt;5&lt;/font&gt;" style="text;html=1;align=center;verticalAlign=middle;whiteSpace=wrap;rounded=0;" vertex="1" parent="PA0IUWp0rwF0E8EEycFF-1">
          <mxGeometry x="110" y="445" width="60" height="30" as="geometry" />
        </mxCell>
        <mxCell id="vl-dHaLKL6u2B_c-F6-F-6" value="&lt;font style=&quot;font-size: 19px;&quot;&gt;6&lt;/font&gt;" style="text;html=1;align=center;verticalAlign=middle;whiteSpace=wrap;rounded=0;" vertex="1" parent="PA0IUWp0rwF0E8EEycFF-1">
          <mxGeometry x="110" y="485" width="60" height="30" as="geometry" />
        </mxCell>
      </root>
    </mxGraphModel>
  </diagram>
  <diagram name="E-10" id="BpvjBbK33GItuVPi2hD3">
    <mxGraphModel dx="1434" dy="750" grid="1" gridSize="10" guides="1" tooltips="1" connect="1" arrows="1" fold="1" page="1" pageScale="1" pageWidth="850" pageHeight="1100" math="0" shadow="0">
      <root>
        <mxCell id="7bFlpAnnYVP66WDXn8Zc-0" />
        <mxCell id="7bFlpAnnYVP66WDXn8Zc-1" parent="7bFlpAnnYVP66WDXn8Zc-0" />
        <mxCell id="7bFlpAnnYVP66WDXn8Zc-2" value="" style="rounded=0;whiteSpace=wrap;html=1;" vertex="1" parent="7bFlpAnnYVP66WDXn8Zc-1">
          <mxGeometry x="180" y="240" width="120" height="40" as="geometry" />
        </mxCell>
        <mxCell id="7bFlpAnnYVP66WDXn8Zc-3" value="" style="rounded=0;whiteSpace=wrap;html=1;" vertex="1" parent="7bFlpAnnYVP66WDXn8Zc-1">
          <mxGeometry x="180" y="280" width="120" height="40" as="geometry" />
        </mxCell>
        <mxCell id="7bFlpAnnYVP66WDXn8Zc-4" value="" style="rounded=0;whiteSpace=wrap;html=1;" vertex="1" parent="7bFlpAnnYVP66WDXn8Zc-1">
          <mxGeometry x="180" y="320" width="120" height="40" as="geometry" />
        </mxCell>
        <mxCell id="7bFlpAnnYVP66WDXn8Zc-5" value="" style="rounded=0;whiteSpace=wrap;html=1;" vertex="1" parent="7bFlpAnnYVP66WDXn8Zc-1">
          <mxGeometry x="180" y="360" width="120" height="40" as="geometry" />
        </mxCell>
        <mxCell id="7bFlpAnnYVP66WDXn8Zc-6" value="" style="rounded=0;whiteSpace=wrap;html=1;" vertex="1" parent="7bFlpAnnYVP66WDXn8Zc-1">
          <mxGeometry x="180" y="400" width="120" height="40" as="geometry" />
        </mxCell>
        <mxCell id="7bFlpAnnYVP66WDXn8Zc-7" value="" style="rounded=0;whiteSpace=wrap;html=1;" vertex="1" parent="7bFlpAnnYVP66WDXn8Zc-1">
          <mxGeometry x="180" y="440" width="120" height="40" as="geometry" />
        </mxCell>
        <mxCell id="7bFlpAnnYVP66WDXn8Zc-8" value="" style="rounded=0;whiteSpace=wrap;html=1;" vertex="1" parent="7bFlpAnnYVP66WDXn8Zc-1">
          <mxGeometry x="180" y="480" width="120" height="40" as="geometry" />
        </mxCell>
        <mxCell id="7bFlpAnnYVP66WDXn8Zc-9" value="&lt;font style=&quot;font-size: 15px;&quot;&gt;Tamanho = 7&lt;/font&gt;" style="rounded=0;whiteSpace=wrap;html=1;" vertex="1" parent="7bFlpAnnYVP66WDXn8Zc-1">
          <mxGeometry x="420" y="80" width="120" height="60" as="geometry" />
        </mxCell>
        <mxCell id="7bFlpAnnYVP66WDXn8Zc-10" value="&lt;font style=&quot;font-size: 15px;&quot;&gt;H(k) = k % tamanho&lt;/font&gt;" style="rounded=0;whiteSpace=wrap;html=1;" vertex="1" parent="7bFlpAnnYVP66WDXn8Zc-1">
          <mxGeometry x="570" y="80" width="150" height="60" as="geometry" />
        </mxCell>
        <mxCell id="7bFlpAnnYVP66WDXn8Zc-11" value="&lt;font style=&quot;font-size: 19px;&quot;&gt;0&lt;/font&gt;" style="text;html=1;align=center;verticalAlign=middle;whiteSpace=wrap;rounded=0;" vertex="1" parent="7bFlpAnnYVP66WDXn8Zc-1">
          <mxGeometry x="110" y="245" width="60" height="30" as="geometry" />
        </mxCell>
        <mxCell id="7bFlpAnnYVP66WDXn8Zc-12" value="&lt;font style=&quot;font-size: 19px;&quot;&gt;1&lt;/font&gt;" style="text;html=1;align=center;verticalAlign=middle;whiteSpace=wrap;rounded=0;" vertex="1" parent="7bFlpAnnYVP66WDXn8Zc-1">
          <mxGeometry x="110" y="285" width="60" height="30" as="geometry" />
        </mxCell>
        <mxCell id="7bFlpAnnYVP66WDXn8Zc-13" value="&lt;font style=&quot;font-size: 19px;&quot;&gt;2&lt;/font&gt;" style="text;html=1;align=center;verticalAlign=middle;whiteSpace=wrap;rounded=0;" vertex="1" parent="7bFlpAnnYVP66WDXn8Zc-1">
          <mxGeometry x="110" y="325" width="60" height="30" as="geometry" />
        </mxCell>
        <mxCell id="7bFlpAnnYVP66WDXn8Zc-14" value="&lt;font style=&quot;font-size: 19px;&quot;&gt;3&lt;/font&gt;" style="text;html=1;align=center;verticalAlign=middle;whiteSpace=wrap;rounded=0;" vertex="1" parent="7bFlpAnnYVP66WDXn8Zc-1">
          <mxGeometry x="110" y="365" width="60" height="30" as="geometry" />
        </mxCell>
        <mxCell id="7bFlpAnnYVP66WDXn8Zc-15" value="&lt;font style=&quot;font-size: 19px;&quot;&gt;4&lt;/font&gt;" style="text;html=1;align=center;verticalAlign=middle;whiteSpace=wrap;rounded=0;" vertex="1" parent="7bFlpAnnYVP66WDXn8Zc-1">
          <mxGeometry x="110" y="405" width="60" height="30" as="geometry" />
        </mxCell>
        <mxCell id="7bFlpAnnYVP66WDXn8Zc-16" value="&lt;font style=&quot;font-size: 19px;&quot;&gt;5&lt;/font&gt;" style="text;html=1;align=center;verticalAlign=middle;whiteSpace=wrap;rounded=0;" vertex="1" parent="7bFlpAnnYVP66WDXn8Zc-1">
          <mxGeometry x="110" y="445" width="60" height="30" as="geometry" />
        </mxCell>
        <mxCell id="7bFlpAnnYVP66WDXn8Zc-17" value="&lt;font style=&quot;font-size: 19px;&quot;&gt;6&lt;/font&gt;" style="text;html=1;align=center;verticalAlign=middle;whiteSpace=wrap;rounded=0;" vertex="1" parent="7bFlpAnnYVP66WDXn8Zc-1">
          <mxGeometry x="110" y="485" width="60" height="30" as="geometry" />
        </mxCell>
        <mxCell id="7bFlpAnnYVP66WDXn8Zc-18" value="&lt;div&gt;&lt;font style=&quot;font-size: 16px;&quot;&gt;Inserir 15&lt;/font&gt;&lt;/div&gt;" style="rounded=0;whiteSpace=wrap;html=1;" vertex="1" parent="7bFlpAnnYVP66WDXn8Zc-1">
          <mxGeometry x="490" y="160" width="120" height="60" as="geometry" />
        </mxCell>
        <mxCell id="7bFlpAnnYVP66WDXn8Zc-19" value="&lt;font style=&quot;font-size: 16px;&quot;&gt;12&lt;/font&gt;" style="text;html=1;align=center;verticalAlign=middle;whiteSpace=wrap;rounded=0;" vertex="1" parent="7bFlpAnnYVP66WDXn8Zc-1">
          <mxGeometry x="210" y="440" width="60" height="40" as="geometry" />
        </mxCell>
        <mxCell id="7bFlpAnnYVP66WDXn8Zc-20" value="&lt;font style=&quot;font-size: 16px;&quot;&gt;10&lt;/font&gt;" style="text;html=1;align=center;verticalAlign=middle;whiteSpace=wrap;rounded=0;" vertex="1" parent="7bFlpAnnYVP66WDXn8Zc-1">
          <mxGeometry x="210" y="360" width="60" height="40" as="geometry" />
        </mxCell>
        <mxCell id="7bFlpAnnYVP66WDXn8Zc-21" value="" style="endArrow=classic;html=1;rounded=0;exitX=1;exitY=0.5;exitDx=0;exitDy=0;" edge="1" parent="7bFlpAnnYVP66WDXn8Zc-1" target="7bFlpAnnYVP66WDXn8Zc-22">
          <mxGeometry width="50" height="50" relative="1" as="geometry">
            <mxPoint x="300" y="460" as="sourcePoint" />
            <mxPoint x="350" y="460" as="targetPoint" />
          </mxGeometry>
        </mxCell>
        <mxCell id="7bFlpAnnYVP66WDXn8Zc-22" value="&lt;font style=&quot;font-size: 16px;&quot;&gt;19&lt;/font&gt;" style="rounded=0;whiteSpace=wrap;html=1;" vertex="1" parent="7bFlpAnnYVP66WDXn8Zc-1">
          <mxGeometry x="350" y="440" width="60" height="40" as="geometry" />
        </mxCell>
        <mxCell id="7bFlpAnnYVP66WDXn8Zc-23" value="" style="endArrow=classic;html=1;rounded=0;" edge="1" parent="7bFlpAnnYVP66WDXn8Zc-1" target="7bFlpAnnYVP66WDXn8Zc-24">
          <mxGeometry width="50" height="50" relative="1" as="geometry">
            <mxPoint x="300" y="380" as="sourcePoint" />
            <mxPoint x="350" y="380" as="targetPoint" />
          </mxGeometry>
        </mxCell>
        <mxCell id="7bFlpAnnYVP66WDXn8Zc-24" value="&lt;font style=&quot;font-size: 16px;&quot;&gt;17&lt;/font&gt;" style="rounded=0;whiteSpace=wrap;html=1;" vertex="1" parent="7bFlpAnnYVP66WDXn8Zc-1">
          <mxGeometry x="350" y="360" width="60" height="40" as="geometry" />
        </mxCell>
        <mxCell id="7bFlpAnnYVP66WDXn8Zc-25" value="&lt;font style=&quot;font-size: 17px;&quot;&gt;56&lt;/font&gt;" style="text;html=1;align=center;verticalAlign=middle;whiteSpace=wrap;rounded=0;" vertex="1" parent="7bFlpAnnYVP66WDXn8Zc-1">
          <mxGeometry x="210" y="240" width="60" height="40" as="geometry" />
        </mxCell>
        <mxCell id="7bFlpAnnYVP66WDXn8Zc-26" value="" style="endArrow=classic;html=1;rounded=0;" edge="1" parent="7bFlpAnnYVP66WDXn8Zc-1" target="7bFlpAnnYVP66WDXn8Zc-27">
          <mxGeometry width="50" height="50" relative="1" as="geometry">
            <mxPoint x="300" y="260" as="sourcePoint" />
            <mxPoint x="350" y="260" as="targetPoint" />
          </mxGeometry>
        </mxCell>
        <mxCell id="7bFlpAnnYVP66WDXn8Zc-27" value="&lt;font style=&quot;font-size: 16px;&quot;&gt;14&lt;/font&gt;" style="rounded=0;whiteSpace=wrap;html=1;" vertex="1" parent="7bFlpAnnYVP66WDXn8Zc-1">
          <mxGeometry x="350" y="240" width="60" height="40" as="geometry" />
        </mxCell>
        <mxCell id="7bFlpAnnYVP66WDXn8Zc-28" value="" style="endArrow=classic;html=1;rounded=0;" edge="1" parent="7bFlpAnnYVP66WDXn8Zc-1" target="7bFlpAnnYVP66WDXn8Zc-29">
          <mxGeometry width="50" height="50" relative="1" as="geometry">
            <mxPoint x="410" y="260" as="sourcePoint" />
            <mxPoint x="460" y="260" as="targetPoint" />
          </mxGeometry>
        </mxCell>
        <mxCell id="7bFlpAnnYVP66WDXn8Zc-29" value="&lt;font style=&quot;font-size: 16px;&quot;&gt;49&lt;/font&gt;" style="rounded=0;whiteSpace=wrap;html=1;" vertex="1" parent="7bFlpAnnYVP66WDXn8Zc-1">
          <mxGeometry x="460" y="240" width="60" height="40" as="geometry" />
        </mxCell>
        <mxCell id="7bFlpAnnYVP66WDXn8Zc-30" value="&lt;font style=&quot;font-size: 16px;&quot;&gt;23&lt;/font&gt;" style="text;html=1;align=center;verticalAlign=middle;whiteSpace=wrap;rounded=0;" vertex="1" parent="7bFlpAnnYVP66WDXn8Zc-1">
          <mxGeometry x="210" y="320" width="60" height="40" as="geometry" />
        </mxCell>
        <mxCell id="7bFlpAnnYVP66WDXn8Zc-31" value="" style="endArrow=classic;html=1;rounded=0;exitX=1;exitY=0.5;exitDx=0;exitDy=0;" edge="1" parent="7bFlpAnnYVP66WDXn8Zc-1" target="7bFlpAnnYVP66WDXn8Zc-32">
          <mxGeometry width="50" height="50" relative="1" as="geometry">
            <mxPoint x="410" y="460" as="sourcePoint" />
            <mxPoint x="460" y="460" as="targetPoint" />
          </mxGeometry>
        </mxCell>
        <mxCell id="7bFlpAnnYVP66WDXn8Zc-32" value="&lt;font style=&quot;font-size: 16px;&quot;&gt;40&lt;/font&gt;" style="rounded=0;whiteSpace=wrap;html=1;" vertex="1" parent="7bFlpAnnYVP66WDXn8Zc-1">
          <mxGeometry x="460" y="440" width="60" height="40" as="geometry" />
        </mxCell>
        <mxCell id="qDGpUhNxb27dLpkluiVv-0" value="" style="endArrow=classic;html=1;rounded=0;" edge="1" parent="7bFlpAnnYVP66WDXn8Zc-1" target="qDGpUhNxb27dLpkluiVv-1">
          <mxGeometry width="50" height="50" relative="1" as="geometry">
            <mxPoint x="300" y="340" as="sourcePoint" />
            <mxPoint x="350" y="340" as="targetPoint" />
          </mxGeometry>
        </mxCell>
        <mxCell id="qDGpUhNxb27dLpkluiVv-1" value="&lt;font style=&quot;font-size: 16px;&quot;&gt;15&lt;/font&gt;" style="rounded=0;whiteSpace=wrap;html=1;" vertex="1" parent="7bFlpAnnYVP66WDXn8Zc-1">
          <mxGeometry x="350" y="320" width="60" height="40" as="geometry" />
        </mxCell>
      </root>
    </mxGraphModel>
  </diagram>
  <diagram name="E-11" id="Rpu3UlQmvSLKx7aHOZLO">
    <mxGraphModel dx="1434" dy="750" grid="1" gridSize="10" guides="1" tooltips="1" connect="1" arrows="1" fold="1" page="1" pageScale="1" pageWidth="850" pageHeight="1100" math="0" shadow="0">
      <root>
        <mxCell id="PiDE4R7lydZ6wk7R4H1d-0" />
        <mxCell id="PiDE4R7lydZ6wk7R4H1d-1" parent="PiDE4R7lydZ6wk7R4H1d-0" />
        <mxCell id="PiDE4R7lydZ6wk7R4H1d-2" value="" style="rounded=0;whiteSpace=wrap;html=1;" vertex="1" parent="PiDE4R7lydZ6wk7R4H1d-1">
          <mxGeometry x="180" y="240" width="120" height="40" as="geometry" />
        </mxCell>
        <mxCell id="PiDE4R7lydZ6wk7R4H1d-3" value="" style="rounded=0;whiteSpace=wrap;html=1;" vertex="1" parent="PiDE4R7lydZ6wk7R4H1d-1">
          <mxGeometry x="180" y="280" width="120" height="40" as="geometry" />
        </mxCell>
        <mxCell id="PiDE4R7lydZ6wk7R4H1d-4" value="" style="rounded=0;whiteSpace=wrap;html=1;" vertex="1" parent="PiDE4R7lydZ6wk7R4H1d-1">
          <mxGeometry x="180" y="320" width="120" height="40" as="geometry" />
        </mxCell>
        <mxCell id="PiDE4R7lydZ6wk7R4H1d-5" value="" style="rounded=0;whiteSpace=wrap;html=1;" vertex="1" parent="PiDE4R7lydZ6wk7R4H1d-1">
          <mxGeometry x="180" y="360" width="120" height="40" as="geometry" />
        </mxCell>
        <mxCell id="PiDE4R7lydZ6wk7R4H1d-6" value="" style="rounded=0;whiteSpace=wrap;html=1;" vertex="1" parent="PiDE4R7lydZ6wk7R4H1d-1">
          <mxGeometry x="180" y="400" width="120" height="40" as="geometry" />
        </mxCell>
        <mxCell id="PiDE4R7lydZ6wk7R4H1d-7" value="" style="rounded=0;whiteSpace=wrap;html=1;" vertex="1" parent="PiDE4R7lydZ6wk7R4H1d-1">
          <mxGeometry x="180" y="440" width="120" height="40" as="geometry" />
        </mxCell>
        <mxCell id="PiDE4R7lydZ6wk7R4H1d-8" value="" style="rounded=0;whiteSpace=wrap;html=1;" vertex="1" parent="PiDE4R7lydZ6wk7R4H1d-1">
          <mxGeometry x="180" y="480" width="120" height="40" as="geometry" />
        </mxCell>
        <mxCell id="PiDE4R7lydZ6wk7R4H1d-9" value="&lt;font style=&quot;font-size: 15px;&quot;&gt;Tamanho = 7&lt;/font&gt;" style="rounded=0;whiteSpace=wrap;html=1;" vertex="1" parent="PiDE4R7lydZ6wk7R4H1d-1">
          <mxGeometry x="510" y="40" width="120" height="60" as="geometry" />
        </mxCell>
        <mxCell id="PiDE4R7lydZ6wk7R4H1d-10" value="&lt;font style=&quot;font-size: 15px;&quot;&gt;H(k) = k % tamanho&lt;/font&gt;" style="rounded=0;whiteSpace=wrap;html=1;" vertex="1" parent="PiDE4R7lydZ6wk7R4H1d-1">
          <mxGeometry x="660" y="40" width="150" height="60" as="geometry" />
        </mxCell>
        <mxCell id="PiDE4R7lydZ6wk7R4H1d-11" value="&lt;font style=&quot;font-size: 19px;&quot;&gt;0&lt;/font&gt;" style="text;html=1;align=center;verticalAlign=middle;whiteSpace=wrap;rounded=0;" vertex="1" parent="PiDE4R7lydZ6wk7R4H1d-1">
          <mxGeometry x="110" y="245" width="60" height="30" as="geometry" />
        </mxCell>
        <mxCell id="PiDE4R7lydZ6wk7R4H1d-12" value="&lt;font style=&quot;font-size: 19px;&quot;&gt;1&lt;/font&gt;" style="text;html=1;align=center;verticalAlign=middle;whiteSpace=wrap;rounded=0;" vertex="1" parent="PiDE4R7lydZ6wk7R4H1d-1">
          <mxGeometry x="110" y="285" width="60" height="30" as="geometry" />
        </mxCell>
        <mxCell id="PiDE4R7lydZ6wk7R4H1d-13" value="&lt;font style=&quot;font-size: 19px;&quot;&gt;2&lt;/font&gt;" style="text;html=1;align=center;verticalAlign=middle;whiteSpace=wrap;rounded=0;" vertex="1" parent="PiDE4R7lydZ6wk7R4H1d-1">
          <mxGeometry x="110" y="325" width="60" height="30" as="geometry" />
        </mxCell>
        <mxCell id="PiDE4R7lydZ6wk7R4H1d-14" value="&lt;font style=&quot;font-size: 19px;&quot;&gt;3&lt;/font&gt;" style="text;html=1;align=center;verticalAlign=middle;whiteSpace=wrap;rounded=0;" vertex="1" parent="PiDE4R7lydZ6wk7R4H1d-1">
          <mxGeometry x="110" y="365" width="60" height="30" as="geometry" />
        </mxCell>
        <mxCell id="PiDE4R7lydZ6wk7R4H1d-15" value="&lt;font style=&quot;font-size: 19px;&quot;&gt;4&lt;/font&gt;" style="text;html=1;align=center;verticalAlign=middle;whiteSpace=wrap;rounded=0;" vertex="1" parent="PiDE4R7lydZ6wk7R4H1d-1">
          <mxGeometry x="110" y="405" width="60" height="30" as="geometry" />
        </mxCell>
        <mxCell id="PiDE4R7lydZ6wk7R4H1d-16" value="&lt;font style=&quot;font-size: 19px;&quot;&gt;5&lt;/font&gt;" style="text;html=1;align=center;verticalAlign=middle;whiteSpace=wrap;rounded=0;" vertex="1" parent="PiDE4R7lydZ6wk7R4H1d-1">
          <mxGeometry x="110" y="445" width="60" height="30" as="geometry" />
        </mxCell>
        <mxCell id="PiDE4R7lydZ6wk7R4H1d-17" value="&lt;font style=&quot;font-size: 19px;&quot;&gt;6&lt;/font&gt;" style="text;html=1;align=center;verticalAlign=middle;whiteSpace=wrap;rounded=0;" vertex="1" parent="PiDE4R7lydZ6wk7R4H1d-1">
          <mxGeometry x="110" y="485" width="60" height="30" as="geometry" />
        </mxCell>
        <mxCell id="PiDE4R7lydZ6wk7R4H1d-18" value="&lt;div&gt;&lt;font style=&quot;font-size: 16px;&quot;&gt;Inserir 18&lt;/font&gt;&lt;/div&gt;" style="rounded=0;whiteSpace=wrap;html=1;" vertex="1" parent="PiDE4R7lydZ6wk7R4H1d-1">
          <mxGeometry x="580" y="120" width="120" height="60" as="geometry" />
        </mxCell>
        <mxCell id="PiDE4R7lydZ6wk7R4H1d-19" value="&lt;font style=&quot;font-size: 16px;&quot;&gt;12&lt;/font&gt;" style="text;html=1;align=center;verticalAlign=middle;whiteSpace=wrap;rounded=0;" vertex="1" parent="PiDE4R7lydZ6wk7R4H1d-1">
          <mxGeometry x="210" y="440" width="60" height="40" as="geometry" />
        </mxCell>
        <mxCell id="PiDE4R7lydZ6wk7R4H1d-20" value="&lt;font style=&quot;font-size: 16px;&quot;&gt;10&lt;/font&gt;" style="text;html=1;align=center;verticalAlign=middle;whiteSpace=wrap;rounded=0;" vertex="1" parent="PiDE4R7lydZ6wk7R4H1d-1">
          <mxGeometry x="210" y="360" width="60" height="40" as="geometry" />
        </mxCell>
        <mxCell id="PiDE4R7lydZ6wk7R4H1d-21" value="" style="endArrow=classic;html=1;rounded=0;exitX=1;exitY=0.5;exitDx=0;exitDy=0;" edge="1" parent="PiDE4R7lydZ6wk7R4H1d-1" target="PiDE4R7lydZ6wk7R4H1d-22">
          <mxGeometry width="50" height="50" relative="1" as="geometry">
            <mxPoint x="300" y="460" as="sourcePoint" />
            <mxPoint x="350" y="460" as="targetPoint" />
          </mxGeometry>
        </mxCell>
        <mxCell id="PiDE4R7lydZ6wk7R4H1d-22" value="&lt;font style=&quot;font-size: 16px;&quot;&gt;19&lt;/font&gt;" style="rounded=0;whiteSpace=wrap;html=1;" vertex="1" parent="PiDE4R7lydZ6wk7R4H1d-1">
          <mxGeometry x="350" y="440" width="60" height="40" as="geometry" />
        </mxCell>
        <mxCell id="PiDE4R7lydZ6wk7R4H1d-23" value="" style="endArrow=classic;html=1;rounded=0;" edge="1" parent="PiDE4R7lydZ6wk7R4H1d-1" target="PiDE4R7lydZ6wk7R4H1d-24">
          <mxGeometry width="50" height="50" relative="1" as="geometry">
            <mxPoint x="300" y="380" as="sourcePoint" />
            <mxPoint x="350" y="380" as="targetPoint" />
          </mxGeometry>
        </mxCell>
        <mxCell id="PiDE4R7lydZ6wk7R4H1d-24" value="&lt;font style=&quot;font-size: 16px;&quot;&gt;17&lt;/font&gt;" style="rounded=0;whiteSpace=wrap;html=1;" vertex="1" parent="PiDE4R7lydZ6wk7R4H1d-1">
          <mxGeometry x="350" y="360" width="60" height="40" as="geometry" />
        </mxCell>
        <mxCell id="PiDE4R7lydZ6wk7R4H1d-25" value="&lt;font style=&quot;font-size: 17px;&quot;&gt;56&lt;/font&gt;" style="text;html=1;align=center;verticalAlign=middle;whiteSpace=wrap;rounded=0;" vertex="1" parent="PiDE4R7lydZ6wk7R4H1d-1">
          <mxGeometry x="210" y="240" width="60" height="40" as="geometry" />
        </mxCell>
        <mxCell id="PiDE4R7lydZ6wk7R4H1d-26" value="" style="endArrow=classic;html=1;rounded=0;" edge="1" parent="PiDE4R7lydZ6wk7R4H1d-1" target="PiDE4R7lydZ6wk7R4H1d-27">
          <mxGeometry width="50" height="50" relative="1" as="geometry">
            <mxPoint x="300" y="260" as="sourcePoint" />
            <mxPoint x="350" y="260" as="targetPoint" />
          </mxGeometry>
        </mxCell>
        <mxCell id="PiDE4R7lydZ6wk7R4H1d-27" value="&lt;font style=&quot;font-size: 16px;&quot;&gt;14&lt;/font&gt;" style="rounded=0;whiteSpace=wrap;html=1;" vertex="1" parent="PiDE4R7lydZ6wk7R4H1d-1">
          <mxGeometry x="350" y="240" width="60" height="40" as="geometry" />
        </mxCell>
        <mxCell id="PiDE4R7lydZ6wk7R4H1d-28" value="" style="endArrow=classic;html=1;rounded=0;" edge="1" parent="PiDE4R7lydZ6wk7R4H1d-1" target="PiDE4R7lydZ6wk7R4H1d-29">
          <mxGeometry width="50" height="50" relative="1" as="geometry">
            <mxPoint x="410" y="260" as="sourcePoint" />
            <mxPoint x="460" y="260" as="targetPoint" />
          </mxGeometry>
        </mxCell>
        <mxCell id="PiDE4R7lydZ6wk7R4H1d-29" value="&lt;font style=&quot;font-size: 16px;&quot;&gt;49&lt;/font&gt;" style="rounded=0;whiteSpace=wrap;html=1;" vertex="1" parent="PiDE4R7lydZ6wk7R4H1d-1">
          <mxGeometry x="460" y="240" width="60" height="40" as="geometry" />
        </mxCell>
        <mxCell id="PiDE4R7lydZ6wk7R4H1d-30" value="&lt;font style=&quot;font-size: 16px;&quot;&gt;23&lt;/font&gt;" style="text;html=1;align=center;verticalAlign=middle;whiteSpace=wrap;rounded=0;" vertex="1" parent="PiDE4R7lydZ6wk7R4H1d-1">
          <mxGeometry x="210" y="320" width="60" height="40" as="geometry" />
        </mxCell>
        <mxCell id="PiDE4R7lydZ6wk7R4H1d-31" value="" style="endArrow=classic;html=1;rounded=0;exitX=1;exitY=0.5;exitDx=0;exitDy=0;" edge="1" parent="PiDE4R7lydZ6wk7R4H1d-1" target="PiDE4R7lydZ6wk7R4H1d-32">
          <mxGeometry width="50" height="50" relative="1" as="geometry">
            <mxPoint x="410" y="460" as="sourcePoint" />
            <mxPoint x="460" y="460" as="targetPoint" />
          </mxGeometry>
        </mxCell>
        <mxCell id="PiDE4R7lydZ6wk7R4H1d-32" value="&lt;font style=&quot;font-size: 16px;&quot;&gt;40&lt;/font&gt;" style="rounded=0;whiteSpace=wrap;html=1;" vertex="1" parent="PiDE4R7lydZ6wk7R4H1d-1">
          <mxGeometry x="460" y="440" width="60" height="40" as="geometry" />
        </mxCell>
        <mxCell id="PiDE4R7lydZ6wk7R4H1d-33" value="" style="endArrow=classic;html=1;rounded=0;" edge="1" parent="PiDE4R7lydZ6wk7R4H1d-1" target="PiDE4R7lydZ6wk7R4H1d-34">
          <mxGeometry width="50" height="50" relative="1" as="geometry">
            <mxPoint x="300" y="340" as="sourcePoint" />
            <mxPoint x="350" y="340" as="targetPoint" />
          </mxGeometry>
        </mxCell>
        <mxCell id="PiDE4R7lydZ6wk7R4H1d-34" value="&lt;font style=&quot;font-size: 16px;&quot;&gt;15&lt;/font&gt;" style="rounded=0;whiteSpace=wrap;html=1;" vertex="1" parent="PiDE4R7lydZ6wk7R4H1d-1">
          <mxGeometry x="350" y="320" width="60" height="40" as="geometry" />
        </mxCell>
        <mxCell id="FrmtiL0Fzs17BT3m5_tt-2" value="&lt;font style=&quot;font-size: 16px;&quot;&gt;18&lt;/font&gt;" style="text;html=1;align=center;verticalAlign=middle;whiteSpace=wrap;rounded=0;" vertex="1" parent="PiDE4R7lydZ6wk7R4H1d-1">
          <mxGeometry x="210" y="400" width="60" height="40" as="geometry" />
        </mxCell>
      </root>
    </mxGraphModel>
  </diagram>
  <diagram name="E-12" id="qlBMpBe1dOGuapHrR9WK">
    <mxGraphModel dx="1434" dy="750" grid="1" gridSize="10" guides="1" tooltips="1" connect="1" arrows="1" fold="1" page="1" pageScale="1" pageWidth="850" pageHeight="1100" math="0" shadow="0">
      <root>
        <mxCell id="FSx_Kl7dEPoFQTnKs3US-0" />
        <mxCell id="FSx_Kl7dEPoFQTnKs3US-1" parent="FSx_Kl7dEPoFQTnKs3US-0" />
        <mxCell id="FSx_Kl7dEPoFQTnKs3US-2" value="" style="rounded=0;whiteSpace=wrap;html=1;" vertex="1" parent="FSx_Kl7dEPoFQTnKs3US-1">
          <mxGeometry x="180" y="240" width="120" height="40" as="geometry" />
        </mxCell>
        <mxCell id="FSx_Kl7dEPoFQTnKs3US-3" value="" style="rounded=0;whiteSpace=wrap;html=1;" vertex="1" parent="FSx_Kl7dEPoFQTnKs3US-1">
          <mxGeometry x="180" y="280" width="120" height="40" as="geometry" />
        </mxCell>
        <mxCell id="FSx_Kl7dEPoFQTnKs3US-4" value="" style="rounded=0;whiteSpace=wrap;html=1;" vertex="1" parent="FSx_Kl7dEPoFQTnKs3US-1">
          <mxGeometry x="180" y="320" width="120" height="40" as="geometry" />
        </mxCell>
        <mxCell id="FSx_Kl7dEPoFQTnKs3US-5" value="" style="rounded=0;whiteSpace=wrap;html=1;" vertex="1" parent="FSx_Kl7dEPoFQTnKs3US-1">
          <mxGeometry x="180" y="360" width="120" height="40" as="geometry" />
        </mxCell>
        <mxCell id="FSx_Kl7dEPoFQTnKs3US-6" value="" style="rounded=0;whiteSpace=wrap;html=1;" vertex="1" parent="FSx_Kl7dEPoFQTnKs3US-1">
          <mxGeometry x="180" y="400" width="120" height="40" as="geometry" />
        </mxCell>
        <mxCell id="FSx_Kl7dEPoFQTnKs3US-7" value="" style="rounded=0;whiteSpace=wrap;html=1;" vertex="1" parent="FSx_Kl7dEPoFQTnKs3US-1">
          <mxGeometry x="180" y="440" width="120" height="40" as="geometry" />
        </mxCell>
        <mxCell id="FSx_Kl7dEPoFQTnKs3US-8" value="" style="rounded=0;whiteSpace=wrap;html=1;" vertex="1" parent="FSx_Kl7dEPoFQTnKs3US-1">
          <mxGeometry x="180" y="480" width="120" height="40" as="geometry" />
        </mxCell>
        <mxCell id="FSx_Kl7dEPoFQTnKs3US-9" value="&lt;font style=&quot;font-size: 15px;&quot;&gt;Tamanho = 7&lt;/font&gt;" style="rounded=0;whiteSpace=wrap;html=1;" vertex="1" parent="FSx_Kl7dEPoFQTnKs3US-1">
          <mxGeometry x="510" y="40" width="120" height="60" as="geometry" />
        </mxCell>
        <mxCell id="FSx_Kl7dEPoFQTnKs3US-10" value="&lt;font style=&quot;font-size: 15px;&quot;&gt;H(k) = k % tamanho&lt;/font&gt;" style="rounded=0;whiteSpace=wrap;html=1;" vertex="1" parent="FSx_Kl7dEPoFQTnKs3US-1">
          <mxGeometry x="660" y="40" width="150" height="60" as="geometry" />
        </mxCell>
        <mxCell id="FSx_Kl7dEPoFQTnKs3US-11" value="&lt;font style=&quot;font-size: 19px;&quot;&gt;0&lt;/font&gt;" style="text;html=1;align=center;verticalAlign=middle;whiteSpace=wrap;rounded=0;" vertex="1" parent="FSx_Kl7dEPoFQTnKs3US-1">
          <mxGeometry x="110" y="245" width="60" height="30" as="geometry" />
        </mxCell>
        <mxCell id="FSx_Kl7dEPoFQTnKs3US-12" value="&lt;font style=&quot;font-size: 19px;&quot;&gt;1&lt;/font&gt;" style="text;html=1;align=center;verticalAlign=middle;whiteSpace=wrap;rounded=0;" vertex="1" parent="FSx_Kl7dEPoFQTnKs3US-1">
          <mxGeometry x="110" y="285" width="60" height="30" as="geometry" />
        </mxCell>
        <mxCell id="FSx_Kl7dEPoFQTnKs3US-13" value="&lt;font style=&quot;font-size: 19px;&quot;&gt;2&lt;/font&gt;" style="text;html=1;align=center;verticalAlign=middle;whiteSpace=wrap;rounded=0;" vertex="1" parent="FSx_Kl7dEPoFQTnKs3US-1">
          <mxGeometry x="110" y="325" width="60" height="30" as="geometry" />
        </mxCell>
        <mxCell id="FSx_Kl7dEPoFQTnKs3US-14" value="&lt;font style=&quot;font-size: 19px;&quot;&gt;3&lt;/font&gt;" style="text;html=1;align=center;verticalAlign=middle;whiteSpace=wrap;rounded=0;" vertex="1" parent="FSx_Kl7dEPoFQTnKs3US-1">
          <mxGeometry x="110" y="365" width="60" height="30" as="geometry" />
        </mxCell>
        <mxCell id="FSx_Kl7dEPoFQTnKs3US-15" value="&lt;font style=&quot;font-size: 19px;&quot;&gt;4&lt;/font&gt;" style="text;html=1;align=center;verticalAlign=middle;whiteSpace=wrap;rounded=0;" vertex="1" parent="FSx_Kl7dEPoFQTnKs3US-1">
          <mxGeometry x="110" y="405" width="60" height="30" as="geometry" />
        </mxCell>
        <mxCell id="FSx_Kl7dEPoFQTnKs3US-16" value="&lt;font style=&quot;font-size: 19px;&quot;&gt;5&lt;/font&gt;" style="text;html=1;align=center;verticalAlign=middle;whiteSpace=wrap;rounded=0;" vertex="1" parent="FSx_Kl7dEPoFQTnKs3US-1">
          <mxGeometry x="110" y="445" width="60" height="30" as="geometry" />
        </mxCell>
        <mxCell id="FSx_Kl7dEPoFQTnKs3US-17" value="&lt;font style=&quot;font-size: 19px;&quot;&gt;6&lt;/font&gt;" style="text;html=1;align=center;verticalAlign=middle;whiteSpace=wrap;rounded=0;" vertex="1" parent="FSx_Kl7dEPoFQTnKs3US-1">
          <mxGeometry x="110" y="485" width="60" height="30" as="geometry" />
        </mxCell>
        <mxCell id="FSx_Kl7dEPoFQTnKs3US-18" value="&lt;div&gt;&lt;font style=&quot;font-size: 16px;&quot;&gt;Remover 14&lt;/font&gt;&lt;/div&gt;" style="rounded=0;whiteSpace=wrap;html=1;" vertex="1" parent="FSx_Kl7dEPoFQTnKs3US-1">
          <mxGeometry x="580" y="120" width="120" height="60" as="geometry" />
        </mxCell>
        <mxCell id="FSx_Kl7dEPoFQTnKs3US-19" value="&lt;font style=&quot;font-size: 16px;&quot;&gt;12&lt;/font&gt;" style="text;html=1;align=center;verticalAlign=middle;whiteSpace=wrap;rounded=0;" vertex="1" parent="FSx_Kl7dEPoFQTnKs3US-1">
          <mxGeometry x="210" y="440" width="60" height="40" as="geometry" />
        </mxCell>
        <mxCell id="FSx_Kl7dEPoFQTnKs3US-20" value="&lt;font style=&quot;font-size: 16px;&quot;&gt;10&lt;/font&gt;" style="text;html=1;align=center;verticalAlign=middle;whiteSpace=wrap;rounded=0;" vertex="1" parent="FSx_Kl7dEPoFQTnKs3US-1">
          <mxGeometry x="210" y="360" width="60" height="40" as="geometry" />
        </mxCell>
        <mxCell id="FSx_Kl7dEPoFQTnKs3US-21" value="" style="endArrow=classic;html=1;rounded=0;exitX=1;exitY=0.5;exitDx=0;exitDy=0;" edge="1" parent="FSx_Kl7dEPoFQTnKs3US-1" target="FSx_Kl7dEPoFQTnKs3US-22">
          <mxGeometry width="50" height="50" relative="1" as="geometry">
            <mxPoint x="300" y="460" as="sourcePoint" />
            <mxPoint x="350" y="460" as="targetPoint" />
          </mxGeometry>
        </mxCell>
        <mxCell id="FSx_Kl7dEPoFQTnKs3US-22" value="&lt;font style=&quot;font-size: 16px;&quot;&gt;19&lt;/font&gt;" style="rounded=0;whiteSpace=wrap;html=1;" vertex="1" parent="FSx_Kl7dEPoFQTnKs3US-1">
          <mxGeometry x="350" y="440" width="60" height="40" as="geometry" />
        </mxCell>
        <mxCell id="FSx_Kl7dEPoFQTnKs3US-23" value="" style="endArrow=classic;html=1;rounded=0;" edge="1" parent="FSx_Kl7dEPoFQTnKs3US-1" target="FSx_Kl7dEPoFQTnKs3US-24">
          <mxGeometry width="50" height="50" relative="1" as="geometry">
            <mxPoint x="300" y="380" as="sourcePoint" />
            <mxPoint x="350" y="380" as="targetPoint" />
          </mxGeometry>
        </mxCell>
        <mxCell id="FSx_Kl7dEPoFQTnKs3US-24" value="&lt;font style=&quot;font-size: 16px;&quot;&gt;17&lt;/font&gt;" style="rounded=0;whiteSpace=wrap;html=1;" vertex="1" parent="FSx_Kl7dEPoFQTnKs3US-1">
          <mxGeometry x="350" y="360" width="60" height="40" as="geometry" />
        </mxCell>
        <mxCell id="FSx_Kl7dEPoFQTnKs3US-25" value="&lt;font style=&quot;font-size: 17px;&quot;&gt;56&lt;/font&gt;" style="text;html=1;align=center;verticalAlign=middle;whiteSpace=wrap;rounded=0;" vertex="1" parent="FSx_Kl7dEPoFQTnKs3US-1">
          <mxGeometry x="210" y="240" width="60" height="40" as="geometry" />
        </mxCell>
        <mxCell id="FSx_Kl7dEPoFQTnKs3US-26" value="" style="endArrow=classic;html=1;rounded=0;" edge="1" parent="FSx_Kl7dEPoFQTnKs3US-1" target="FSx_Kl7dEPoFQTnKs3US-27">
          <mxGeometry width="50" height="50" relative="1" as="geometry">
            <mxPoint x="300" y="260" as="sourcePoint" />
            <mxPoint x="350" y="260" as="targetPoint" />
          </mxGeometry>
        </mxCell>
        <mxCell id="FSx_Kl7dEPoFQTnKs3US-27" value="&lt;font style=&quot;font-size: 16px;&quot;&gt;14&lt;/font&gt;" style="rounded=0;whiteSpace=wrap;html=1;" vertex="1" parent="FSx_Kl7dEPoFQTnKs3US-1">
          <mxGeometry x="350" y="240" width="60" height="40" as="geometry" />
        </mxCell>
        <mxCell id="FSx_Kl7dEPoFQTnKs3US-28" value="" style="endArrow=classic;html=1;rounded=0;" edge="1" parent="FSx_Kl7dEPoFQTnKs3US-1" target="FSx_Kl7dEPoFQTnKs3US-29">
          <mxGeometry width="50" height="50" relative="1" as="geometry">
            <mxPoint x="410" y="260" as="sourcePoint" />
            <mxPoint x="460" y="260" as="targetPoint" />
          </mxGeometry>
        </mxCell>
        <mxCell id="FSx_Kl7dEPoFQTnKs3US-29" value="&lt;font style=&quot;font-size: 16px;&quot;&gt;49&lt;/font&gt;" style="rounded=0;whiteSpace=wrap;html=1;" vertex="1" parent="FSx_Kl7dEPoFQTnKs3US-1">
          <mxGeometry x="460" y="240" width="60" height="40" as="geometry" />
        </mxCell>
        <mxCell id="FSx_Kl7dEPoFQTnKs3US-30" value="&lt;font style=&quot;font-size: 16px;&quot;&gt;23&lt;/font&gt;" style="text;html=1;align=center;verticalAlign=middle;whiteSpace=wrap;rounded=0;" vertex="1" parent="FSx_Kl7dEPoFQTnKs3US-1">
          <mxGeometry x="210" y="320" width="60" height="40" as="geometry" />
        </mxCell>
        <mxCell id="FSx_Kl7dEPoFQTnKs3US-31" value="" style="endArrow=classic;html=1;rounded=0;exitX=1;exitY=0.5;exitDx=0;exitDy=0;" edge="1" parent="FSx_Kl7dEPoFQTnKs3US-1" target="FSx_Kl7dEPoFQTnKs3US-32">
          <mxGeometry width="50" height="50" relative="1" as="geometry">
            <mxPoint x="410" y="460" as="sourcePoint" />
            <mxPoint x="460" y="460" as="targetPoint" />
          </mxGeometry>
        </mxCell>
        <mxCell id="FSx_Kl7dEPoFQTnKs3US-32" value="&lt;font style=&quot;font-size: 16px;&quot;&gt;40&lt;/font&gt;" style="rounded=0;whiteSpace=wrap;html=1;" vertex="1" parent="FSx_Kl7dEPoFQTnKs3US-1">
          <mxGeometry x="460" y="440" width="60" height="40" as="geometry" />
        </mxCell>
        <mxCell id="FSx_Kl7dEPoFQTnKs3US-33" value="" style="endArrow=classic;html=1;rounded=0;" edge="1" parent="FSx_Kl7dEPoFQTnKs3US-1" target="FSx_Kl7dEPoFQTnKs3US-34">
          <mxGeometry width="50" height="50" relative="1" as="geometry">
            <mxPoint x="300" y="340" as="sourcePoint" />
            <mxPoint x="350" y="340" as="targetPoint" />
          </mxGeometry>
        </mxCell>
        <mxCell id="FSx_Kl7dEPoFQTnKs3US-34" value="&lt;font style=&quot;font-size: 16px;&quot;&gt;15&lt;/font&gt;" style="rounded=0;whiteSpace=wrap;html=1;" vertex="1" parent="FSx_Kl7dEPoFQTnKs3US-1">
          <mxGeometry x="350" y="320" width="60" height="40" as="geometry" />
        </mxCell>
        <mxCell id="FSx_Kl7dEPoFQTnKs3US-35" value="&lt;font style=&quot;font-size: 16px;&quot;&gt;18&lt;/font&gt;" style="text;html=1;align=center;verticalAlign=middle;whiteSpace=wrap;rounded=0;" vertex="1" parent="FSx_Kl7dEPoFQTnKs3US-1">
          <mxGeometry x="210" y="400" width="60" height="40" as="geometry" />
        </mxCell>
        <mxCell id="aG8TBDL1DAF-q-JupaVe-0" value="&lt;div&gt;Aux&lt;/div&gt;" style="text;html=1;align=center;verticalAlign=middle;whiteSpace=wrap;rounded=0;" vertex="1" parent="FSx_Kl7dEPoFQTnKs3US-1">
          <mxGeometry x="350" y="160" width="60" height="30" as="geometry" />
        </mxCell>
        <mxCell id="aG8TBDL1DAF-q-JupaVe-1" value="" style="endArrow=classic;html=1;rounded=0;exitX=0.5;exitY=1;exitDx=0;exitDy=0;entryX=0.5;entryY=0;entryDx=0;entryDy=0;" edge="1" parent="FSx_Kl7dEPoFQTnKs3US-1" source="aG8TBDL1DAF-q-JupaVe-0" target="FSx_Kl7dEPoFQTnKs3US-27">
          <mxGeometry width="50" height="50" relative="1" as="geometry">
            <mxPoint x="400" y="300" as="sourcePoint" />
            <mxPoint x="450" y="250" as="targetPoint" />
          </mxGeometry>
        </mxCell>
      </root>
    </mxGraphModel>
  </diagram>
  <diagram name="E-13" id="DR2WUQP07JTq0wD9zAPR">
    <mxGraphModel dx="1434" dy="750" grid="1" gridSize="10" guides="1" tooltips="1" connect="1" arrows="1" fold="1" page="1" pageScale="1" pageWidth="850" pageHeight="1100" math="0" shadow="0">
      <root>
        <mxCell id="_eJhMtL4oDIiZgLyTH32-0" />
        <mxCell id="_eJhMtL4oDIiZgLyTH32-1" parent="_eJhMtL4oDIiZgLyTH32-0" />
        <mxCell id="_eJhMtL4oDIiZgLyTH32-2" value="" style="rounded=0;whiteSpace=wrap;html=1;" vertex="1" parent="_eJhMtL4oDIiZgLyTH32-1">
          <mxGeometry x="180" y="240" width="120" height="40" as="geometry" />
        </mxCell>
        <mxCell id="_eJhMtL4oDIiZgLyTH32-3" value="" style="rounded=0;whiteSpace=wrap;html=1;" vertex="1" parent="_eJhMtL4oDIiZgLyTH32-1">
          <mxGeometry x="180" y="280" width="120" height="40" as="geometry" />
        </mxCell>
        <mxCell id="_eJhMtL4oDIiZgLyTH32-4" value="" style="rounded=0;whiteSpace=wrap;html=1;" vertex="1" parent="_eJhMtL4oDIiZgLyTH32-1">
          <mxGeometry x="180" y="320" width="120" height="40" as="geometry" />
        </mxCell>
        <mxCell id="_eJhMtL4oDIiZgLyTH32-5" value="" style="rounded=0;whiteSpace=wrap;html=1;" vertex="1" parent="_eJhMtL4oDIiZgLyTH32-1">
          <mxGeometry x="180" y="360" width="120" height="40" as="geometry" />
        </mxCell>
        <mxCell id="_eJhMtL4oDIiZgLyTH32-6" value="" style="rounded=0;whiteSpace=wrap;html=1;" vertex="1" parent="_eJhMtL4oDIiZgLyTH32-1">
          <mxGeometry x="180" y="400" width="120" height="40" as="geometry" />
        </mxCell>
        <mxCell id="_eJhMtL4oDIiZgLyTH32-7" value="" style="rounded=0;whiteSpace=wrap;html=1;" vertex="1" parent="_eJhMtL4oDIiZgLyTH32-1">
          <mxGeometry x="180" y="440" width="120" height="40" as="geometry" />
        </mxCell>
        <mxCell id="_eJhMtL4oDIiZgLyTH32-8" value="" style="rounded=0;whiteSpace=wrap;html=1;" vertex="1" parent="_eJhMtL4oDIiZgLyTH32-1">
          <mxGeometry x="180" y="480" width="120" height="40" as="geometry" />
        </mxCell>
        <mxCell id="_eJhMtL4oDIiZgLyTH32-9" value="&lt;font style=&quot;font-size: 15px;&quot;&gt;Tamanho = 7&lt;/font&gt;" style="rounded=0;whiteSpace=wrap;html=1;" vertex="1" parent="_eJhMtL4oDIiZgLyTH32-1">
          <mxGeometry x="510" y="40" width="120" height="60" as="geometry" />
        </mxCell>
        <mxCell id="_eJhMtL4oDIiZgLyTH32-10" value="&lt;font style=&quot;font-size: 15px;&quot;&gt;H(k) = k % tamanho&lt;/font&gt;" style="rounded=0;whiteSpace=wrap;html=1;" vertex="1" parent="_eJhMtL4oDIiZgLyTH32-1">
          <mxGeometry x="660" y="40" width="150" height="60" as="geometry" />
        </mxCell>
        <mxCell id="_eJhMtL4oDIiZgLyTH32-11" value="&lt;font style=&quot;font-size: 19px;&quot;&gt;0&lt;/font&gt;" style="text;html=1;align=center;verticalAlign=middle;whiteSpace=wrap;rounded=0;" vertex="1" parent="_eJhMtL4oDIiZgLyTH32-1">
          <mxGeometry x="110" y="245" width="60" height="30" as="geometry" />
        </mxCell>
        <mxCell id="_eJhMtL4oDIiZgLyTH32-12" value="&lt;font style=&quot;font-size: 19px;&quot;&gt;1&lt;/font&gt;" style="text;html=1;align=center;verticalAlign=middle;whiteSpace=wrap;rounded=0;" vertex="1" parent="_eJhMtL4oDIiZgLyTH32-1">
          <mxGeometry x="110" y="285" width="60" height="30" as="geometry" />
        </mxCell>
        <mxCell id="_eJhMtL4oDIiZgLyTH32-13" value="&lt;font style=&quot;font-size: 19px;&quot;&gt;2&lt;/font&gt;" style="text;html=1;align=center;verticalAlign=middle;whiteSpace=wrap;rounded=0;" vertex="1" parent="_eJhMtL4oDIiZgLyTH32-1">
          <mxGeometry x="110" y="325" width="60" height="30" as="geometry" />
        </mxCell>
        <mxCell id="_eJhMtL4oDIiZgLyTH32-14" value="&lt;font style=&quot;font-size: 19px;&quot;&gt;3&lt;/font&gt;" style="text;html=1;align=center;verticalAlign=middle;whiteSpace=wrap;rounded=0;" vertex="1" parent="_eJhMtL4oDIiZgLyTH32-1">
          <mxGeometry x="110" y="365" width="60" height="30" as="geometry" />
        </mxCell>
        <mxCell id="_eJhMtL4oDIiZgLyTH32-15" value="&lt;font style=&quot;font-size: 19px;&quot;&gt;4&lt;/font&gt;" style="text;html=1;align=center;verticalAlign=middle;whiteSpace=wrap;rounded=0;" vertex="1" parent="_eJhMtL4oDIiZgLyTH32-1">
          <mxGeometry x="110" y="405" width="60" height="30" as="geometry" />
        </mxCell>
        <mxCell id="_eJhMtL4oDIiZgLyTH32-16" value="&lt;font style=&quot;font-size: 19px;&quot;&gt;5&lt;/font&gt;" style="text;html=1;align=center;verticalAlign=middle;whiteSpace=wrap;rounded=0;" vertex="1" parent="_eJhMtL4oDIiZgLyTH32-1">
          <mxGeometry x="110" y="445" width="60" height="30" as="geometry" />
        </mxCell>
        <mxCell id="_eJhMtL4oDIiZgLyTH32-17" value="&lt;font style=&quot;font-size: 19px;&quot;&gt;6&lt;/font&gt;" style="text;html=1;align=center;verticalAlign=middle;whiteSpace=wrap;rounded=0;" vertex="1" parent="_eJhMtL4oDIiZgLyTH32-1">
          <mxGeometry x="110" y="485" width="60" height="30" as="geometry" />
        </mxCell>
        <mxCell id="_eJhMtL4oDIiZgLyTH32-18" value="&lt;div&gt;&lt;font style=&quot;font-size: 16px;&quot;&gt;Remover 14&lt;/font&gt;&lt;/div&gt;" style="rounded=0;whiteSpace=wrap;html=1;" vertex="1" parent="_eJhMtL4oDIiZgLyTH32-1">
          <mxGeometry x="580" y="120" width="120" height="60" as="geometry" />
        </mxCell>
        <mxCell id="_eJhMtL4oDIiZgLyTH32-19" value="&lt;font style=&quot;font-size: 16px;&quot;&gt;12&lt;/font&gt;" style="text;html=1;align=center;verticalAlign=middle;whiteSpace=wrap;rounded=0;" vertex="1" parent="_eJhMtL4oDIiZgLyTH32-1">
          <mxGeometry x="210" y="440" width="60" height="40" as="geometry" />
        </mxCell>
        <mxCell id="_eJhMtL4oDIiZgLyTH32-20" value="&lt;font style=&quot;font-size: 16px;&quot;&gt;10&lt;/font&gt;" style="text;html=1;align=center;verticalAlign=middle;whiteSpace=wrap;rounded=0;" vertex="1" parent="_eJhMtL4oDIiZgLyTH32-1">
          <mxGeometry x="210" y="360" width="60" height="40" as="geometry" />
        </mxCell>
        <mxCell id="_eJhMtL4oDIiZgLyTH32-21" value="" style="endArrow=classic;html=1;rounded=0;exitX=1;exitY=0.5;exitDx=0;exitDy=0;" edge="1" parent="_eJhMtL4oDIiZgLyTH32-1" target="_eJhMtL4oDIiZgLyTH32-22">
          <mxGeometry width="50" height="50" relative="1" as="geometry">
            <mxPoint x="300" y="460" as="sourcePoint" />
            <mxPoint x="350" y="460" as="targetPoint" />
          </mxGeometry>
        </mxCell>
        <mxCell id="_eJhMtL4oDIiZgLyTH32-22" value="&lt;font style=&quot;font-size: 16px;&quot;&gt;19&lt;/font&gt;" style="rounded=0;whiteSpace=wrap;html=1;" vertex="1" parent="_eJhMtL4oDIiZgLyTH32-1">
          <mxGeometry x="350" y="440" width="60" height="40" as="geometry" />
        </mxCell>
        <mxCell id="_eJhMtL4oDIiZgLyTH32-23" value="" style="endArrow=classic;html=1;rounded=0;" edge="1" parent="_eJhMtL4oDIiZgLyTH32-1" target="_eJhMtL4oDIiZgLyTH32-24">
          <mxGeometry width="50" height="50" relative="1" as="geometry">
            <mxPoint x="300" y="380" as="sourcePoint" />
            <mxPoint x="350" y="380" as="targetPoint" />
          </mxGeometry>
        </mxCell>
        <mxCell id="_eJhMtL4oDIiZgLyTH32-24" value="&lt;font style=&quot;font-size: 16px;&quot;&gt;17&lt;/font&gt;" style="rounded=0;whiteSpace=wrap;html=1;" vertex="1" parent="_eJhMtL4oDIiZgLyTH32-1">
          <mxGeometry x="350" y="360" width="60" height="40" as="geometry" />
        </mxCell>
        <mxCell id="_eJhMtL4oDIiZgLyTH32-25" value="&lt;font style=&quot;font-size: 17px;&quot;&gt;56&lt;/font&gt;" style="text;html=1;align=center;verticalAlign=middle;whiteSpace=wrap;rounded=0;" vertex="1" parent="_eJhMtL4oDIiZgLyTH32-1">
          <mxGeometry x="210" y="240" width="60" height="40" as="geometry" />
        </mxCell>
        <mxCell id="_eJhMtL4oDIiZgLyTH32-26" value="" style="endArrow=classic;html=1;rounded=0;entryX=0.5;entryY=1;entryDx=0;entryDy=0;" edge="1" parent="_eJhMtL4oDIiZgLyTH32-1" target="_eJhMtL4oDIiZgLyTH32-29">
          <mxGeometry width="50" height="50" relative="1" as="geometry">
            <mxPoint x="300" y="260" as="sourcePoint" />
            <mxPoint x="350" y="260" as="targetPoint" />
            <Array as="points">
              <mxPoint x="330" y="260" />
              <mxPoint x="330" y="300" />
              <mxPoint x="380" y="300" />
              <mxPoint x="490" y="300" />
            </Array>
          </mxGeometry>
        </mxCell>
        <mxCell id="_eJhMtL4oDIiZgLyTH32-27" value="&lt;font style=&quot;font-size: 16px;&quot;&gt;14&lt;/font&gt;" style="rounded=0;whiteSpace=wrap;html=1;" vertex="1" parent="_eJhMtL4oDIiZgLyTH32-1">
          <mxGeometry x="350" y="240" width="60" height="40" as="geometry" />
        </mxCell>
        <mxCell id="_eJhMtL4oDIiZgLyTH32-28" value="" style="endArrow=classic;html=1;rounded=0;" edge="1" parent="_eJhMtL4oDIiZgLyTH32-1" target="_eJhMtL4oDIiZgLyTH32-29">
          <mxGeometry width="50" height="50" relative="1" as="geometry">
            <mxPoint x="410" y="260" as="sourcePoint" />
            <mxPoint x="460" y="260" as="targetPoint" />
          </mxGeometry>
        </mxCell>
        <mxCell id="_eJhMtL4oDIiZgLyTH32-29" value="&lt;font style=&quot;font-size: 16px;&quot;&gt;49&lt;/font&gt;" style="rounded=0;whiteSpace=wrap;html=1;" vertex="1" parent="_eJhMtL4oDIiZgLyTH32-1">
          <mxGeometry x="460" y="240" width="60" height="40" as="geometry" />
        </mxCell>
        <mxCell id="_eJhMtL4oDIiZgLyTH32-30" value="&lt;font style=&quot;font-size: 16px;&quot;&gt;23&lt;/font&gt;" style="text;html=1;align=center;verticalAlign=middle;whiteSpace=wrap;rounded=0;" vertex="1" parent="_eJhMtL4oDIiZgLyTH32-1">
          <mxGeometry x="210" y="320" width="60" height="40" as="geometry" />
        </mxCell>
        <mxCell id="_eJhMtL4oDIiZgLyTH32-31" value="" style="endArrow=classic;html=1;rounded=0;exitX=1;exitY=0.5;exitDx=0;exitDy=0;" edge="1" parent="_eJhMtL4oDIiZgLyTH32-1" target="_eJhMtL4oDIiZgLyTH32-32">
          <mxGeometry width="50" height="50" relative="1" as="geometry">
            <mxPoint x="410" y="460" as="sourcePoint" />
            <mxPoint x="460" y="460" as="targetPoint" />
          </mxGeometry>
        </mxCell>
        <mxCell id="_eJhMtL4oDIiZgLyTH32-32" value="&lt;font style=&quot;font-size: 16px;&quot;&gt;40&lt;/font&gt;" style="rounded=0;whiteSpace=wrap;html=1;" vertex="1" parent="_eJhMtL4oDIiZgLyTH32-1">
          <mxGeometry x="460" y="440" width="60" height="40" as="geometry" />
        </mxCell>
        <mxCell id="_eJhMtL4oDIiZgLyTH32-33" value="" style="endArrow=classic;html=1;rounded=0;" edge="1" parent="_eJhMtL4oDIiZgLyTH32-1" target="_eJhMtL4oDIiZgLyTH32-34">
          <mxGeometry width="50" height="50" relative="1" as="geometry">
            <mxPoint x="300" y="340" as="sourcePoint" />
            <mxPoint x="350" y="340" as="targetPoint" />
          </mxGeometry>
        </mxCell>
        <mxCell id="_eJhMtL4oDIiZgLyTH32-34" value="&lt;font style=&quot;font-size: 16px;&quot;&gt;15&lt;/font&gt;" style="rounded=0;whiteSpace=wrap;html=1;" vertex="1" parent="_eJhMtL4oDIiZgLyTH32-1">
          <mxGeometry x="350" y="320" width="60" height="40" as="geometry" />
        </mxCell>
        <mxCell id="_eJhMtL4oDIiZgLyTH32-35" value="&lt;font style=&quot;font-size: 16px;&quot;&gt;18&lt;/font&gt;" style="text;html=1;align=center;verticalAlign=middle;whiteSpace=wrap;rounded=0;" vertex="1" parent="_eJhMtL4oDIiZgLyTH32-1">
          <mxGeometry x="210" y="400" width="60" height="40" as="geometry" />
        </mxCell>
        <mxCell id="_eJhMtL4oDIiZgLyTH32-36" value="&lt;div&gt;Aux&lt;/div&gt;" style="text;html=1;align=center;verticalAlign=middle;whiteSpace=wrap;rounded=0;" vertex="1" parent="_eJhMtL4oDIiZgLyTH32-1">
          <mxGeometry x="350" y="160" width="60" height="30" as="geometry" />
        </mxCell>
        <mxCell id="_eJhMtL4oDIiZgLyTH32-37" value="" style="endArrow=classic;html=1;rounded=0;exitX=0.5;exitY=1;exitDx=0;exitDy=0;entryX=0.5;entryY=0;entryDx=0;entryDy=0;" edge="1" parent="_eJhMtL4oDIiZgLyTH32-1" source="_eJhMtL4oDIiZgLyTH32-36" target="_eJhMtL4oDIiZgLyTH32-27">
          <mxGeometry width="50" height="50" relative="1" as="geometry">
            <mxPoint x="400" y="300" as="sourcePoint" />
            <mxPoint x="450" y="250" as="targetPoint" />
          </mxGeometry>
        </mxCell>
      </root>
    </mxGraphModel>
  </diagram>
  <diagram name="E-14" id="gS3jb-zbqRzdkym3_1hs">
    <mxGraphModel dx="1434" dy="750" grid="1" gridSize="10" guides="1" tooltips="1" connect="1" arrows="1" fold="1" page="1" pageScale="1" pageWidth="850" pageHeight="1100" math="0" shadow="0">
      <root>
        <mxCell id="Kldl37v1WjQgHRRAF7F6-0" />
        <mxCell id="Kldl37v1WjQgHRRAF7F6-1" parent="Kldl37v1WjQgHRRAF7F6-0" />
        <mxCell id="Kldl37v1WjQgHRRAF7F6-2" value="" style="rounded=0;whiteSpace=wrap;html=1;" vertex="1" parent="Kldl37v1WjQgHRRAF7F6-1">
          <mxGeometry x="180" y="240" width="120" height="40" as="geometry" />
        </mxCell>
        <mxCell id="Kldl37v1WjQgHRRAF7F6-3" value="" style="rounded=0;whiteSpace=wrap;html=1;" vertex="1" parent="Kldl37v1WjQgHRRAF7F6-1">
          <mxGeometry x="180" y="280" width="120" height="40" as="geometry" />
        </mxCell>
        <mxCell id="Kldl37v1WjQgHRRAF7F6-4" value="" style="rounded=0;whiteSpace=wrap;html=1;" vertex="1" parent="Kldl37v1WjQgHRRAF7F6-1">
          <mxGeometry x="180" y="320" width="120" height="40" as="geometry" />
        </mxCell>
        <mxCell id="Kldl37v1WjQgHRRAF7F6-5" value="" style="rounded=0;whiteSpace=wrap;html=1;" vertex="1" parent="Kldl37v1WjQgHRRAF7F6-1">
          <mxGeometry x="180" y="360" width="120" height="40" as="geometry" />
        </mxCell>
        <mxCell id="Kldl37v1WjQgHRRAF7F6-6" value="" style="rounded=0;whiteSpace=wrap;html=1;" vertex="1" parent="Kldl37v1WjQgHRRAF7F6-1">
          <mxGeometry x="180" y="400" width="120" height="40" as="geometry" />
        </mxCell>
        <mxCell id="Kldl37v1WjQgHRRAF7F6-7" value="" style="rounded=0;whiteSpace=wrap;html=1;" vertex="1" parent="Kldl37v1WjQgHRRAF7F6-1">
          <mxGeometry x="180" y="440" width="120" height="40" as="geometry" />
        </mxCell>
        <mxCell id="Kldl37v1WjQgHRRAF7F6-8" value="" style="rounded=0;whiteSpace=wrap;html=1;" vertex="1" parent="Kldl37v1WjQgHRRAF7F6-1">
          <mxGeometry x="180" y="480" width="120" height="40" as="geometry" />
        </mxCell>
        <mxCell id="Kldl37v1WjQgHRRAF7F6-9" value="&lt;font style=&quot;font-size: 15px;&quot;&gt;Tamanho = 7&lt;/font&gt;" style="rounded=0;whiteSpace=wrap;html=1;" vertex="1" parent="Kldl37v1WjQgHRRAF7F6-1">
          <mxGeometry x="510" y="40" width="120" height="60" as="geometry" />
        </mxCell>
        <mxCell id="Kldl37v1WjQgHRRAF7F6-10" value="&lt;font style=&quot;font-size: 15px;&quot;&gt;H(k) = k % tamanho&lt;/font&gt;" style="rounded=0;whiteSpace=wrap;html=1;" vertex="1" parent="Kldl37v1WjQgHRRAF7F6-1">
          <mxGeometry x="660" y="40" width="150" height="60" as="geometry" />
        </mxCell>
        <mxCell id="Kldl37v1WjQgHRRAF7F6-11" value="&lt;font style=&quot;font-size: 19px;&quot;&gt;0&lt;/font&gt;" style="text;html=1;align=center;verticalAlign=middle;whiteSpace=wrap;rounded=0;" vertex="1" parent="Kldl37v1WjQgHRRAF7F6-1">
          <mxGeometry x="110" y="245" width="60" height="30" as="geometry" />
        </mxCell>
        <mxCell id="Kldl37v1WjQgHRRAF7F6-12" value="&lt;font style=&quot;font-size: 19px;&quot;&gt;1&lt;/font&gt;" style="text;html=1;align=center;verticalAlign=middle;whiteSpace=wrap;rounded=0;" vertex="1" parent="Kldl37v1WjQgHRRAF7F6-1">
          <mxGeometry x="110" y="285" width="60" height="30" as="geometry" />
        </mxCell>
        <mxCell id="Kldl37v1WjQgHRRAF7F6-13" value="&lt;font style=&quot;font-size: 19px;&quot;&gt;2&lt;/font&gt;" style="text;html=1;align=center;verticalAlign=middle;whiteSpace=wrap;rounded=0;" vertex="1" parent="Kldl37v1WjQgHRRAF7F6-1">
          <mxGeometry x="110" y="325" width="60" height="30" as="geometry" />
        </mxCell>
        <mxCell id="Kldl37v1WjQgHRRAF7F6-14" value="&lt;font style=&quot;font-size: 19px;&quot;&gt;3&lt;/font&gt;" style="text;html=1;align=center;verticalAlign=middle;whiteSpace=wrap;rounded=0;" vertex="1" parent="Kldl37v1WjQgHRRAF7F6-1">
          <mxGeometry x="110" y="365" width="60" height="30" as="geometry" />
        </mxCell>
        <mxCell id="Kldl37v1WjQgHRRAF7F6-15" value="&lt;font style=&quot;font-size: 19px;&quot;&gt;4&lt;/font&gt;" style="text;html=1;align=center;verticalAlign=middle;whiteSpace=wrap;rounded=0;" vertex="1" parent="Kldl37v1WjQgHRRAF7F6-1">
          <mxGeometry x="110" y="405" width="60" height="30" as="geometry" />
        </mxCell>
        <mxCell id="Kldl37v1WjQgHRRAF7F6-16" value="&lt;font style=&quot;font-size: 19px;&quot;&gt;5&lt;/font&gt;" style="text;html=1;align=center;verticalAlign=middle;whiteSpace=wrap;rounded=0;" vertex="1" parent="Kldl37v1WjQgHRRAF7F6-1">
          <mxGeometry x="110" y="445" width="60" height="30" as="geometry" />
        </mxCell>
        <mxCell id="Kldl37v1WjQgHRRAF7F6-17" value="&lt;font style=&quot;font-size: 19px;&quot;&gt;6&lt;/font&gt;" style="text;html=1;align=center;verticalAlign=middle;whiteSpace=wrap;rounded=0;" vertex="1" parent="Kldl37v1WjQgHRRAF7F6-1">
          <mxGeometry x="110" y="485" width="60" height="30" as="geometry" />
        </mxCell>
        <mxCell id="Kldl37v1WjQgHRRAF7F6-18" value="&lt;div&gt;&lt;font style=&quot;font-size: 16px;&quot;&gt;Remover 14&lt;/font&gt;&lt;/div&gt;" style="rounded=0;whiteSpace=wrap;html=1;" vertex="1" parent="Kldl37v1WjQgHRRAF7F6-1">
          <mxGeometry x="580" y="120" width="120" height="60" as="geometry" />
        </mxCell>
        <mxCell id="Kldl37v1WjQgHRRAF7F6-19" value="&lt;font style=&quot;font-size: 16px;&quot;&gt;12&lt;/font&gt;" style="text;html=1;align=center;verticalAlign=middle;whiteSpace=wrap;rounded=0;" vertex="1" parent="Kldl37v1WjQgHRRAF7F6-1">
          <mxGeometry x="210" y="440" width="60" height="40" as="geometry" />
        </mxCell>
        <mxCell id="Kldl37v1WjQgHRRAF7F6-20" value="&lt;font style=&quot;font-size: 16px;&quot;&gt;10&lt;/font&gt;" style="text;html=1;align=center;verticalAlign=middle;whiteSpace=wrap;rounded=0;" vertex="1" parent="Kldl37v1WjQgHRRAF7F6-1">
          <mxGeometry x="210" y="360" width="60" height="40" as="geometry" />
        </mxCell>
        <mxCell id="Kldl37v1WjQgHRRAF7F6-21" value="" style="endArrow=classic;html=1;rounded=0;exitX=1;exitY=0.5;exitDx=0;exitDy=0;" edge="1" parent="Kldl37v1WjQgHRRAF7F6-1" target="Kldl37v1WjQgHRRAF7F6-22">
          <mxGeometry width="50" height="50" relative="1" as="geometry">
            <mxPoint x="300" y="460" as="sourcePoint" />
            <mxPoint x="350" y="460" as="targetPoint" />
          </mxGeometry>
        </mxCell>
        <mxCell id="Kldl37v1WjQgHRRAF7F6-22" value="&lt;font style=&quot;font-size: 16px;&quot;&gt;19&lt;/font&gt;" style="rounded=0;whiteSpace=wrap;html=1;" vertex="1" parent="Kldl37v1WjQgHRRAF7F6-1">
          <mxGeometry x="350" y="440" width="60" height="40" as="geometry" />
        </mxCell>
        <mxCell id="Kldl37v1WjQgHRRAF7F6-23" value="" style="endArrow=classic;html=1;rounded=0;" edge="1" parent="Kldl37v1WjQgHRRAF7F6-1" target="Kldl37v1WjQgHRRAF7F6-24">
          <mxGeometry width="50" height="50" relative="1" as="geometry">
            <mxPoint x="300" y="380" as="sourcePoint" />
            <mxPoint x="350" y="380" as="targetPoint" />
          </mxGeometry>
        </mxCell>
        <mxCell id="Kldl37v1WjQgHRRAF7F6-24" value="&lt;font style=&quot;font-size: 16px;&quot;&gt;17&lt;/font&gt;" style="rounded=0;whiteSpace=wrap;html=1;" vertex="1" parent="Kldl37v1WjQgHRRAF7F6-1">
          <mxGeometry x="350" y="360" width="60" height="40" as="geometry" />
        </mxCell>
        <mxCell id="Kldl37v1WjQgHRRAF7F6-25" value="&lt;font style=&quot;font-size: 17px;&quot;&gt;56&lt;/font&gt;" style="text;html=1;align=center;verticalAlign=middle;whiteSpace=wrap;rounded=0;" vertex="1" parent="Kldl37v1WjQgHRRAF7F6-1">
          <mxGeometry x="210" y="240" width="60" height="40" as="geometry" />
        </mxCell>
        <mxCell id="Kldl37v1WjQgHRRAF7F6-26" value="" style="endArrow=classic;html=1;rounded=0;entryX=0.5;entryY=1;entryDx=0;entryDy=0;" edge="1" parent="Kldl37v1WjQgHRRAF7F6-1" target="Kldl37v1WjQgHRRAF7F6-29">
          <mxGeometry width="50" height="50" relative="1" as="geometry">
            <mxPoint x="300" y="260" as="sourcePoint" />
            <mxPoint x="350" y="260" as="targetPoint" />
            <Array as="points">
              <mxPoint x="330" y="260" />
              <mxPoint x="330" y="300" />
              <mxPoint x="380" y="300" />
              <mxPoint x="490" y="300" />
            </Array>
          </mxGeometry>
        </mxCell>
        <mxCell id="Kldl37v1WjQgHRRAF7F6-27" value="&lt;font style=&quot;font-size: 16px;&quot;&gt;14&lt;/font&gt;" style="rounded=0;whiteSpace=wrap;html=1;" vertex="1" parent="Kldl37v1WjQgHRRAF7F6-1">
          <mxGeometry x="350" y="240" width="60" height="40" as="geometry" />
        </mxCell>
        <mxCell id="Kldl37v1WjQgHRRAF7F6-28" value="" style="endArrow=classic;html=1;rounded=0;" edge="1" parent="Kldl37v1WjQgHRRAF7F6-1" target="Kldl37v1WjQgHRRAF7F6-29">
          <mxGeometry width="50" height="50" relative="1" as="geometry">
            <mxPoint x="410" y="260" as="sourcePoint" />
            <mxPoint x="460" y="260" as="targetPoint" />
          </mxGeometry>
        </mxCell>
        <mxCell id="Kldl37v1WjQgHRRAF7F6-29" value="&lt;font style=&quot;font-size: 16px;&quot;&gt;49&lt;/font&gt;" style="rounded=0;whiteSpace=wrap;html=1;" vertex="1" parent="Kldl37v1WjQgHRRAF7F6-1">
          <mxGeometry x="460" y="240" width="60" height="40" as="geometry" />
        </mxCell>
        <mxCell id="Kldl37v1WjQgHRRAF7F6-30" value="&lt;font style=&quot;font-size: 16px;&quot;&gt;23&lt;/font&gt;" style="text;html=1;align=center;verticalAlign=middle;whiteSpace=wrap;rounded=0;" vertex="1" parent="Kldl37v1WjQgHRRAF7F6-1">
          <mxGeometry x="210" y="320" width="60" height="40" as="geometry" />
        </mxCell>
        <mxCell id="Kldl37v1WjQgHRRAF7F6-31" value="" style="endArrow=classic;html=1;rounded=0;exitX=1;exitY=0.5;exitDx=0;exitDy=0;" edge="1" parent="Kldl37v1WjQgHRRAF7F6-1" target="Kldl37v1WjQgHRRAF7F6-32">
          <mxGeometry width="50" height="50" relative="1" as="geometry">
            <mxPoint x="410" y="460" as="sourcePoint" />
            <mxPoint x="460" y="460" as="targetPoint" />
          </mxGeometry>
        </mxCell>
        <mxCell id="Kldl37v1WjQgHRRAF7F6-32" value="&lt;font style=&quot;font-size: 16px;&quot;&gt;40&lt;/font&gt;" style="rounded=0;whiteSpace=wrap;html=1;" vertex="1" parent="Kldl37v1WjQgHRRAF7F6-1">
          <mxGeometry x="460" y="440" width="60" height="40" as="geometry" />
        </mxCell>
        <mxCell id="Kldl37v1WjQgHRRAF7F6-33" value="" style="endArrow=classic;html=1;rounded=0;" edge="1" parent="Kldl37v1WjQgHRRAF7F6-1" target="Kldl37v1WjQgHRRAF7F6-34">
          <mxGeometry width="50" height="50" relative="1" as="geometry">
            <mxPoint x="300" y="340" as="sourcePoint" />
            <mxPoint x="350" y="340" as="targetPoint" />
          </mxGeometry>
        </mxCell>
        <mxCell id="Kldl37v1WjQgHRRAF7F6-34" value="&lt;font style=&quot;font-size: 16px;&quot;&gt;15&lt;/font&gt;" style="rounded=0;whiteSpace=wrap;html=1;" vertex="1" parent="Kldl37v1WjQgHRRAF7F6-1">
          <mxGeometry x="350" y="320" width="60" height="40" as="geometry" />
        </mxCell>
        <mxCell id="Kldl37v1WjQgHRRAF7F6-35" value="&lt;font style=&quot;font-size: 16px;&quot;&gt;18&lt;/font&gt;" style="text;html=1;align=center;verticalAlign=middle;whiteSpace=wrap;rounded=0;" vertex="1" parent="Kldl37v1WjQgHRRAF7F6-1">
          <mxGeometry x="210" y="400" width="60" height="40" as="geometry" />
        </mxCell>
        <mxCell id="Kldl37v1WjQgHRRAF7F6-36" value="&lt;div&gt;Aux&lt;/div&gt;" style="text;html=1;align=center;verticalAlign=middle;whiteSpace=wrap;rounded=0;" vertex="1" parent="Kldl37v1WjQgHRRAF7F6-1">
          <mxGeometry x="350" y="160" width="60" height="30" as="geometry" />
        </mxCell>
        <mxCell id="Kldl37v1WjQgHRRAF7F6-37" value="" style="endArrow=classic;html=1;rounded=0;exitX=0.5;exitY=1;exitDx=0;exitDy=0;entryX=0.5;entryY=0;entryDx=0;entryDy=0;" edge="1" parent="Kldl37v1WjQgHRRAF7F6-1" source="Kldl37v1WjQgHRRAF7F6-36" target="Kldl37v1WjQgHRRAF7F6-27">
          <mxGeometry width="50" height="50" relative="1" as="geometry">
            <mxPoint x="400" y="300" as="sourcePoint" />
            <mxPoint x="450" y="250" as="targetPoint" />
          </mxGeometry>
        </mxCell>
        <mxCell id="xnnKXhqlTkA2Idz4MFY_-0" value="" style="shape=cross;whiteSpace=wrap;html=1;rotation=45;size=0.2154318660014989;fillColor=#ffcccc;strokeColor=#36393d;" vertex="1" parent="Kldl37v1WjQgHRRAF7F6-1">
          <mxGeometry x="350" y="230" width="60" height="60" as="geometry" />
        </mxCell>
      </root>
    </mxGraphModel>
  </diagram>
  <diagram name="E-15" id="JQhq7z3EVUtGDbWo7kvS">
    <mxGraphModel dx="1434" dy="750" grid="1" gridSize="10" guides="1" tooltips="1" connect="1" arrows="1" fold="1" page="1" pageScale="1" pageWidth="850" pageHeight="1100" math="0" shadow="0">
      <root>
        <mxCell id="XaaToVOStCBtOUQ5gk88-0" />
        <mxCell id="XaaToVOStCBtOUQ5gk88-1" parent="XaaToVOStCBtOUQ5gk88-0" />
        <mxCell id="XaaToVOStCBtOUQ5gk88-2" value="" style="rounded=0;whiteSpace=wrap;html=1;" vertex="1" parent="XaaToVOStCBtOUQ5gk88-1">
          <mxGeometry x="180" y="240" width="120" height="40" as="geometry" />
        </mxCell>
        <mxCell id="XaaToVOStCBtOUQ5gk88-3" value="" style="rounded=0;whiteSpace=wrap;html=1;" vertex="1" parent="XaaToVOStCBtOUQ5gk88-1">
          <mxGeometry x="180" y="280" width="120" height="40" as="geometry" />
        </mxCell>
        <mxCell id="XaaToVOStCBtOUQ5gk88-4" value="" style="rounded=0;whiteSpace=wrap;html=1;" vertex="1" parent="XaaToVOStCBtOUQ5gk88-1">
          <mxGeometry x="180" y="320" width="120" height="40" as="geometry" />
        </mxCell>
        <mxCell id="XaaToVOStCBtOUQ5gk88-5" value="" style="rounded=0;whiteSpace=wrap;html=1;" vertex="1" parent="XaaToVOStCBtOUQ5gk88-1">
          <mxGeometry x="180" y="360" width="120" height="40" as="geometry" />
        </mxCell>
        <mxCell id="XaaToVOStCBtOUQ5gk88-6" value="" style="rounded=0;whiteSpace=wrap;html=1;" vertex="1" parent="XaaToVOStCBtOUQ5gk88-1">
          <mxGeometry x="180" y="400" width="120" height="40" as="geometry" />
        </mxCell>
        <mxCell id="XaaToVOStCBtOUQ5gk88-7" value="" style="rounded=0;whiteSpace=wrap;html=1;" vertex="1" parent="XaaToVOStCBtOUQ5gk88-1">
          <mxGeometry x="180" y="440" width="120" height="40" as="geometry" />
        </mxCell>
        <mxCell id="XaaToVOStCBtOUQ5gk88-8" value="" style="rounded=0;whiteSpace=wrap;html=1;" vertex="1" parent="XaaToVOStCBtOUQ5gk88-1">
          <mxGeometry x="180" y="480" width="120" height="40" as="geometry" />
        </mxCell>
        <mxCell id="XaaToVOStCBtOUQ5gk88-9" value="&lt;font style=&quot;font-size: 15px;&quot;&gt;Tamanho = 7&lt;/font&gt;" style="rounded=0;whiteSpace=wrap;html=1;" vertex="1" parent="XaaToVOStCBtOUQ5gk88-1">
          <mxGeometry x="510" y="40" width="120" height="60" as="geometry" />
        </mxCell>
        <mxCell id="XaaToVOStCBtOUQ5gk88-10" value="&lt;font style=&quot;font-size: 15px;&quot;&gt;H(k) = k % tamanho&lt;/font&gt;" style="rounded=0;whiteSpace=wrap;html=1;" vertex="1" parent="XaaToVOStCBtOUQ5gk88-1">
          <mxGeometry x="660" y="40" width="150" height="60" as="geometry" />
        </mxCell>
        <mxCell id="XaaToVOStCBtOUQ5gk88-11" value="&lt;font style=&quot;font-size: 19px;&quot;&gt;0&lt;/font&gt;" style="text;html=1;align=center;verticalAlign=middle;whiteSpace=wrap;rounded=0;" vertex="1" parent="XaaToVOStCBtOUQ5gk88-1">
          <mxGeometry x="110" y="245" width="60" height="30" as="geometry" />
        </mxCell>
        <mxCell id="XaaToVOStCBtOUQ5gk88-12" value="&lt;font style=&quot;font-size: 19px;&quot;&gt;1&lt;/font&gt;" style="text;html=1;align=center;verticalAlign=middle;whiteSpace=wrap;rounded=0;" vertex="1" parent="XaaToVOStCBtOUQ5gk88-1">
          <mxGeometry x="110" y="285" width="60" height="30" as="geometry" />
        </mxCell>
        <mxCell id="XaaToVOStCBtOUQ5gk88-13" value="&lt;font style=&quot;font-size: 19px;&quot;&gt;2&lt;/font&gt;" style="text;html=1;align=center;verticalAlign=middle;whiteSpace=wrap;rounded=0;" vertex="1" parent="XaaToVOStCBtOUQ5gk88-1">
          <mxGeometry x="110" y="325" width="60" height="30" as="geometry" />
        </mxCell>
        <mxCell id="XaaToVOStCBtOUQ5gk88-14" value="&lt;font style=&quot;font-size: 19px;&quot;&gt;3&lt;/font&gt;" style="text;html=1;align=center;verticalAlign=middle;whiteSpace=wrap;rounded=0;" vertex="1" parent="XaaToVOStCBtOUQ5gk88-1">
          <mxGeometry x="110" y="365" width="60" height="30" as="geometry" />
        </mxCell>
        <mxCell id="XaaToVOStCBtOUQ5gk88-15" value="&lt;font style=&quot;font-size: 19px;&quot;&gt;4&lt;/font&gt;" style="text;html=1;align=center;verticalAlign=middle;whiteSpace=wrap;rounded=0;" vertex="1" parent="XaaToVOStCBtOUQ5gk88-1">
          <mxGeometry x="110" y="405" width="60" height="30" as="geometry" />
        </mxCell>
        <mxCell id="XaaToVOStCBtOUQ5gk88-16" value="&lt;font style=&quot;font-size: 19px;&quot;&gt;5&lt;/font&gt;" style="text;html=1;align=center;verticalAlign=middle;whiteSpace=wrap;rounded=0;" vertex="1" parent="XaaToVOStCBtOUQ5gk88-1">
          <mxGeometry x="110" y="445" width="60" height="30" as="geometry" />
        </mxCell>
        <mxCell id="XaaToVOStCBtOUQ5gk88-17" value="&lt;font style=&quot;font-size: 19px;&quot;&gt;6&lt;/font&gt;" style="text;html=1;align=center;verticalAlign=middle;whiteSpace=wrap;rounded=0;" vertex="1" parent="XaaToVOStCBtOUQ5gk88-1">
          <mxGeometry x="110" y="485" width="60" height="30" as="geometry" />
        </mxCell>
        <mxCell id="XaaToVOStCBtOUQ5gk88-18" value="&lt;div&gt;&lt;font style=&quot;font-size: 16px;&quot;&gt;Remover 40&lt;/font&gt;&lt;/div&gt;" style="rounded=0;whiteSpace=wrap;html=1;" vertex="1" parent="XaaToVOStCBtOUQ5gk88-1">
          <mxGeometry x="580" y="120" width="120" height="60" as="geometry" />
        </mxCell>
        <mxCell id="XaaToVOStCBtOUQ5gk88-19" value="&lt;font style=&quot;font-size: 16px;&quot;&gt;12&lt;/font&gt;" style="text;html=1;align=center;verticalAlign=middle;whiteSpace=wrap;rounded=0;" vertex="1" parent="XaaToVOStCBtOUQ5gk88-1">
          <mxGeometry x="210" y="440" width="60" height="40" as="geometry" />
        </mxCell>
        <mxCell id="XaaToVOStCBtOUQ5gk88-20" value="&lt;font style=&quot;font-size: 16px;&quot;&gt;10&lt;/font&gt;" style="text;html=1;align=center;verticalAlign=middle;whiteSpace=wrap;rounded=0;" vertex="1" parent="XaaToVOStCBtOUQ5gk88-1">
          <mxGeometry x="210" y="360" width="60" height="40" as="geometry" />
        </mxCell>
        <mxCell id="XaaToVOStCBtOUQ5gk88-21" value="" style="endArrow=classic;html=1;rounded=0;exitX=1;exitY=0.5;exitDx=0;exitDy=0;" edge="1" parent="XaaToVOStCBtOUQ5gk88-1" target="XaaToVOStCBtOUQ5gk88-22">
          <mxGeometry width="50" height="50" relative="1" as="geometry">
            <mxPoint x="300" y="460" as="sourcePoint" />
            <mxPoint x="350" y="460" as="targetPoint" />
          </mxGeometry>
        </mxCell>
        <mxCell id="XaaToVOStCBtOUQ5gk88-22" value="&lt;font style=&quot;font-size: 16px;&quot;&gt;19&lt;/font&gt;" style="rounded=0;whiteSpace=wrap;html=1;" vertex="1" parent="XaaToVOStCBtOUQ5gk88-1">
          <mxGeometry x="350" y="440" width="60" height="40" as="geometry" />
        </mxCell>
        <mxCell id="XaaToVOStCBtOUQ5gk88-23" value="" style="endArrow=classic;html=1;rounded=0;" edge="1" parent="XaaToVOStCBtOUQ5gk88-1" target="XaaToVOStCBtOUQ5gk88-24">
          <mxGeometry width="50" height="50" relative="1" as="geometry">
            <mxPoint x="300" y="380" as="sourcePoint" />
            <mxPoint x="350" y="380" as="targetPoint" />
          </mxGeometry>
        </mxCell>
        <mxCell id="XaaToVOStCBtOUQ5gk88-24" value="&lt;font style=&quot;font-size: 16px;&quot;&gt;17&lt;/font&gt;" style="rounded=0;whiteSpace=wrap;html=1;" vertex="1" parent="XaaToVOStCBtOUQ5gk88-1">
          <mxGeometry x="350" y="360" width="60" height="40" as="geometry" />
        </mxCell>
        <mxCell id="XaaToVOStCBtOUQ5gk88-25" value="&lt;font style=&quot;font-size: 17px;&quot;&gt;56&lt;/font&gt;" style="text;html=1;align=center;verticalAlign=middle;whiteSpace=wrap;rounded=0;" vertex="1" parent="XaaToVOStCBtOUQ5gk88-1">
          <mxGeometry x="210" y="240" width="60" height="40" as="geometry" />
        </mxCell>
        <mxCell id="XaaToVOStCBtOUQ5gk88-26" value="" style="endArrow=classic;html=1;rounded=0;entryX=0;entryY=0.5;entryDx=0;entryDy=0;" edge="1" parent="XaaToVOStCBtOUQ5gk88-1" target="XaaToVOStCBtOUQ5gk88-29">
          <mxGeometry width="50" height="50" relative="1" as="geometry">
            <mxPoint x="300" y="260" as="sourcePoint" />
            <mxPoint x="350" y="260" as="targetPoint" />
            <Array as="points">
              <mxPoint x="330" y="260" />
              <mxPoint x="340" y="260" />
              <mxPoint x="350" y="260" />
            </Array>
          </mxGeometry>
        </mxCell>
        <mxCell id="XaaToVOStCBtOUQ5gk88-29" value="&lt;font style=&quot;font-size: 16px;&quot;&gt;49&lt;/font&gt;" style="rounded=0;whiteSpace=wrap;html=1;" vertex="1" parent="XaaToVOStCBtOUQ5gk88-1">
          <mxGeometry x="350" y="240" width="60" height="40" as="geometry" />
        </mxCell>
        <mxCell id="XaaToVOStCBtOUQ5gk88-30" value="&lt;font style=&quot;font-size: 16px;&quot;&gt;23&lt;/font&gt;" style="text;html=1;align=center;verticalAlign=middle;whiteSpace=wrap;rounded=0;" vertex="1" parent="XaaToVOStCBtOUQ5gk88-1">
          <mxGeometry x="210" y="320" width="60" height="40" as="geometry" />
        </mxCell>
        <mxCell id="XaaToVOStCBtOUQ5gk88-31" value="" style="endArrow=classic;html=1;rounded=0;exitX=1;exitY=0.5;exitDx=0;exitDy=0;" edge="1" parent="XaaToVOStCBtOUQ5gk88-1" target="XaaToVOStCBtOUQ5gk88-32">
          <mxGeometry width="50" height="50" relative="1" as="geometry">
            <mxPoint x="410" y="460" as="sourcePoint" />
            <mxPoint x="460" y="460" as="targetPoint" />
          </mxGeometry>
        </mxCell>
        <mxCell id="XaaToVOStCBtOUQ5gk88-32" value="&lt;font style=&quot;font-size: 16px;&quot;&gt;40&lt;/font&gt;" style="rounded=0;whiteSpace=wrap;html=1;" vertex="1" parent="XaaToVOStCBtOUQ5gk88-1">
          <mxGeometry x="460" y="440" width="60" height="40" as="geometry" />
        </mxCell>
        <mxCell id="XaaToVOStCBtOUQ5gk88-33" value="" style="endArrow=classic;html=1;rounded=0;" edge="1" parent="XaaToVOStCBtOUQ5gk88-1" target="XaaToVOStCBtOUQ5gk88-34">
          <mxGeometry width="50" height="50" relative="1" as="geometry">
            <mxPoint x="300" y="340" as="sourcePoint" />
            <mxPoint x="350" y="340" as="targetPoint" />
          </mxGeometry>
        </mxCell>
        <mxCell id="XaaToVOStCBtOUQ5gk88-34" value="&lt;font style=&quot;font-size: 16px;&quot;&gt;15&lt;/font&gt;" style="rounded=0;whiteSpace=wrap;html=1;" vertex="1" parent="XaaToVOStCBtOUQ5gk88-1">
          <mxGeometry x="350" y="320" width="60" height="40" as="geometry" />
        </mxCell>
        <mxCell id="XaaToVOStCBtOUQ5gk88-35" value="&lt;font style=&quot;font-size: 16px;&quot;&gt;18&lt;/font&gt;" style="text;html=1;align=center;verticalAlign=middle;whiteSpace=wrap;rounded=0;" vertex="1" parent="XaaToVOStCBtOUQ5gk88-1">
          <mxGeometry x="210" y="400" width="60" height="40" as="geometry" />
        </mxCell>
        <mxCell id="9NTB_ALNIsEXauisE9Yw-0" value="&lt;div&gt;Aux&lt;/div&gt;" style="text;html=1;align=center;verticalAlign=middle;whiteSpace=wrap;rounded=0;" vertex="1" parent="XaaToVOStCBtOUQ5gk88-1">
          <mxGeometry x="350" y="515" width="60" height="30" as="geometry" />
        </mxCell>
        <mxCell id="9NTB_ALNIsEXauisE9Yw-1" value="" style="endArrow=classic;html=1;rounded=0;exitX=0.5;exitY=0;exitDx=0;exitDy=0;entryX=0.5;entryY=1;entryDx=0;entryDy=0;" edge="1" parent="XaaToVOStCBtOUQ5gk88-1" source="9NTB_ALNIsEXauisE9Yw-0" target="XaaToVOStCBtOUQ5gk88-22">
          <mxGeometry width="50" height="50" relative="1" as="geometry">
            <mxPoint x="400" y="420" as="sourcePoint" />
            <mxPoint x="450" y="370" as="targetPoint" />
          </mxGeometry>
        </mxCell>
      </root>
    </mxGraphModel>
  </diagram>
  <diagram name="E-16" id="ob_elkdGPV2KYtKad0R_">
    <mxGraphModel dx="1434" dy="750" grid="1" gridSize="10" guides="1" tooltips="1" connect="1" arrows="1" fold="1" page="1" pageScale="1" pageWidth="850" pageHeight="1100" math="0" shadow="0">
      <root>
        <mxCell id="ES8C0Ujds3IzPOJVSV3A-0" />
        <mxCell id="ES8C0Ujds3IzPOJVSV3A-1" parent="ES8C0Ujds3IzPOJVSV3A-0" />
        <mxCell id="ES8C0Ujds3IzPOJVSV3A-2" value="" style="rounded=0;whiteSpace=wrap;html=1;" vertex="1" parent="ES8C0Ujds3IzPOJVSV3A-1">
          <mxGeometry x="180" y="240" width="120" height="40" as="geometry" />
        </mxCell>
        <mxCell id="ES8C0Ujds3IzPOJVSV3A-3" value="" style="rounded=0;whiteSpace=wrap;html=1;" vertex="1" parent="ES8C0Ujds3IzPOJVSV3A-1">
          <mxGeometry x="180" y="280" width="120" height="40" as="geometry" />
        </mxCell>
        <mxCell id="ES8C0Ujds3IzPOJVSV3A-4" value="" style="rounded=0;whiteSpace=wrap;html=1;" vertex="1" parent="ES8C0Ujds3IzPOJVSV3A-1">
          <mxGeometry x="180" y="320" width="120" height="40" as="geometry" />
        </mxCell>
        <mxCell id="ES8C0Ujds3IzPOJVSV3A-5" value="" style="rounded=0;whiteSpace=wrap;html=1;" vertex="1" parent="ES8C0Ujds3IzPOJVSV3A-1">
          <mxGeometry x="180" y="360" width="120" height="40" as="geometry" />
        </mxCell>
        <mxCell id="ES8C0Ujds3IzPOJVSV3A-6" value="" style="rounded=0;whiteSpace=wrap;html=1;" vertex="1" parent="ES8C0Ujds3IzPOJVSV3A-1">
          <mxGeometry x="180" y="400" width="120" height="40" as="geometry" />
        </mxCell>
        <mxCell id="ES8C0Ujds3IzPOJVSV3A-7" value="" style="rounded=0;whiteSpace=wrap;html=1;" vertex="1" parent="ES8C0Ujds3IzPOJVSV3A-1">
          <mxGeometry x="180" y="440" width="120" height="40" as="geometry" />
        </mxCell>
        <mxCell id="ES8C0Ujds3IzPOJVSV3A-8" value="" style="rounded=0;whiteSpace=wrap;html=1;" vertex="1" parent="ES8C0Ujds3IzPOJVSV3A-1">
          <mxGeometry x="180" y="480" width="120" height="40" as="geometry" />
        </mxCell>
        <mxCell id="ES8C0Ujds3IzPOJVSV3A-9" value="&lt;font style=&quot;font-size: 15px;&quot;&gt;Tamanho = 7&lt;/font&gt;" style="rounded=0;whiteSpace=wrap;html=1;" vertex="1" parent="ES8C0Ujds3IzPOJVSV3A-1">
          <mxGeometry x="510" y="40" width="120" height="60" as="geometry" />
        </mxCell>
        <mxCell id="ES8C0Ujds3IzPOJVSV3A-10" value="&lt;font style=&quot;font-size: 15px;&quot;&gt;H(k) = k % tamanho&lt;/font&gt;" style="rounded=0;whiteSpace=wrap;html=1;" vertex="1" parent="ES8C0Ujds3IzPOJVSV3A-1">
          <mxGeometry x="660" y="40" width="150" height="60" as="geometry" />
        </mxCell>
        <mxCell id="ES8C0Ujds3IzPOJVSV3A-11" value="&lt;font style=&quot;font-size: 19px;&quot;&gt;0&lt;/font&gt;" style="text;html=1;align=center;verticalAlign=middle;whiteSpace=wrap;rounded=0;" vertex="1" parent="ES8C0Ujds3IzPOJVSV3A-1">
          <mxGeometry x="110" y="245" width="60" height="30" as="geometry" />
        </mxCell>
        <mxCell id="ES8C0Ujds3IzPOJVSV3A-12" value="&lt;font style=&quot;font-size: 19px;&quot;&gt;1&lt;/font&gt;" style="text;html=1;align=center;verticalAlign=middle;whiteSpace=wrap;rounded=0;" vertex="1" parent="ES8C0Ujds3IzPOJVSV3A-1">
          <mxGeometry x="110" y="285" width="60" height="30" as="geometry" />
        </mxCell>
        <mxCell id="ES8C0Ujds3IzPOJVSV3A-13" value="&lt;font style=&quot;font-size: 19px;&quot;&gt;2&lt;/font&gt;" style="text;html=1;align=center;verticalAlign=middle;whiteSpace=wrap;rounded=0;" vertex="1" parent="ES8C0Ujds3IzPOJVSV3A-1">
          <mxGeometry x="110" y="325" width="60" height="30" as="geometry" />
        </mxCell>
        <mxCell id="ES8C0Ujds3IzPOJVSV3A-14" value="&lt;font style=&quot;font-size: 19px;&quot;&gt;3&lt;/font&gt;" style="text;html=1;align=center;verticalAlign=middle;whiteSpace=wrap;rounded=0;" vertex="1" parent="ES8C0Ujds3IzPOJVSV3A-1">
          <mxGeometry x="110" y="365" width="60" height="30" as="geometry" />
        </mxCell>
        <mxCell id="ES8C0Ujds3IzPOJVSV3A-15" value="&lt;font style=&quot;font-size: 19px;&quot;&gt;4&lt;/font&gt;" style="text;html=1;align=center;verticalAlign=middle;whiteSpace=wrap;rounded=0;" vertex="1" parent="ES8C0Ujds3IzPOJVSV3A-1">
          <mxGeometry x="110" y="405" width="60" height="30" as="geometry" />
        </mxCell>
        <mxCell id="ES8C0Ujds3IzPOJVSV3A-16" value="&lt;font style=&quot;font-size: 19px;&quot;&gt;5&lt;/font&gt;" style="text;html=1;align=center;verticalAlign=middle;whiteSpace=wrap;rounded=0;" vertex="1" parent="ES8C0Ujds3IzPOJVSV3A-1">
          <mxGeometry x="110" y="445" width="60" height="30" as="geometry" />
        </mxCell>
        <mxCell id="ES8C0Ujds3IzPOJVSV3A-17" value="&lt;font style=&quot;font-size: 19px;&quot;&gt;6&lt;/font&gt;" style="text;html=1;align=center;verticalAlign=middle;whiteSpace=wrap;rounded=0;" vertex="1" parent="ES8C0Ujds3IzPOJVSV3A-1">
          <mxGeometry x="110" y="485" width="60" height="30" as="geometry" />
        </mxCell>
        <mxCell id="ES8C0Ujds3IzPOJVSV3A-18" value="&lt;div&gt;&lt;font style=&quot;font-size: 16px;&quot;&gt;Remover 40&lt;/font&gt;&lt;/div&gt;" style="rounded=0;whiteSpace=wrap;html=1;" vertex="1" parent="ES8C0Ujds3IzPOJVSV3A-1">
          <mxGeometry x="580" y="120" width="120" height="60" as="geometry" />
        </mxCell>
        <mxCell id="ES8C0Ujds3IzPOJVSV3A-19" value="&lt;font style=&quot;font-size: 16px;&quot;&gt;12&lt;/font&gt;" style="text;html=1;align=center;verticalAlign=middle;whiteSpace=wrap;rounded=0;" vertex="1" parent="ES8C0Ujds3IzPOJVSV3A-1">
          <mxGeometry x="210" y="440" width="60" height="40" as="geometry" />
        </mxCell>
        <mxCell id="ES8C0Ujds3IzPOJVSV3A-20" value="&lt;font style=&quot;font-size: 16px;&quot;&gt;10&lt;/font&gt;" style="text;html=1;align=center;verticalAlign=middle;whiteSpace=wrap;rounded=0;" vertex="1" parent="ES8C0Ujds3IzPOJVSV3A-1">
          <mxGeometry x="210" y="360" width="60" height="40" as="geometry" />
        </mxCell>
        <mxCell id="ES8C0Ujds3IzPOJVSV3A-21" value="" style="endArrow=classic;html=1;rounded=0;exitX=1;exitY=0.5;exitDx=0;exitDy=0;" edge="1" parent="ES8C0Ujds3IzPOJVSV3A-1" target="ES8C0Ujds3IzPOJVSV3A-22">
          <mxGeometry width="50" height="50" relative="1" as="geometry">
            <mxPoint x="300" y="460" as="sourcePoint" />
            <mxPoint x="350" y="460" as="targetPoint" />
          </mxGeometry>
        </mxCell>
        <mxCell id="ES8C0Ujds3IzPOJVSV3A-22" value="&lt;font style=&quot;font-size: 16px;&quot;&gt;19&lt;/font&gt;" style="rounded=0;whiteSpace=wrap;html=1;" vertex="1" parent="ES8C0Ujds3IzPOJVSV3A-1">
          <mxGeometry x="350" y="440" width="60" height="40" as="geometry" />
        </mxCell>
        <mxCell id="ES8C0Ujds3IzPOJVSV3A-23" value="" style="endArrow=classic;html=1;rounded=0;" edge="1" parent="ES8C0Ujds3IzPOJVSV3A-1" target="ES8C0Ujds3IzPOJVSV3A-24">
          <mxGeometry width="50" height="50" relative="1" as="geometry">
            <mxPoint x="300" y="380" as="sourcePoint" />
            <mxPoint x="350" y="380" as="targetPoint" />
          </mxGeometry>
        </mxCell>
        <mxCell id="ES8C0Ujds3IzPOJVSV3A-24" value="&lt;font style=&quot;font-size: 16px;&quot;&gt;17&lt;/font&gt;" style="rounded=0;whiteSpace=wrap;html=1;" vertex="1" parent="ES8C0Ujds3IzPOJVSV3A-1">
          <mxGeometry x="350" y="360" width="60" height="40" as="geometry" />
        </mxCell>
        <mxCell id="ES8C0Ujds3IzPOJVSV3A-25" value="&lt;font style=&quot;font-size: 17px;&quot;&gt;56&lt;/font&gt;" style="text;html=1;align=center;verticalAlign=middle;whiteSpace=wrap;rounded=0;" vertex="1" parent="ES8C0Ujds3IzPOJVSV3A-1">
          <mxGeometry x="210" y="240" width="60" height="40" as="geometry" />
        </mxCell>
        <mxCell id="ES8C0Ujds3IzPOJVSV3A-26" value="" style="endArrow=classic;html=1;rounded=0;entryX=0;entryY=0.5;entryDx=0;entryDy=0;" edge="1" parent="ES8C0Ujds3IzPOJVSV3A-1" target="ES8C0Ujds3IzPOJVSV3A-27">
          <mxGeometry width="50" height="50" relative="1" as="geometry">
            <mxPoint x="300" y="260" as="sourcePoint" />
            <mxPoint x="350" y="260" as="targetPoint" />
            <Array as="points">
              <mxPoint x="330" y="260" />
              <mxPoint x="340" y="260" />
              <mxPoint x="350" y="260" />
            </Array>
          </mxGeometry>
        </mxCell>
        <mxCell id="ES8C0Ujds3IzPOJVSV3A-27" value="&lt;font style=&quot;font-size: 16px;&quot;&gt;49&lt;/font&gt;" style="rounded=0;whiteSpace=wrap;html=1;" vertex="1" parent="ES8C0Ujds3IzPOJVSV3A-1">
          <mxGeometry x="350" y="240" width="60" height="40" as="geometry" />
        </mxCell>
        <mxCell id="ES8C0Ujds3IzPOJVSV3A-28" value="&lt;font style=&quot;font-size: 16px;&quot;&gt;23&lt;/font&gt;" style="text;html=1;align=center;verticalAlign=middle;whiteSpace=wrap;rounded=0;" vertex="1" parent="ES8C0Ujds3IzPOJVSV3A-1">
          <mxGeometry x="210" y="320" width="60" height="40" as="geometry" />
        </mxCell>
        <mxCell id="ES8C0Ujds3IzPOJVSV3A-29" value="" style="endArrow=classic;html=1;rounded=0;exitX=1;exitY=0.5;exitDx=0;exitDy=0;" edge="1" parent="ES8C0Ujds3IzPOJVSV3A-1" target="ES8C0Ujds3IzPOJVSV3A-30">
          <mxGeometry width="50" height="50" relative="1" as="geometry">
            <mxPoint x="410" y="460" as="sourcePoint" />
            <mxPoint x="460" y="460" as="targetPoint" />
          </mxGeometry>
        </mxCell>
        <mxCell id="ES8C0Ujds3IzPOJVSV3A-30" value="&lt;font style=&quot;font-size: 16px;&quot;&gt;40&lt;/font&gt;" style="rounded=0;whiteSpace=wrap;html=1;" vertex="1" parent="ES8C0Ujds3IzPOJVSV3A-1">
          <mxGeometry x="460" y="440" width="60" height="40" as="geometry" />
        </mxCell>
        <mxCell id="ES8C0Ujds3IzPOJVSV3A-31" value="" style="endArrow=classic;html=1;rounded=0;" edge="1" parent="ES8C0Ujds3IzPOJVSV3A-1" target="ES8C0Ujds3IzPOJVSV3A-32">
          <mxGeometry width="50" height="50" relative="1" as="geometry">
            <mxPoint x="300" y="340" as="sourcePoint" />
            <mxPoint x="350" y="340" as="targetPoint" />
          </mxGeometry>
        </mxCell>
        <mxCell id="ES8C0Ujds3IzPOJVSV3A-32" value="&lt;font style=&quot;font-size: 16px;&quot;&gt;15&lt;/font&gt;" style="rounded=0;whiteSpace=wrap;html=1;" vertex="1" parent="ES8C0Ujds3IzPOJVSV3A-1">
          <mxGeometry x="350" y="320" width="60" height="40" as="geometry" />
        </mxCell>
        <mxCell id="ES8C0Ujds3IzPOJVSV3A-33" value="&lt;font style=&quot;font-size: 16px;&quot;&gt;18&lt;/font&gt;" style="text;html=1;align=center;verticalAlign=middle;whiteSpace=wrap;rounded=0;" vertex="1" parent="ES8C0Ujds3IzPOJVSV3A-1">
          <mxGeometry x="210" y="400" width="60" height="40" as="geometry" />
        </mxCell>
        <mxCell id="ES8C0Ujds3IzPOJVSV3A-34" value="&lt;div&gt;Aux&lt;/div&gt;" style="text;html=1;align=center;verticalAlign=middle;whiteSpace=wrap;rounded=0;" vertex="1" parent="ES8C0Ujds3IzPOJVSV3A-1">
          <mxGeometry x="350" y="515" width="60" height="30" as="geometry" />
        </mxCell>
        <mxCell id="ES8C0Ujds3IzPOJVSV3A-35" value="" style="endArrow=classic;html=1;rounded=0;exitX=0.5;exitY=0;exitDx=0;exitDy=0;entryX=0.5;entryY=1;entryDx=0;entryDy=0;" edge="1" parent="ES8C0Ujds3IzPOJVSV3A-1" source="ES8C0Ujds3IzPOJVSV3A-34" target="ES8C0Ujds3IzPOJVSV3A-22">
          <mxGeometry width="50" height="50" relative="1" as="geometry">
            <mxPoint x="400" y="420" as="sourcePoint" />
            <mxPoint x="450" y="370" as="targetPoint" />
          </mxGeometry>
        </mxCell>
        <mxCell id="YIFqiMmmE__Sp6Nmaz8g-0" value="" style="shape=cross;whiteSpace=wrap;html=1;rotation=45;fillColor=#ffcccc;strokeColor=#36393d;" vertex="1" parent="ES8C0Ujds3IzPOJVSV3A-1">
          <mxGeometry x="460" y="430" width="60" height="60" as="geometry" />
        </mxCell>
      </root>
    </mxGraphModel>
  </diagram>
  <diagram name="E-17" id="K2qY-COU3AOxwItI6W6Z">
    <mxGraphModel dx="1434" dy="750" grid="1" gridSize="10" guides="1" tooltips="1" connect="1" arrows="1" fold="1" page="1" pageScale="1" pageWidth="850" pageHeight="1100" math="0" shadow="0">
      <root>
        <mxCell id="_gHUbt_8oNiRr7uakSOn-0" />
        <mxCell id="_gHUbt_8oNiRr7uakSOn-1" parent="_gHUbt_8oNiRr7uakSOn-0" />
        <mxCell id="_gHUbt_8oNiRr7uakSOn-2" value="" style="rounded=0;whiteSpace=wrap;html=1;" vertex="1" parent="_gHUbt_8oNiRr7uakSOn-1">
          <mxGeometry x="180" y="240" width="120" height="40" as="geometry" />
        </mxCell>
        <mxCell id="_gHUbt_8oNiRr7uakSOn-3" value="" style="rounded=0;whiteSpace=wrap;html=1;" vertex="1" parent="_gHUbt_8oNiRr7uakSOn-1">
          <mxGeometry x="180" y="280" width="120" height="40" as="geometry" />
        </mxCell>
        <mxCell id="_gHUbt_8oNiRr7uakSOn-4" value="" style="rounded=0;whiteSpace=wrap;html=1;" vertex="1" parent="_gHUbt_8oNiRr7uakSOn-1">
          <mxGeometry x="180" y="320" width="120" height="40" as="geometry" />
        </mxCell>
        <mxCell id="_gHUbt_8oNiRr7uakSOn-5" value="" style="rounded=0;whiteSpace=wrap;html=1;" vertex="1" parent="_gHUbt_8oNiRr7uakSOn-1">
          <mxGeometry x="180" y="360" width="120" height="40" as="geometry" />
        </mxCell>
        <mxCell id="_gHUbt_8oNiRr7uakSOn-6" value="" style="rounded=0;whiteSpace=wrap;html=1;" vertex="1" parent="_gHUbt_8oNiRr7uakSOn-1">
          <mxGeometry x="180" y="400" width="120" height="40" as="geometry" />
        </mxCell>
        <mxCell id="_gHUbt_8oNiRr7uakSOn-7" value="" style="rounded=0;whiteSpace=wrap;html=1;" vertex="1" parent="_gHUbt_8oNiRr7uakSOn-1">
          <mxGeometry x="180" y="440" width="120" height="40" as="geometry" />
        </mxCell>
        <mxCell id="_gHUbt_8oNiRr7uakSOn-8" value="" style="rounded=0;whiteSpace=wrap;html=1;" vertex="1" parent="_gHUbt_8oNiRr7uakSOn-1">
          <mxGeometry x="180" y="480" width="120" height="40" as="geometry" />
        </mxCell>
        <mxCell id="_gHUbt_8oNiRr7uakSOn-9" value="&lt;font style=&quot;font-size: 15px;&quot;&gt;Tamanho = 7&lt;/font&gt;" style="rounded=0;whiteSpace=wrap;html=1;" vertex="1" parent="_gHUbt_8oNiRr7uakSOn-1">
          <mxGeometry x="510" y="40" width="120" height="60" as="geometry" />
        </mxCell>
        <mxCell id="_gHUbt_8oNiRr7uakSOn-10" value="&lt;font style=&quot;font-size: 15px;&quot;&gt;H(k) = k % tamanho&lt;/font&gt;" style="rounded=0;whiteSpace=wrap;html=1;" vertex="1" parent="_gHUbt_8oNiRr7uakSOn-1">
          <mxGeometry x="660" y="40" width="150" height="60" as="geometry" />
        </mxCell>
        <mxCell id="_gHUbt_8oNiRr7uakSOn-11" value="&lt;font style=&quot;font-size: 19px;&quot;&gt;0&lt;/font&gt;" style="text;html=1;align=center;verticalAlign=middle;whiteSpace=wrap;rounded=0;" vertex="1" parent="_gHUbt_8oNiRr7uakSOn-1">
          <mxGeometry x="110" y="245" width="60" height="30" as="geometry" />
        </mxCell>
        <mxCell id="_gHUbt_8oNiRr7uakSOn-12" value="&lt;font style=&quot;font-size: 19px;&quot;&gt;1&lt;/font&gt;" style="text;html=1;align=center;verticalAlign=middle;whiteSpace=wrap;rounded=0;" vertex="1" parent="_gHUbt_8oNiRr7uakSOn-1">
          <mxGeometry x="110" y="285" width="60" height="30" as="geometry" />
        </mxCell>
        <mxCell id="_gHUbt_8oNiRr7uakSOn-13" value="&lt;font style=&quot;font-size: 19px;&quot;&gt;2&lt;/font&gt;" style="text;html=1;align=center;verticalAlign=middle;whiteSpace=wrap;rounded=0;" vertex="1" parent="_gHUbt_8oNiRr7uakSOn-1">
          <mxGeometry x="110" y="325" width="60" height="30" as="geometry" />
        </mxCell>
        <mxCell id="_gHUbt_8oNiRr7uakSOn-14" value="&lt;font style=&quot;font-size: 19px;&quot;&gt;3&lt;/font&gt;" style="text;html=1;align=center;verticalAlign=middle;whiteSpace=wrap;rounded=0;" vertex="1" parent="_gHUbt_8oNiRr7uakSOn-1">
          <mxGeometry x="110" y="365" width="60" height="30" as="geometry" />
        </mxCell>
        <mxCell id="_gHUbt_8oNiRr7uakSOn-15" value="&lt;font style=&quot;font-size: 19px;&quot;&gt;4&lt;/font&gt;" style="text;html=1;align=center;verticalAlign=middle;whiteSpace=wrap;rounded=0;" vertex="1" parent="_gHUbt_8oNiRr7uakSOn-1">
          <mxGeometry x="110" y="405" width="60" height="30" as="geometry" />
        </mxCell>
        <mxCell id="_gHUbt_8oNiRr7uakSOn-16" value="&lt;font style=&quot;font-size: 19px;&quot;&gt;5&lt;/font&gt;" style="text;html=1;align=center;verticalAlign=middle;whiteSpace=wrap;rounded=0;" vertex="1" parent="_gHUbt_8oNiRr7uakSOn-1">
          <mxGeometry x="110" y="445" width="60" height="30" as="geometry" />
        </mxCell>
        <mxCell id="_gHUbt_8oNiRr7uakSOn-17" value="&lt;font style=&quot;font-size: 19px;&quot;&gt;6&lt;/font&gt;" style="text;html=1;align=center;verticalAlign=middle;whiteSpace=wrap;rounded=0;" vertex="1" parent="_gHUbt_8oNiRr7uakSOn-1">
          <mxGeometry x="110" y="485" width="60" height="30" as="geometry" />
        </mxCell>
        <mxCell id="_gHUbt_8oNiRr7uakSOn-18" value="&lt;div&gt;&lt;font style=&quot;font-size: 16px;&quot;&gt;Remover 40&lt;/font&gt;&lt;/div&gt;" style="rounded=0;whiteSpace=wrap;html=1;" vertex="1" parent="_gHUbt_8oNiRr7uakSOn-1">
          <mxGeometry x="580" y="120" width="120" height="60" as="geometry" />
        </mxCell>
        <mxCell id="_gHUbt_8oNiRr7uakSOn-19" value="&lt;font style=&quot;font-size: 16px;&quot;&gt;12&lt;/font&gt;" style="text;html=1;align=center;verticalAlign=middle;whiteSpace=wrap;rounded=0;" vertex="1" parent="_gHUbt_8oNiRr7uakSOn-1">
          <mxGeometry x="210" y="440" width="60" height="40" as="geometry" />
        </mxCell>
        <mxCell id="_gHUbt_8oNiRr7uakSOn-20" value="&lt;font style=&quot;font-size: 16px;&quot;&gt;10&lt;/font&gt;" style="text;html=1;align=center;verticalAlign=middle;whiteSpace=wrap;rounded=0;" vertex="1" parent="_gHUbt_8oNiRr7uakSOn-1">
          <mxGeometry x="210" y="360" width="60" height="40" as="geometry" />
        </mxCell>
        <mxCell id="_gHUbt_8oNiRr7uakSOn-21" value="" style="endArrow=classic;html=1;rounded=0;exitX=1;exitY=0.5;exitDx=0;exitDy=0;" edge="1" parent="_gHUbt_8oNiRr7uakSOn-1" target="_gHUbt_8oNiRr7uakSOn-22">
          <mxGeometry width="50" height="50" relative="1" as="geometry">
            <mxPoint x="300" y="460" as="sourcePoint" />
            <mxPoint x="350" y="460" as="targetPoint" />
          </mxGeometry>
        </mxCell>
        <mxCell id="_gHUbt_8oNiRr7uakSOn-22" value="&lt;font style=&quot;font-size: 16px;&quot;&gt;19&lt;/font&gt;" style="rounded=0;whiteSpace=wrap;html=1;" vertex="1" parent="_gHUbt_8oNiRr7uakSOn-1">
          <mxGeometry x="350" y="440" width="60" height="40" as="geometry" />
        </mxCell>
        <mxCell id="_gHUbt_8oNiRr7uakSOn-23" value="" style="endArrow=classic;html=1;rounded=0;" edge="1" parent="_gHUbt_8oNiRr7uakSOn-1" target="_gHUbt_8oNiRr7uakSOn-24">
          <mxGeometry width="50" height="50" relative="1" as="geometry">
            <mxPoint x="300" y="380" as="sourcePoint" />
            <mxPoint x="350" y="380" as="targetPoint" />
          </mxGeometry>
        </mxCell>
        <mxCell id="_gHUbt_8oNiRr7uakSOn-24" value="&lt;font style=&quot;font-size: 16px;&quot;&gt;17&lt;/font&gt;" style="rounded=0;whiteSpace=wrap;html=1;" vertex="1" parent="_gHUbt_8oNiRr7uakSOn-1">
          <mxGeometry x="350" y="360" width="60" height="40" as="geometry" />
        </mxCell>
        <mxCell id="_gHUbt_8oNiRr7uakSOn-25" value="&lt;font style=&quot;font-size: 17px;&quot;&gt;56&lt;/font&gt;" style="text;html=1;align=center;verticalAlign=middle;whiteSpace=wrap;rounded=0;" vertex="1" parent="_gHUbt_8oNiRr7uakSOn-1">
          <mxGeometry x="210" y="240" width="60" height="40" as="geometry" />
        </mxCell>
        <mxCell id="_gHUbt_8oNiRr7uakSOn-26" value="" style="endArrow=classic;html=1;rounded=0;entryX=0;entryY=0.5;entryDx=0;entryDy=0;" edge="1" parent="_gHUbt_8oNiRr7uakSOn-1" target="_gHUbt_8oNiRr7uakSOn-27">
          <mxGeometry width="50" height="50" relative="1" as="geometry">
            <mxPoint x="300" y="260" as="sourcePoint" />
            <mxPoint x="350" y="260" as="targetPoint" />
            <Array as="points">
              <mxPoint x="330" y="260" />
              <mxPoint x="340" y="260" />
              <mxPoint x="350" y="260" />
            </Array>
          </mxGeometry>
        </mxCell>
        <mxCell id="_gHUbt_8oNiRr7uakSOn-27" value="&lt;font style=&quot;font-size: 16px;&quot;&gt;49&lt;/font&gt;" style="rounded=0;whiteSpace=wrap;html=1;" vertex="1" parent="_gHUbt_8oNiRr7uakSOn-1">
          <mxGeometry x="350" y="240" width="60" height="40" as="geometry" />
        </mxCell>
        <mxCell id="_gHUbt_8oNiRr7uakSOn-28" value="&lt;font style=&quot;font-size: 16px;&quot;&gt;23&lt;/font&gt;" style="text;html=1;align=center;verticalAlign=middle;whiteSpace=wrap;rounded=0;" vertex="1" parent="_gHUbt_8oNiRr7uakSOn-1">
          <mxGeometry x="210" y="320" width="60" height="40" as="geometry" />
        </mxCell>
        <mxCell id="_gHUbt_8oNiRr7uakSOn-31" value="" style="endArrow=classic;html=1;rounded=0;" edge="1" parent="_gHUbt_8oNiRr7uakSOn-1" target="_gHUbt_8oNiRr7uakSOn-32">
          <mxGeometry width="50" height="50" relative="1" as="geometry">
            <mxPoint x="300" y="340" as="sourcePoint" />
            <mxPoint x="350" y="340" as="targetPoint" />
          </mxGeometry>
        </mxCell>
        <mxCell id="_gHUbt_8oNiRr7uakSOn-32" value="&lt;font style=&quot;font-size: 16px;&quot;&gt;15&lt;/font&gt;" style="rounded=0;whiteSpace=wrap;html=1;" vertex="1" parent="_gHUbt_8oNiRr7uakSOn-1">
          <mxGeometry x="350" y="320" width="60" height="40" as="geometry" />
        </mxCell>
        <mxCell id="_gHUbt_8oNiRr7uakSOn-33" value="&lt;font style=&quot;font-size: 16px;&quot;&gt;18&lt;/font&gt;" style="text;html=1;align=center;verticalAlign=middle;whiteSpace=wrap;rounded=0;" vertex="1" parent="_gHUbt_8oNiRr7uakSOn-1">
          <mxGeometry x="210" y="400" width="60" height="40" as="geometry" />
        </mxCell>
      </root>
    </mxGraphModel>
  </diagram>
  <diagram name="Fim" id="hrsTlftXT-p9ulceK2YQ">
    <mxGraphModel dx="1434" dy="750" grid="1" gridSize="10" guides="1" tooltips="1" connect="1" arrows="1" fold="1" page="1" pageScale="1" pageWidth="850" pageHeight="1100" math="0" shadow="0">
      <root>
        <mxCell id="Pp8bUWljt5c0zDuKysY9-0" />
        <mxCell id="Pp8bUWljt5c0zDuKysY9-1" parent="Pp8bUWljt5c0zDuKysY9-0" />
        <mxCell id="Pp8bUWljt5c0zDuKysY9-2" value="" style="rounded=0;whiteSpace=wrap;html=1;" vertex="1" parent="Pp8bUWljt5c0zDuKysY9-1">
          <mxGeometry x="180" y="240" width="120" height="40" as="geometry" />
        </mxCell>
        <mxCell id="Pp8bUWljt5c0zDuKysY9-3" value="" style="rounded=0;whiteSpace=wrap;html=1;" vertex="1" parent="Pp8bUWljt5c0zDuKysY9-1">
          <mxGeometry x="180" y="280" width="120" height="40" as="geometry" />
        </mxCell>
        <mxCell id="Pp8bUWljt5c0zDuKysY9-4" value="" style="rounded=0;whiteSpace=wrap;html=1;" vertex="1" parent="Pp8bUWljt5c0zDuKysY9-1">
          <mxGeometry x="180" y="320" width="120" height="40" as="geometry" />
        </mxCell>
        <mxCell id="Pp8bUWljt5c0zDuKysY9-5" value="" style="rounded=0;whiteSpace=wrap;html=1;" vertex="1" parent="Pp8bUWljt5c0zDuKysY9-1">
          <mxGeometry x="180" y="360" width="120" height="40" as="geometry" />
        </mxCell>
        <mxCell id="Pp8bUWljt5c0zDuKysY9-6" value="" style="rounded=0;whiteSpace=wrap;html=1;" vertex="1" parent="Pp8bUWljt5c0zDuKysY9-1">
          <mxGeometry x="180" y="400" width="120" height="40" as="geometry" />
        </mxCell>
        <mxCell id="Pp8bUWljt5c0zDuKysY9-7" value="" style="rounded=0;whiteSpace=wrap;html=1;" vertex="1" parent="Pp8bUWljt5c0zDuKysY9-1">
          <mxGeometry x="180" y="440" width="120" height="40" as="geometry" />
        </mxCell>
        <mxCell id="Pp8bUWljt5c0zDuKysY9-8" value="" style="rounded=0;whiteSpace=wrap;html=1;" vertex="1" parent="Pp8bUWljt5c0zDuKysY9-1">
          <mxGeometry x="180" y="480" width="120" height="40" as="geometry" />
        </mxCell>
        <mxCell id="Pp8bUWljt5c0zDuKysY9-9" value="&lt;font style=&quot;font-size: 15px;&quot;&gt;Tamanho = 7&lt;/font&gt;" style="rounded=0;whiteSpace=wrap;html=1;" vertex="1" parent="Pp8bUWljt5c0zDuKysY9-1">
          <mxGeometry x="510" y="40" width="120" height="60" as="geometry" />
        </mxCell>
        <mxCell id="Pp8bUWljt5c0zDuKysY9-10" value="&lt;font style=&quot;font-size: 15px;&quot;&gt;H(k) = k % tamanho&lt;/font&gt;" style="rounded=0;whiteSpace=wrap;html=1;" vertex="1" parent="Pp8bUWljt5c0zDuKysY9-1">
          <mxGeometry x="660" y="40" width="150" height="60" as="geometry" />
        </mxCell>
        <mxCell id="Pp8bUWljt5c0zDuKysY9-11" value="&lt;font style=&quot;font-size: 19px;&quot;&gt;0&lt;/font&gt;" style="text;html=1;align=center;verticalAlign=middle;whiteSpace=wrap;rounded=0;" vertex="1" parent="Pp8bUWljt5c0zDuKysY9-1">
          <mxGeometry x="110" y="245" width="60" height="30" as="geometry" />
        </mxCell>
        <mxCell id="Pp8bUWljt5c0zDuKysY9-12" value="&lt;font style=&quot;font-size: 19px;&quot;&gt;1&lt;/font&gt;" style="text;html=1;align=center;verticalAlign=middle;whiteSpace=wrap;rounded=0;" vertex="1" parent="Pp8bUWljt5c0zDuKysY9-1">
          <mxGeometry x="110" y="285" width="60" height="30" as="geometry" />
        </mxCell>
        <mxCell id="Pp8bUWljt5c0zDuKysY9-13" value="&lt;font style=&quot;font-size: 19px;&quot;&gt;2&lt;/font&gt;" style="text;html=1;align=center;verticalAlign=middle;whiteSpace=wrap;rounded=0;" vertex="1" parent="Pp8bUWljt5c0zDuKysY9-1">
          <mxGeometry x="110" y="325" width="60" height="30" as="geometry" />
        </mxCell>
        <mxCell id="Pp8bUWljt5c0zDuKysY9-14" value="&lt;font style=&quot;font-size: 19px;&quot;&gt;3&lt;/font&gt;" style="text;html=1;align=center;verticalAlign=middle;whiteSpace=wrap;rounded=0;" vertex="1" parent="Pp8bUWljt5c0zDuKysY9-1">
          <mxGeometry x="110" y="365" width="60" height="30" as="geometry" />
        </mxCell>
        <mxCell id="Pp8bUWljt5c0zDuKysY9-15" value="&lt;font style=&quot;font-size: 19px;&quot;&gt;4&lt;/font&gt;" style="text;html=1;align=center;verticalAlign=middle;whiteSpace=wrap;rounded=0;" vertex="1" parent="Pp8bUWljt5c0zDuKysY9-1">
          <mxGeometry x="110" y="405" width="60" height="30" as="geometry" />
        </mxCell>
        <mxCell id="Pp8bUWljt5c0zDuKysY9-16" value="&lt;font style=&quot;font-size: 19px;&quot;&gt;5&lt;/font&gt;" style="text;html=1;align=center;verticalAlign=middle;whiteSpace=wrap;rounded=0;" vertex="1" parent="Pp8bUWljt5c0zDuKysY9-1">
          <mxGeometry x="110" y="445" width="60" height="30" as="geometry" />
        </mxCell>
        <mxCell id="Pp8bUWljt5c0zDuKysY9-17" value="&lt;font style=&quot;font-size: 19px;&quot;&gt;6&lt;/font&gt;" style="text;html=1;align=center;verticalAlign=middle;whiteSpace=wrap;rounded=0;" vertex="1" parent="Pp8bUWljt5c0zDuKysY9-1">
          <mxGeometry x="110" y="485" width="60" height="30" as="geometry" />
        </mxCell>
        <mxCell id="Pp8bUWljt5c0zDuKysY9-19" value="&lt;font style=&quot;font-size: 16px;&quot;&gt;12&lt;/font&gt;" style="text;html=1;align=center;verticalAlign=middle;whiteSpace=wrap;rounded=0;" vertex="1" parent="Pp8bUWljt5c0zDuKysY9-1">
          <mxGeometry x="210" y="440" width="60" height="40" as="geometry" />
        </mxCell>
        <mxCell id="Pp8bUWljt5c0zDuKysY9-20" value="&lt;font style=&quot;font-size: 16px;&quot;&gt;10&lt;/font&gt;" style="text;html=1;align=center;verticalAlign=middle;whiteSpace=wrap;rounded=0;" vertex="1" parent="Pp8bUWljt5c0zDuKysY9-1">
          <mxGeometry x="210" y="360" width="60" height="40" as="geometry" />
        </mxCell>
        <mxCell id="Pp8bUWljt5c0zDuKysY9-21" value="" style="endArrow=classic;html=1;rounded=0;exitX=1;exitY=0.5;exitDx=0;exitDy=0;" edge="1" parent="Pp8bUWljt5c0zDuKysY9-1" target="Pp8bUWljt5c0zDuKysY9-22">
          <mxGeometry width="50" height="50" relative="1" as="geometry">
            <mxPoint x="300" y="460" as="sourcePoint" />
            <mxPoint x="350" y="460" as="targetPoint" />
          </mxGeometry>
        </mxCell>
        <mxCell id="Pp8bUWljt5c0zDuKysY9-22" value="&lt;font style=&quot;font-size: 16px;&quot;&gt;19&lt;/font&gt;" style="rounded=0;whiteSpace=wrap;html=1;" vertex="1" parent="Pp8bUWljt5c0zDuKysY9-1">
          <mxGeometry x="350" y="440" width="60" height="40" as="geometry" />
        </mxCell>
        <mxCell id="Pp8bUWljt5c0zDuKysY9-23" value="" style="endArrow=classic;html=1;rounded=0;" edge="1" parent="Pp8bUWljt5c0zDuKysY9-1" target="Pp8bUWljt5c0zDuKysY9-24">
          <mxGeometry width="50" height="50" relative="1" as="geometry">
            <mxPoint x="300" y="380" as="sourcePoint" />
            <mxPoint x="350" y="380" as="targetPoint" />
          </mxGeometry>
        </mxCell>
        <mxCell id="Pp8bUWljt5c0zDuKysY9-24" value="&lt;font style=&quot;font-size: 16px;&quot;&gt;17&lt;/font&gt;" style="rounded=0;whiteSpace=wrap;html=1;" vertex="1" parent="Pp8bUWljt5c0zDuKysY9-1">
          <mxGeometry x="350" y="360" width="60" height="40" as="geometry" />
        </mxCell>
        <mxCell id="Pp8bUWljt5c0zDuKysY9-25" value="&lt;font style=&quot;font-size: 17px;&quot;&gt;56&lt;/font&gt;" style="text;html=1;align=center;verticalAlign=middle;whiteSpace=wrap;rounded=0;" vertex="1" parent="Pp8bUWljt5c0zDuKysY9-1">
          <mxGeometry x="210" y="240" width="60" height="40" as="geometry" />
        </mxCell>
        <mxCell id="Pp8bUWljt5c0zDuKysY9-26" value="" style="endArrow=classic;html=1;rounded=0;entryX=0;entryY=0.5;entryDx=0;entryDy=0;" edge="1" parent="Pp8bUWljt5c0zDuKysY9-1" target="Pp8bUWljt5c0zDuKysY9-27">
          <mxGeometry width="50" height="50" relative="1" as="geometry">
            <mxPoint x="300" y="260" as="sourcePoint" />
            <mxPoint x="350" y="260" as="targetPoint" />
            <Array as="points">
              <mxPoint x="330" y="260" />
              <mxPoint x="340" y="260" />
              <mxPoint x="350" y="260" />
            </Array>
          </mxGeometry>
        </mxCell>
        <mxCell id="Pp8bUWljt5c0zDuKysY9-27" value="&lt;font style=&quot;font-size: 16px;&quot;&gt;49&lt;/font&gt;" style="rounded=0;whiteSpace=wrap;html=1;" vertex="1" parent="Pp8bUWljt5c0zDuKysY9-1">
          <mxGeometry x="350" y="240" width="60" height="40" as="geometry" />
        </mxCell>
        <mxCell id="Pp8bUWljt5c0zDuKysY9-28" value="&lt;font style=&quot;font-size: 16px;&quot;&gt;23&lt;/font&gt;" style="text;html=1;align=center;verticalAlign=middle;whiteSpace=wrap;rounded=0;" vertex="1" parent="Pp8bUWljt5c0zDuKysY9-1">
          <mxGeometry x="210" y="320" width="60" height="40" as="geometry" />
        </mxCell>
        <mxCell id="Pp8bUWljt5c0zDuKysY9-29" value="" style="endArrow=classic;html=1;rounded=0;" edge="1" parent="Pp8bUWljt5c0zDuKysY9-1" target="Pp8bUWljt5c0zDuKysY9-30">
          <mxGeometry width="50" height="50" relative="1" as="geometry">
            <mxPoint x="300" y="340" as="sourcePoint" />
            <mxPoint x="350" y="340" as="targetPoint" />
          </mxGeometry>
        </mxCell>
        <mxCell id="Pp8bUWljt5c0zDuKysY9-30" value="&lt;font style=&quot;font-size: 16px;&quot;&gt;15&lt;/font&gt;" style="rounded=0;whiteSpace=wrap;html=1;" vertex="1" parent="Pp8bUWljt5c0zDuKysY9-1">
          <mxGeometry x="350" y="320" width="60" height="40" as="geometry" />
        </mxCell>
        <mxCell id="Pp8bUWljt5c0zDuKysY9-31" value="&lt;font style=&quot;font-size: 16px;&quot;&gt;18&lt;/font&gt;" style="text;html=1;align=center;verticalAlign=middle;whiteSpace=wrap;rounded=0;" vertex="1" parent="Pp8bUWljt5c0zDuKysY9-1">
          <mxGeometry x="210" y="400" width="60" height="40" as="geometry" />
        </mxCell>
      </root>
    </mxGraphModel>
  </diagram>
  <diagram id="tIpq8ETZIIdUL9L4FwDG" name="A-1">
    <mxGraphModel dx="1434" dy="750" grid="1" gridSize="10" guides="1" tooltips="1" connect="1" arrows="1" fold="1" page="1" pageScale="1" pageWidth="850" pageHeight="1100" math="0" shadow="0">
      <root>
        <mxCell id="0" />
        <mxCell id="1" parent="0" />
        <mxCell id="GN3moocEL5f0As_6Z_KL-1" value="" style="whiteSpace=wrap;html=1;aspect=fixed;" vertex="1" parent="1">
          <mxGeometry x="80" y="220" width="60" height="60" as="geometry" />
        </mxCell>
        <mxCell id="GN3moocEL5f0As_6Z_KL-2" value="" style="whiteSpace=wrap;html=1;aspect=fixed;" vertex="1" parent="1">
          <mxGeometry x="140" y="220" width="60" height="60" as="geometry" />
        </mxCell>
        <mxCell id="GN3moocEL5f0As_6Z_KL-3" value="" style="whiteSpace=wrap;html=1;aspect=fixed;" vertex="1" parent="1">
          <mxGeometry x="200" y="220" width="60" height="60" as="geometry" />
        </mxCell>
        <mxCell id="GN3moocEL5f0As_6Z_KL-4" value="" style="whiteSpace=wrap;html=1;aspect=fixed;" vertex="1" parent="1">
          <mxGeometry x="260" y="220" width="60" height="60" as="geometry" />
        </mxCell>
        <mxCell id="GN3moocEL5f0As_6Z_KL-5" value="" style="whiteSpace=wrap;html=1;aspect=fixed;" vertex="1" parent="1">
          <mxGeometry x="320" y="220" width="60" height="60" as="geometry" />
        </mxCell>
        <mxCell id="GN3moocEL5f0As_6Z_KL-6" value="" style="whiteSpace=wrap;html=1;aspect=fixed;" vertex="1" parent="1">
          <mxGeometry x="380" y="220" width="60" height="60" as="geometry" />
        </mxCell>
        <mxCell id="GN3moocEL5f0As_6Z_KL-7" value="" style="whiteSpace=wrap;html=1;aspect=fixed;" vertex="1" parent="1">
          <mxGeometry x="440" y="220" width="60" height="60" as="geometry" />
        </mxCell>
        <mxCell id="GN3moocEL5f0As_6Z_KL-8" value="" style="whiteSpace=wrap;html=1;aspect=fixed;" vertex="1" parent="1">
          <mxGeometry x="500" y="220" width="60" height="60" as="geometry" />
        </mxCell>
        <mxCell id="GN3moocEL5f0As_6Z_KL-9" value="" style="whiteSpace=wrap;html=1;aspect=fixed;" vertex="1" parent="1">
          <mxGeometry x="560" y="220" width="60" height="60" as="geometry" />
        </mxCell>
        <mxCell id="GN3moocEL5f0As_6Z_KL-10" value="" style="whiteSpace=wrap;html=1;aspect=fixed;" vertex="1" parent="1">
          <mxGeometry x="620" y="220" width="60" height="60" as="geometry" />
        </mxCell>
        <mxCell id="IcTQPpbToS60JrmOi4kg-1" value="&lt;font style=&quot;font-size: 20px;&quot;&gt;1&lt;/font&gt;" style="text;html=1;align=center;verticalAlign=middle;whiteSpace=wrap;rounded=0;" vertex="1" parent="1">
          <mxGeometry x="80" y="180" width="60" height="30" as="geometry" />
        </mxCell>
        <mxCell id="IcTQPpbToS60JrmOi4kg-2" value="&lt;font style=&quot;font-size: 20px;&quot;&gt;2&lt;/font&gt;" style="text;html=1;align=center;verticalAlign=middle;whiteSpace=wrap;rounded=0;" vertex="1" parent="1">
          <mxGeometry x="140" y="180" width="60" height="30" as="geometry" />
        </mxCell>
        <mxCell id="IcTQPpbToS60JrmOi4kg-3" value="&lt;font style=&quot;font-size: 20px;&quot;&gt;3&lt;/font&gt;" style="text;html=1;align=center;verticalAlign=middle;whiteSpace=wrap;rounded=0;" vertex="1" parent="1">
          <mxGeometry x="200" y="180" width="60" height="30" as="geometry" />
        </mxCell>
        <mxCell id="IcTQPpbToS60JrmOi4kg-4" value="&lt;font style=&quot;font-size: 20px;&quot;&gt;4&lt;/font&gt;" style="text;html=1;align=center;verticalAlign=middle;whiteSpace=wrap;rounded=0;" vertex="1" parent="1">
          <mxGeometry x="260" y="180" width="60" height="30" as="geometry" />
        </mxCell>
        <mxCell id="IcTQPpbToS60JrmOi4kg-5" value="&lt;font style=&quot;font-size: 20px;&quot;&gt;5&lt;/font&gt;" style="text;html=1;align=center;verticalAlign=middle;whiteSpace=wrap;rounded=0;" vertex="1" parent="1">
          <mxGeometry x="320" y="180" width="60" height="30" as="geometry" />
        </mxCell>
        <mxCell id="IcTQPpbToS60JrmOi4kg-6" value="&lt;font style=&quot;font-size: 20px;&quot;&gt;6&lt;/font&gt;" style="text;html=1;align=center;verticalAlign=middle;whiteSpace=wrap;rounded=0;" vertex="1" parent="1">
          <mxGeometry x="380" y="180" width="60" height="30" as="geometry" />
        </mxCell>
        <mxCell id="IcTQPpbToS60JrmOi4kg-7" value="&lt;font style=&quot;font-size: 20px;&quot;&gt;7&lt;/font&gt;" style="text;html=1;align=center;verticalAlign=middle;whiteSpace=wrap;rounded=0;" vertex="1" parent="1">
          <mxGeometry x="440" y="180" width="60" height="30" as="geometry" />
        </mxCell>
        <mxCell id="IcTQPpbToS60JrmOi4kg-8" value="&lt;font style=&quot;font-size: 20px;&quot;&gt;8&lt;/font&gt;" style="text;html=1;align=center;verticalAlign=middle;whiteSpace=wrap;rounded=0;" vertex="1" parent="1">
          <mxGeometry x="500" y="180" width="60" height="30" as="geometry" />
        </mxCell>
        <mxCell id="IcTQPpbToS60JrmOi4kg-9" value="&lt;font style=&quot;font-size: 20px;&quot;&gt;9&lt;/font&gt;" style="text;html=1;align=center;verticalAlign=middle;whiteSpace=wrap;rounded=0;" vertex="1" parent="1">
          <mxGeometry x="560" y="180" width="60" height="30" as="geometry" />
        </mxCell>
        <mxCell id="IcTQPpbToS60JrmOi4kg-10" value="&lt;font style=&quot;font-size: 20px;&quot;&gt;10&lt;/font&gt;" style="text;html=1;align=center;verticalAlign=middle;whiteSpace=wrap;rounded=0;" vertex="1" parent="1">
          <mxGeometry x="620" y="180" width="60" height="30" as="geometry" />
        </mxCell>
        <mxCell id="IcTQPpbToS60JrmOi4kg-11" value="&lt;font style=&quot;font-size: 16px;&quot;&gt;Tamanho = 10&lt;/font&gt;" style="rounded=0;whiteSpace=wrap;html=1;" vertex="1" parent="1">
          <mxGeometry x="160" y="40" width="120" height="60" as="geometry" />
        </mxCell>
        <mxCell id="IcTQPpbToS60JrmOi4kg-12" value="&lt;font style=&quot;font-size: 15px;&quot;&gt;H(k) = k % tamanho&lt;/font&gt;" style="rounded=0;whiteSpace=wrap;html=1;" vertex="1" parent="1">
          <mxGeometry x="340" y="40" width="150" height="60" as="geometry" />
        </mxCell>
      </root>
    </mxGraphModel>
  </diagram>
</mxfile>
